<?xml version="1.0" encoding="UTF-8"?>
<svg id="Layer_2" data-name="Layer 2" xmlns="http://www.w3.org/2000/svg" xmlns:xlink="http://www.w3.org/1999/xlink" viewBox="0 0 1080 1080">
  <defs>
    <style>
      .cls-1 {
        fill: #fff;
      }

      .cls-2 {
        opacity: .5;
      }

      .cls-3 {
        fill: url(#New_Gradient_Swatch_2);
        opacity: .28;
      }

      .cls-4 {
        fill: none;
        stroke: #000;
        stroke-miterlimit: 10;
        stroke-width: 2px;
      }

      .cls-5 {
        opacity: .25;
      }
    </style>
    <linearGradient id="New_Gradient_Swatch_2" data-name="New Gradient Swatch 2" x1="43.11" y1="585.49" x2="1036.89" y2="585.49" gradientUnits="userSpaceOnUse">
      <stop offset="0" stop-color="#caf1b8"/>
      <stop offset="1" stop-color="#9bcbed"/>
      <stop offset="1" stop-color="#98c9f0"/>
    </linearGradient>
  </defs>
  <g id="Layer_1-2" data-name="Layer 1">
    <g>
      <rect class="cls-1" width="1080" height="1080" rx="65.73" ry="65.73"/>
      <rect class="cls-3" x="43.11" y="170.11" width="993.78" height="830.78" rx="39.34" ry="39.34"/>
      <rect class="cls-5" x="66.81" y="47.13" width="946.38" height="75.74" rx="37.11" ry="37.11"/>
      <g>
        <path d="m151.5,88.39v7.83h-1.98v-17.37h1.98v6.39h.19c.3-.68.76-1.21,1.37-1.61.61-.4,1.43-.6,2.45-.6.89,0,1.66.18,2.33.53.67.35,1.19.89,1.56,1.62.37.73.56,1.65.56,2.77v8.28h-2v-8.14c0-1.04-.27-1.85-.8-2.41s-1.28-.85-2.23-.85c-.66,0-1.25.14-1.76.42s-.92.68-1.22,1.21c-.3.53-.45,1.17-.45,1.94Z"/>
        <path d="m168.18,83.19v1.7h-6.74v-1.7h6.74Zm-4.78-3.1h1.98v12.41c0,.68.14,1.17.42,1.49.28.31.72.47,1.33.47.13,0,.27,0,.41-.02s.3-.04.47-.07l.42,1.8c-.19.07-.41.13-.68.17-.27.04-.54.06-.81.06-1.05,0-1.9-.31-2.56-.93-.66-.62-.99-1.43-.99-2.42v-12.94Z"/>
        <path d="m175.73,83.19v1.7h-6.74v-1.7h6.74Zm-4.78-3.1h1.98v12.41c0,.68.14,1.17.42,1.49.28.31.72.47,1.33.47.13,0,.27,0,.41-.02s.3-.04.47-.07l.42,1.8c-.19.07-.41.13-.68.17-.27.04-.54.06-.81.06-1.05,0-1.9-.31-2.56-.93-.66-.62-.99-1.43-.99-2.42v-12.94Z"/>
        <path d="m177.64,101.1v-17.91h1.91v2.08h.23c.15-.23.35-.51.62-.87.26-.35.64-.67,1.14-.95.5-.28,1.17-.42,2.02-.42,1.1,0,2.06.27,2.89.82s1.48,1.33,1.95,2.33c.47,1.01.71,2.19.71,3.56s-.23,2.57-.7,3.58c-.47,1.01-1.12,1.8-1.95,2.35s-1.79.83-2.88.83c-.83,0-1.5-.14-2-.43-.51-.28-.89-.61-1.17-.97-.27-.36-.48-.66-.63-.89h-.16v6.88h-1.98Zm5.69-6.39c.83,0,1.53-.22,2.09-.67.56-.45.98-1.05,1.27-1.8.28-.75.43-1.59.43-2.52s-.14-1.74-.42-2.48c-.28-.74-.7-1.32-1.25-1.76-.56-.44-1.26-.65-2.1-.65s-1.5.2-2.05.61c-.55.41-.97.98-1.25,1.71-.28.73-.43,1.59-.43,2.57s.14,1.84.43,2.59c.29.75.71,1.34,1.26,1.76.56.42,1.23.64,2.03.64Z"/>
        <path d="m200.26,86.13l-1.8.49c-.17-.44-.46-.86-.88-1.27s-1.06-.6-1.94-.6c-.79,0-1.45.19-1.98.55-.53.37-.79.83-.79,1.38,0,.5.18.89.54,1.19s.93.54,1.7.72l1.94.47c1.16.28,2.02.71,2.59,1.29.57.58.86,1.33.86,2.23,0,.75-.21,1.42-.64,2.01-.43.59-1.02,1.06-1.78,1.4-.76.34-1.65.51-2.66.51-1.33,0-2.43-.29-3.29-.87-.87-.58-1.42-1.43-1.65-2.53l1.89-.47c.18.7.52,1.22,1.03,1.57.51.35,1.18.52,2,.52.93,0,1.67-.2,2.22-.6s.83-.88.83-1.43c0-.92-.64-1.53-1.93-1.84l-2.17-.51c-1.2-.29-2.08-.73-2.63-1.32-.56-.59-.84-1.33-.84-2.23,0-.74.21-1.39.62-1.96.42-.57.99-1.01,1.71-1.33.72-.32,1.54-.48,2.45-.48,1.3,0,2.31.29,3.05.86s1.26,1.32,1.57,2.24Z"/>
        <path d="m203.96,86.93c-.42,0-.78-.15-1.08-.45-.3-.3-.45-.66-.45-1.08s.15-.78.45-1.08c.3-.3.66-.45,1.08-.45s.78.15,1.08.45c.3.3.45.66.45,1.08s-.15.78-.45,1.08c-.3.3-.66.45-1.08.45Zm0,9.43c-.42,0-.78-.15-1.08-.45-.3-.3-.45-.66-.45-1.08s.15-.78.45-1.08c.3-.3.66-.45,1.08-.45s.78.15,1.08.45c.3.3.45.66.45,1.08s-.15.78-.45,1.08c-.3.3-.66.45-1.08.45Z"/>
        <path d="m214.21,78.04l-5.6,20.8h-1.84l5.6-20.8h1.84Z"/>
        <path d="m221.6,78.04l-5.6,20.8h-1.84l5.6-20.8h1.84Z"/>
        <path d="m225.8,96.23l-3.96-13.03h2.1l2.82,9.98h.14l2.78-9.98h2.14l2.73,9.96h.14l2.82-9.96h2.1l-3.96,13.03h-1.96l-2.87-10h-.19l-2.87,10h-1.96Z"/>
        <path d="m244.08,96.23l-3.96-13.03h2.1l2.82,9.98h.14l2.78-9.98h2.14l2.73,9.96h.14l2.82-9.96h2.1l-3.96,13.03h-1.96l-2.87-10h-.19l-2.87,10h-1.96Z"/>
        <path d="m262.36,96.23l-3.96-13.03h2.1l2.82,9.98h.14l2.78-9.98h2.14l2.73,9.96h.14l2.82-9.96h2.1l-3.96,13.03h-1.96l-2.87-10h-.19l-2.87,10h-1.96Z"/>
        <path d="m277.49,96.37c-.42,0-.78-.15-1.08-.45-.3-.3-.45-.66-.45-1.08s.15-.78.45-1.08c.3-.3.66-.45,1.08-.45s.78.15,1.08.45c.3.3.45.66.45,1.08s-.15.78-.45,1.08c-.3.3-.66.45-1.08.45Z"/>
        <path d="m283.16,96.37c-.42,0-.78-.15-1.08-.45-.3-.3-.45-.66-.45-1.08s.15-.78.45-1.08c.3-.3.66-.45,1.08-.45s.78.15,1.08.45c.3.3.45.66.45,1.08s-.15.78-.45,1.08c-.3.3-.66.45-1.08.45Z"/>
        <path d="m288.82,96.37c-.42,0-.78-.15-1.08-.45-.3-.3-.45-.66-.45-1.08s.15-.78.45-1.08c.3-.3.66-.45,1.08-.45s.78.15,1.08.45c.3.3.45.66.45,1.08s-.15.78-.45,1.08c-.3.3-.66.45-1.08.45Z"/>
      </g>
      <g class="cls-2">
        <rect x="96.29" y="79.38" width="24.35" height="21.53"/>
        <ellipse class="cls-4" cx="108.46" cy="79.1" rx="7.68" ry="10.02"/>
      </g>
      <g>
        <path d="m952.29,837.83c-33.63,0-60.9,27.26-60.9,60.9s27.26,60.9,60.9,60.9,60.9-27.26,60.9-60.9-27.26-60.9-60.9-60.9Zm-36.85,54.48h30.46v-30.46h11.64v42.11h-42.1v-11.66Zm73.71,12.83c-16.82,0-30.46,13.64-30.46,30.46h-11.64c.02-23.25,18.85-42.09,42.1-42.11v11.66Z"/>
        <rect class="cls-5" x="587.78" y="471.51" width="425.41" height="75.74" rx="37.11" ry="37.11"/>
        <rect class="cls-5" x="575.5" y="587.77" width="437.69" height="75.74" rx="37.11" ry="37.11"/>
        <rect class="cls-5" x="666.75" y="704.03" width="346.44" height="75.74" rx="37.11" ry="37.11"/>
      </g>
    </g>
  </g>
</svg>