<?xml version="1.0" encoding="UTF-8"?>
<svg id="Layer_2" data-name="Layer 2" xmlns="http://www.w3.org/2000/svg" viewBox="0 0 956.77 198.7">
  <defs>
    <style>
      .cls-1 {
        fill: #fff;
      }
    </style>
  </defs>
  <g id="Layer_1-2" data-name="Layer 1">
    <g>
      <g>
        <path class="cls-1" d="m344.1,96.83s26.89-3.88,26.89-37.2c0-13.33-5.47-22.73-12.04-29.21-8.54-8.43-20.24-12.88-32.24-12.88h-69.71v169.23h77.17c8.71,0,17.34-2.16,24.84-6.59,10.28-6.07,18.59-17.56,19.87-39.01,2.51-42.37-34.78-44.34-34.78-44.34Zm-63.43-58.77l29.88-.22c9.16,0,16.55.43,24.38,5.02,6.66,3.9,12.74,14.18,11.47,22.97-.07.49-.15.97-.24,1.44-2.4,12.86-11.69,21.13-27.03,21.99l-38.46.22v-51.42Zm74.86,101.44c-1.35,18.8-14.33,27.11-30.18,27.33h-44.67l.22-56.4h43.45c7.75-.43,13.41,1.6,15.33,2.43,8.57,3.68,15.63,10.55,16.06,22.73.06,1.75-.17,3.39-.21,3.91Z"/>
        <g>
          <path class="cls-1" d="m407.71,45.83c4.15,0,7.73-1.41,10.73-4.23,3-2.82,4.5-6.19,4.5-10.12s-1.5-7.41-4.5-10.23-6.58-4.23-10.73-4.23-7.82,1.41-10.79,4.23c-2.97,2.82-4.45,6.23-4.45,10.23s1.48,7.3,4.45,10.12c2.97,2.82,6.56,4.23,10.79,4.23Z"/>
          <rect class="cls-1" x="395.58" y="61.56" width="24.02" height="124.35"/>
        </g>
        <path class="cls-1" d="m437.92,185.63V61.28h23.25v19.91h1.33c2.3-6.67,6.32-11.96,12.07-15.85,5.75-3.89,12.25-5.84,19.52-5.84,1.48,0,3.24.06,5.28.17,2.04.11,3.69.24,4.95.39v23.13c-.97-.3-2.69-.59-5.17-.89-2.49-.29-4.99-.44-7.51-.44-5.71,0-10.81,1.21-15.29,3.61-4.49,2.41-8.01,5.71-10.57,9.9-2.56,4.19-3.84,9.03-3.84,14.52v75.74h-24.02Z"/>
        <path class="cls-1" d="m557.65,188.75c-11.94,0-22.25-2.74-30.92-8.23-8.68-5.49-15.35-13.05-20.02-22.69-4.67-9.64-7.01-20.69-7.01-33.14s2.39-23.86,7.17-33.53c4.78-9.68,11.49-17.24,20.13-22.69,8.64-5.45,18.78-8.18,30.42-8.18,9.49,0,17.92,1.72,25.3,5.17,7.38,3.45,13.35,8.32,17.91,14.63,4.56,6.3,7.25,13.64,8.06,22.02h-23.58c-.82-3.93-2.39-7.53-4.73-10.79-2.33-3.26-5.39-5.86-9.18-7.79-3.78-1.93-8.27-2.89-13.46-2.89-6.75,0-12.62,1.76-17.63,5.28-5,3.52-8.92,8.55-11.73,15.07-2.82,6.53-4.23,14.24-4.23,23.13s1.37,16.8,4.12,23.47c2.74,6.67,6.66,11.81,11.73,15.4,5.08,3.6,10.99,5.39,17.74,5.39s12.92-1.93,17.85-5.78c4.93-3.85,8.1-9.12,9.51-15.79h23.58c-.82,8.08-3.41,15.28-7.79,21.58-4.38,6.3-10.23,11.27-17.57,14.9s-15.9,5.45-25.69,5.45Z"/>
        <path class="cls-1" d="m644.64,16.26v169.65h-24.02V16.26h24.02Z"/>
        <path class="cls-1" d="m771.72,122.4c0-11.2-1.54-20.76-4.61-28.7-3.08-7.93-7.25-14.38-12.51-19.35-5.27-4.97-11.2-8.6-17.8-10.9-6.6-2.3-13.42-3.45-20.47-3.45-11.57,0-21.63,2.73-30.2,8.18-8.56,5.45-15.2,13.03-19.91,22.74-4.71,9.72-7.06,20.95-7.06,33.7s2.39,24.04,7.17,33.65c4.78,9.6,11.62,17.04,20.52,22.3,8.9,5.27,19.43,7.9,31.59,7.9,9.05,0,17.11-1.39,24.19-4.17,7.08-2.78,12.96-6.69,17.63-11.73,4.67-5.04,7.93-10.9,9.79-17.57l-22.91-4.34c-1.41,3.93-3.49,7.23-6.23,9.9-2.74,2.67-5.99,4.67-9.73,6.01-3.74,1.33-7.92,2-12.51,2-7.05,0-13.22-1.56-18.52-4.67-5.3-3.11-9.44-7.64-12.4-13.57-2.68-5.35-4.13-11.77-4.39-19.24h88.37v-8.68Zm-84.53-24.14c2.59-5.49,6.36-9.9,11.29-13.24,4.93-3.34,10.88-5.01,17.85-5.01s12.81,1.65,17.52,4.95c4.71,3.3,8.25,7.88,10.62,13.74,1.73,4.27,2.82,9.02,3.29,14.24h-64.33c.37-5.25,1.61-10.14,3.76-14.68Z"/>
        <path class="cls-1" d="m892.98,185.11h26.47l-59.51-168.32h-28.92l-59.62,168.32h26.58l15.14-44.62h64.64l15.21,44.62Zm-72.64-65.86l24.37-71.85h1.33l24.49,71.85h-50.2Z"/>
        <path class="cls-1" d="m956.77,15.53v170.38h-25.03V15.53h25.03Z"/>
      </g>
      <g>
        <polygon class="cls-1" points="0 80.09 80.09 80.09 80.09 0 110.83 0 110.83 110.83 0 110.83 0 80.09"/>
        <path class="cls-1" d="m198.7,118.61c-44.19.11-79.99,35.9-80.09,80.09h-30.74c.11-61.17,49.67-110.73,110.83-110.83v30.74Z"/>
      </g>
    </g>
  </g>
</svg>