<?xml version="1.0" encoding="UTF-8"?>
<svg id="Layer_2" data-name="Layer 2" xmlns="http://www.w3.org/2000/svg" xmlns:xlink="http://www.w3.org/1999/xlink" viewBox="0 0 1080 1080">
  <defs>
    <style>
      .cls-1 {
        fill: url(#New_Gradient_Swatch_2);
        opacity: .36;
      }

      .cls-2 {
        fill: #231f20;
        opacity: .57;
      }

      .cls-3 {
        fill: #00b73b;
        fill-rule: evenodd;
      }
    </style>
    <linearGradient id="New_Gradient_Swatch_2" data-name="New Gradient Swatch 2" x1="0" y1="540" x2="1080" y2="540" gradientUnits="userSpaceOnUse">
      <stop offset="0" stop-color="#caf1b8"/>
      <stop offset="1" stop-color="#9bcbed"/>
      <stop offset="1" stop-color="#98c9f0"/>
    </linearGradient>
  </defs>
  <g id="Layer_1-2" data-name="Layer 1">
    <g>
      <rect class="cls-1" width="1080" height="1080" rx="65.73" ry="65.73"/>
      <g>
        <g id="WA_Logo" data-name="WA Logo">
          <path class="cls-3" d="m676.58,402.66c-36.24-36.27-84.43-56.25-135.77-56.27-105.79,0-191.89,86.07-191.94,191.86-.01,33.82,8.82,66.83,25.62,95.92l-27.23,99.43,101.75-26.68c28.03,15.29,59.6,23.34,91.72,23.35h.08s0,0,0,0c105.78,0,191.89-86.08,191.93-191.87.02-51.27-19.93-99.48-56.16-135.74Zm-135.77,295.21h-.07c-28.62-.01-56.7-7.7-81.19-22.23l-5.83-3.46-60.38,15.83,16.12-58.85-3.79-6.03c-15.97-25.39-24.4-54.74-24.39-84.87.03-87.93,71.6-159.47,159.59-159.47,42.61.02,82.66,16.63,112.78,46.77,30.12,30.14,46.7,70.21,46.68,112.83-.04,87.94-71.6,159.48-159.53,159.48Zm87.5-119.44c-4.8-2.4-28.37-14-32.77-15.6-4.4-1.6-7.59-2.4-10.79,2.4-3.2,4.8-12.39,15.6-15.19,18.8-2.8,3.2-5.59,3.6-10.39,1.2-4.8-2.4-20.25-7.46-38.57-23.8-14.26-12.71-23.88-28.41-26.68-33.21s-.3-7.39,2.1-9.78c2.16-2.15,4.8-5.6,7.19-8.4,2.4-2.8,3.2-4.8,4.8-8,1.6-3.2.8-6-.4-8.4-1.2-2.4-10.79-26-14.79-35.6-3.89-9.35-7.85-8.08-10.79-8.23-2.79-.14-5.99-.17-9.19-.17s-8.39,1.2-12.79,6c-4.4,4.8-16.78,16.4-16.78,40s17.18,46.39,19.58,49.59c2.4,3.2,33.82,51.63,81.93,72.39,11.44,4.94,20.38,7.89,27.34,10.1,11.49,3.65,21.94,3.13,30.21,1.9,9.21-1.38,28.37-11.6,32.37-22.8,4-11.2,4-20.8,2.8-22.8-1.2-2-4.4-3.2-9.19-5.6Z"/>
        </g>
        <path class="cls-2" d="m764.29,712.26c-6.95,3.25-9.96,11.36-7.24,18.4-.08.02-.15.02-.2.03l-5.73-12.27c-3.38-7.24-12.08-10.41-19.33-7.02-7.23,3.38-10.4,12.09-7.02,19.33l-6.16-13.18c-3.38-7.24-12.07-10.41-19.33-7.02-7.23,3.38-10.4,12.09-7.02,19.33l-24.62-52.7c-3.38-7.24-12.07-10.41-19.33-7.02-7.23,3.38-10.4,12.09-7.02,19.33l3.93,8.41,33,70.64,4.45,9.52c.75,1.61-.05,3.72-1.38,4.91-1.33,1.18-3.46,1.46-4.99.53-15.61-8.11-20.83-20.89-34.8-14.36-3.24,1.51-5.45,4.63-5.8,8.19-.31,3.56,1.25,7.04,4.14,9.13l82.78,69.56c2.13,1.54,4.95,1.81,7.35.69,11.53-5.39,52.19-24.38,76.97-35.96,10.91-5.1,15.63-18.07,10.53-29-16.49-35.31-33.86-72.47-33.86-72.47-3.38-7.24-12.07-10.41-19.33-7.02Z"/>
      </g>
    </g>
  </g>
</svg>