<?xml version="1.0"?>
<svg version="1.1" xmlns="http://www.w3.org/2000/svg" width="400px" height="211px" style=""><path fill="#" d="M11,96.1484375q0-0.328125,0.45703125-0.50390625t0.59765625-0.17578125l0.8671875-0.140625q0.8671875-0.140625,1.7578125-0.24609375t1.734375-0.19921875q2.9765625-0.375,5.953125-0.73828125t6-0.36328125q0.234375,0,0.64453125,0.0234375t0.8203125,0.12890625t0.703125,0.29296875t0.29296875,0.515625q0,0.234375-0.22265625,0.41015625t-0.52734375,0.26953125t-0.62109375,0.1171875t-0.50390625,0.0234375l-0.41015625,0t-0.41015625-0.09375q-1.2421875,0-2.44921875,0.1171875t-2.44921875,0.2109375q0.328125,0.375,0.3515625,1.0546875t0.046875,1.171875q0,8.296875,0.1171875,16.5t0.2109375,16.5703125l0,0.046875q-0.7734375,0.6796875-1.32421875,0.8671875t-1.11328125,0.1875q-0.5390625,0-1.08984375-0.19921875t-1.32421875-0.85546875l0-0.046875l0.1875-18.3984375q0-1.828125-0.046875-4.03125t-0.046875-4.46484375t0.0703125-4.37109375t0.375-3.6796875q-1.3828125,0.140625-2.9296875,0.421875q-1.3359375,0.234375-2.5546875,0.234375l-0.421875,0q-0.09375,0-0.55078125,0.0234375t-0.9375-0.0234375t-0.8671875-0.1875t-0.38671875-0.46875z M34.171953125,126.96875q0.046875-0.984375,0.046875-1.921875q0-3.3984375,0.24609375-6.7734375t0.33984375-6.7734375q0.140625-3.890625,0.2578125-7.7109375t0.46875-7.6875q0.09375-0.9609375,0.55078125-1.25390625t1.37109375-0.29296875q0.421875,0,1.125,0.1640625t0.703125,0.796875q0.328125,0.046875,0.65625,0.046875q0.4921875,0,1.0078125-0.09375q0.84375-0.140625,1.72265625-0.31640625t1.74609375-0.33984375t1.6640625-0.1640625q0.1875,0,0.52734375,0.0234375t0.6796875,0.140625t0.57421875,0.29296875t0.234375,0.45703125t-0.55078125,0.50390625t-1.44140625,0.38671875t-1.921875,0.28125t-2.015625,0.19921875t-1.74609375,0.12890625t-1.08984375,0.046875l-0.046875,8.8125l0.046875,4.3828125q0.7265625,0,2.1796875-0.046875q0.5859375-0.0234375,1.171875-0.0234375q0.890625,0,1.828125,0.046875q1.546875,0.0703125,2.7890625,0.28125t1.5703125,0.75q0,0.328125-0.33984375,0.52734375t-0.76171875,0.29296875t-0.85546875,0.1171875t-0.62109375,0.0234375q-1.734375,0-3.4921875-0.0703125t-3.46875-0.28125q0,2.8828125-0.15234375,5.71875t-0.15234375,5.71875q0,1.2421875,0.0234375,2.44921875t0.28125,2.40234375q0.6328125-0.046875,1.37109375-0.1171875t1.5-0.17578125t1.46484375-0.17578125t1.21875-0.0703125q0.28125,0,0.76171875,0.0703125t0.984375,0.234375t0.8671875,0.41015625t0.36328125,0.57421875q0,0.375-0.69140625,0.66796875t-1.76953125,0.46875t-2.35546875,0.24609375t-2.47265625,0.09375t-2.15625,0.0234375l-1.359375,0q-1.2890625,0-1.88671875-0.48046875t-0.83203125-1.25390625q-0.1875-0.6328125-0.1640625-1.4296875l0-0.328125z M53.52359375,128.9609375q0-0.140625,0.09375-0.99609375t0.24609375-2.0859375t0.33984375-2.6484375t0.328125-2.68359375t0.24609375-2.2265625t0.10546875-1.2890625q-0.1875-0.09375-0.45703125-0.26953125t-0.26953125-0.41015625q0-0.328125,0.31640625-0.52734375t0.55078125-0.29296875q0.09375-1.1953125,0.234375-3.328125t0.43359375-4.60546875t0.8203125-5.015625t1.39453125-4.6171875t2.0859375-3.38671875t3-1.3125t2.953125,1.125t1.91015625,2.9296875t1.125,4.0078125t0.5859375,4.3828125t0.24609375,4.078125t0.09375,3.046875q0.046875,0.7265625,0.3515625,0.97265625t0.66796875,0.33984375t0.65625,0.2109375t0.29296875,0.5859375q0,0.5390625-0.65625,0.75t-1.03125,0.2578125q0.234375,2.9296875,0.64453125,5.765625t1.08984375,5.71875q0.09375,0.5390625,0.2578125,1.08984375t0.1640625,1.06640625q0,0.375-0.2578125,0.62109375t-0.66796875,0.38671875t-0.8203125,0.1875t-0.69140625,0.046875q-1.0546875,0-1.78125-0.3984375t-0.9609375-1.5234375q-0.6328125-3.0234375-1.2421875-6.3515625q-0.515625-2.8828125-0.515625-5.6015625q0-0.421875,0.0234375-0.84375q-1.96875,0-3.9609375,0.09375t-3.8203125,0.703125q-0.046875,0.6328125-0.234375,2.390625t-0.421875,3.7734375t-0.48046875,3.85546875t-0.29296875,2.61328125q-0.046875,0.328125-0.48046875,0.62109375t-0.9375,0.31640625t-0.890625-0.31640625t-0.38671875-1.20703125z M57.90640625,114.7578125q1.828125-0.421875,3.66796875-0.4921875t3.71484375-0.1640625q-0.09375-0.5859375-0.046875-1.20703125t0.046875-1.25390625q0-1.3828125-0.0703125-3.2109375t-0.2109375-3.703125t-0.36328125-3.69140625t-0.50390625-3.234375t-0.59765625-2.26171875t-0.69140625-0.84375q-0.7265625,0.046875-1.37109375,1.25390625t-1.171875,3.0703125t-0.9609375,4.171875t-0.7265625,4.51171875t-0.48046875,4.1015625t-0.234375,2.953125z M77.187734375,125.703125q-0.0234375-0.703125-0.0234375-1.40625q0-2.203125,0.234375-4.4296875q0.28125-2.953125,0.375-5.8125q0.09375-3.3515625,0.28125-6.9609375q0.1171875-1.96875,0.1171875-3.890625q0-1.5703125-0.0703125-3.1171875q0.234375-0.5390625,0.62109375-0.7265625t0.97265625-0.1875q0.28125,0,0.59765625,0.046875t0.55078125,0.234375q0.328125,0.046875,0.80859375,0.09375t0.73828125,0.28125q0.09375,0.140625,0.48046875,0.9609375t0.9140625,1.9921875t1.1015625,2.54296875t1.1015625,2.6015625t0.9140625,2.16796875t0.48046875,1.171875q2.203125-3.984375,4.3125-8.19140625t4.6171875-7.93359375q0.234375-0.328125,0.80859375-0.48046875t0.94921875-0.15234375q1.0078125,0,1.46484375,0.48046875t0.59765625,1.23046875q0.09375,0.46875,0.1171875,1.0078125q0.0234375,0.28125-0.0234375,0.5859375q-0.09375,0.8671875-0.09375,1.640625q0,5.4609375-0.375,10.83984375t-0.6796875,10.86328125q-0.046875,1.125-0.046875,2.34375t0.046875,2.53125q0.0234375,0.46875,0.0234375,0.9140625q0,2.0625-0.3515625,3.84375q-0.328125,0.5390625-1.078125,0.6796875t-1.265625,0.140625q-1.1015625,0-2.109375-0.515625l-0.2578125-0.3046875l-0.09375-0.375t-0.046875-0.375q0-3.3984375,0.24609375-6.84375t0.55078125-6.87890625t0.64453125-6.85546875t0.57421875-6.84375q-1.3828125,2.296875-2.68359375,4.67578125t-2.44921875,4.83984375q-0.421875,0.9609375-0.80859375,2.0625t-0.92578125,1.96875q-0.28125,0.421875-0.94921875,0.515625t-1.16015625,0.09375q-0.46875,0-0.97265625-0.1640625t-0.69140625-0.703125q-0.8671875-2.6484375-1.8515625-5.1796875t-1.9921875-5.1328125q0,1.734375,0.0703125,4.48828125t0.0703125,5.70703125t-0.09375,5.6484375t-0.4453125,4.265625q-0.09375,0.5859375-0.76171875,0.7265625t-1.16015625,0.140625q-0.375,0-0.71484375-0.046875t-0.66796875-0.1875z"/><path fill="#" d="M120.4296875,126.96875q0.046875-0.984375,0.046875-1.921875q0-3.3984375,0.24609375-6.7734375t0.33984375-6.7734375q0.140625-3.890625,0.2578125-7.7109375t0.46875-7.6875q0.09375-0.9609375,0.55078125-1.25390625t1.37109375-0.29296875q0.421875,0,1.125,0.1640625t0.703125,0.796875q0.328125,0.046875,0.65625,0.046875q0.4921875,0,1.0078125-0.09375q0.84375-0.140625,1.72265625-0.31640625t1.74609375-0.33984375t1.6640625-0.1640625q0.1875,0,0.52734375,0.0234375t0.6796875,0.140625t0.57421875,0.29296875t0.234375,0.45703125t-0.55078125,0.50390625t-1.44140625,0.38671875t-1.921875,0.28125t-2.015625,0.19921875t-1.74609375,0.12890625t-1.08984375,0.046875l-0.046875,8.8125l0.046875,4.3828125q0.7265625,0,2.1796875-0.046875q0.5859375-0.0234375,1.171875-0.0234375q0.890625,0,1.828125,0.046875q1.546875,0.0703125,2.7890625,0.28125t1.5703125,0.75q0,0.328125-0.33984375,0.52734375t-0.76171875,0.29296875t-0.85546875,0.1171875t-0.62109375,0.0234375q-1.734375,0-3.4921875-0.0703125t-3.46875-0.28125q0,2.8828125-0.15234375,5.71875t-0.15234375,5.71875q0,1.2421875,0.0234375,2.44921875t0.28125,2.40234375q0.6328125-0.046875,1.37109375-0.1171875t1.5-0.17578125t1.46484375-0.17578125t1.21875-0.0703125q0.28125,0,0.76171875,0.0703125t0.984375,0.234375t0.8671875,0.41015625t0.36328125,0.57421875q0,0.375-0.69140625,0.66796875t-1.76953125,0.46875t-2.35546875,0.24609375t-2.47265625,0.09375t-2.15625,0.0234375l-1.359375,0q-1.2890625,0-1.88671875-0.48046875t-0.83203125-1.25390625q-0.1875-0.6328125-0.1640625-1.4296875l0-0.328125z M139.945390625,120.875l0-0.6796875q0-0.84375,0.046875-1.59375q0.046875-1.0546875,0.046875-1.734375q0-0.375,0.046875-0.85546875t0.234375-0.76171875q0.234375-0.234375,0.55078125-0.48046875t0.69140625-0.24609375q1.1953125,0,1.875,0.26953125t0.7265625,1.11328125l0.09375,0.7265625q0.421875-1.0078125,1.125-2.49609375t1.62890625-2.8359375t2.0859375-2.296875t2.44921875-0.94921875q1.1953125,0,1.96875,1.125t1.23046875,2.87109375t0.64453125,3.890625t0.2578125,4.20703125t0.09375,3.76171875t0.1640625,2.56640625q0.09375,0.7265625,0.31640625,1.53515625t0.22265625,1.48828125q0,0.1875-0.26953125,0.36328125t-0.57421875,0.29296875t-0.62109375,0.1875t-0.45703125,0.0703125q-0.9140625,0-1.30078125-1.37109375t-0.48046875-3.43359375t-0.09375-4.46484375t-0.1640625-4.46484375t-0.66796875-3.43359375t-1.60546875-1.41796875q-1.0078125,0-2.0859375,1.30078125t-1.8515625,3.45703125q-0.75,2.15625-1.03125,4.8984375q-0.09375,0.8671875-0.09375,1.734375q0,1.8984375,0.3984375,3.796875q0.046875,0.328125-0.26953125,0.4921875t-0.78515625,0.2578125t-0.94921875,0.1171875t-0.73828125,0.0234375q-0.9140625,0-1.46484375-0.64453125t-0.85546875-1.65234375t-0.41015625-2.26171875t-0.12890625-2.47265625z M161.24234375,129.078125q0-0.6796875,0.05859375-1.4296875t0.10546875-1.40625l0.140625-3.515625q0.234375-4.21875,0.57421875-8.296875t0.57421875-8.25q0.140625-2.296875,0.2109375-4.51171875t0.2109375-4.51171875q-0.09375-0.1875-0.09375-0.2578125q0-0.328125,0.24609375-0.515625t0.57421875-0.31640625t0.69140625-0.17578125t0.55078125-0.046875l0.5390625,0q0.7265625,0.09375,1.0546875,0.45703125t0.421875,0.8671875t0.046875,1.078125t-0.046875,1.06640625q0,3.3984375-0.1640625,6.92578125t-0.375,7.078125t-0.38671875,7.1015625t-0.17578125,7.01953125l0,1.640625q0,1.1015625-0.62109375,1.453125t-1.72265625,0.3515625q-0.9609375,0-1.6875-0.421875t-0.7265625-1.3828125z M171.992421875,120.7578125q0-1.59375,0.43359375-3.0703125t1.30078125-2.63671875t2.16796875-1.8515625t3.01171875-0.69140625q1.0546875,0,2.33203125,0.31640625t2.40234375,0.9375t1.875,1.58203125t0.75,2.203125q0,0.5859375-0.19921875,0.890625t-0.80859375,0.3046875l-0.2578125-0.046875q0.6796875,1.828125,1.171875,3.75t0.9609375,3.84375q0.1875,0.375,0.28125,0.66796875t0.09375,0.57421875q0,0.375-0.2109375,0.62109375t-0.55078125,0.36328125t-0.703125,0.1640625t-0.64453125,0.046875q-1.0078125,0-1.51171875-0.3515625t-0.7265625-0.9609375t-0.26953125-1.37109375t-0.1875-1.53515625q-0.28125,0.9140625-0.73828125,1.78125t-1.078125,1.55859375t-1.46484375,1.1015625t-1.8984375,0.41015625q-1.546875,0-2.6015625-0.890625t-1.69921875-2.19140625t-0.9375-2.77734375t-0.29296875-2.7421875z M175.320546875,120.4296875q0,0.8671875,0.1171875,1.828125t0.38671875,1.8984375t0.69140625,1.76953125t1.0546875,1.46484375q1.1484375-1.2421875,1.69921875-3.0234375t0.984375-3.43359375t0.984375-2.8359375t1.69921875-1.18359375q0.7265625,0,1.21875,0.2578125q-0.234375-0.5859375-0.7734375-1.13671875t-1.20703125-1.0078125t-1.3828125-0.75t-1.34765625-0.29296875q-0.1875,0-0.43359375,0.05859375t-0.38671875,0.01171875q-0.9609375,0.28125-1.58203125,0.97265625t-1.0078125,1.62890625t-0.55078125,1.921875t-0.1640625,1.8515625z M192.305,120.2890625q0-1.6875,0.43359375-3.38671875t1.34765625-3.046875t2.33203125-2.19140625t3.33984375-0.84375q0.8203125,0,1.8046875,0.19921875t1.81640625,0.6328125t1.40625,1.125t0.57421875,1.69921875q0,0.6328125-0.328125,0.84375t-0.8671875,0.2109375l-0.1640625-0.234375t-0.45703125-0.59765625t-0.62109375-0.7734375t-0.6328125-0.69140625q-0.9609375-0.9609375-1.8046875-1.03125l-0.1875,0q-0.703125,0-1.3125,0.421875q-0.6796875,0.515625-1.20703125,1.453125t-0.87890625,1.9921875t-0.55078125,2.1328125t-0.19921875,1.78125q0,0.9609375,0.22265625,2.19140625t0.75,2.33203125t1.3359375,1.8515625t2.07421875,0.75q1.1484375,0,2.0859375-0.5625t1.79296875-1.25390625t1.67578125-1.2421875t1.6875-0.55078125q0.375,0,0.76171875,0.09375t0.38671875,0.4921875l0,0.140625q-0.421875,1.1015625-1.4296875,1.9453125t-2.26171875,1.46484375t-2.6015625,0.92578125t-2.40234375,0.3046875q-1.96875,0-3.45703125-0.64453125t-2.47265625-1.76953125t-1.48828125-2.70703125t-0.50390625-3.45703125z M212.758203125,121.71875q0-1.640625,0.36328125-3.8671875t1.23046875-4.21875t2.28515625-3.38671875t3.57421875-1.39453125q2.015625,0,3.0234375,1.16015625t1.0078125,3.12890625q0,1.2890625-0.48046875,2.82421875t-1.37109375,2.90625t-2.109375,2.28515625t-2.71875,0.9140625l-0.609375-0.046875q0,0.6328125,0.1875,1.69921875t0.55078125,2.12109375t0.9375,1.8515625t1.39453125,0.796875q1.1953125,0,2.296875-0.9609375t2.0859375-2.1328125t1.828125-2.1328125t1.546875-0.9609375q0.375,0,0.7734375,0.1171875t0.4453125,0.65625q0,0.328125-0.17578125,0.5390625t-0.31640625,0.46875q-0.7265625,1.2421875-1.58203125,2.3671875t-1.93359375,2.0390625t-2.35546875,1.44140625t-2.82421875,0.52734375q-2.015625,0-3.3515625-0.71484375t-2.15625-1.921875t-1.18359375-2.7890625t-0.36328125-3.31640625z M216.953515625,119.9375l0.65625,0.5859375q0.46875,0.421875,0.9375,0.1875t0.84375-0.85546875t0.69140625-1.53515625t0.5625-1.875t0.36328125-1.875t0.1171875-1.5234375l0-0.796875t-0.0703125-0.84375t-0.24609375-0.66796875t-0.55078125-0.33984375q-0.1171875-0.0234375-0.2109375-0.0234375q-0.796875,0-1.359375,1.0078125q-0.609375,1.125-0.984375,2.73046875t-0.5390625,3.29296875t-0.2109375,2.53125z M241.523984375,117.453125l0-3.703125q0-3.84375,0.12890625-7.62890625t0.22265625-7.62890625q0-0.7265625-0.046875-1.6171875q-0.0234375-0.2578125-0.0234375-0.4921875q0-0.5859375,0.09375-1.1484375q0.1171875-0.75,0.57421875-1.2890625t1.51171875-0.5390625q0.8671875,0,1.32421875,0.1875t0.64453125,0.55078125t0.2109375,0.9140625t0.0234375,1.27734375q0,3.890625-0.09375,7.8046875q-0.0703125,2.6015625-0.0703125,5.203125q0,1.3125,0.0234375,2.625q0.046875,3.890625,0.36328125,7.78125t1.06640625,7.6875q2.34375-0.09375,4.6875-0.234375t4.6875-0.140625q0.234375,0,0.66796875,0.046875t0.8671875,0.1640625t0.73828125,0.3046875t0.3046875,0.5390625q0,0.234375-0.2109375,0.3984375t-0.3984375,0.2578125l-0.046875,0q-0.375,0.1875-1.48828125,0.36328125t-2.53125,0.26953125t-2.9765625,0.1640625t-2.9296875,0.1171875t-2.37890625,0.0703125t-1.2421875,0.0234375l-0.2109375,0q-0.5625,0-1.265625-0.1875q-0.84375-0.234375-1.0546875-0.9140625q-0.421875-1.734375-0.66796875-3.59765625t-0.375-3.78515625t-0.12890625-3.84375z M262.7975,120.7578125q0-1.59375,0.43359375-3.0703125t1.30078125-2.63671875t2.16796875-1.8515625t3.01171875-0.69140625q1.0546875,0,2.33203125,0.31640625t2.40234375,0.9375t1.875,1.58203125t0.75,2.203125q0,0.5859375-0.19921875,0.890625t-0.80859375,0.3046875l-0.2578125-0.046875q0.6796875,1.828125,1.171875,3.75t0.9609375,3.84375q0.1875,0.375,0.28125,0.66796875t0.09375,0.57421875q0,0.375-0.2109375,0.62109375t-0.55078125,0.36328125t-0.703125,0.1640625t-0.64453125,0.046875q-1.0078125,0-1.51171875-0.3515625t-0.7265625-0.9609375t-0.26953125-1.37109375t-0.1875-1.53515625q-0.28125,0.9140625-0.73828125,1.78125t-1.078125,1.55859375t-1.46484375,1.1015625t-1.8984375,0.41015625q-1.546875,0-2.6015625-0.890625t-1.69921875-2.19140625t-0.9375-2.77734375t-0.29296875-2.7421875z M266.125625,120.4296875q0,0.8671875,0.1171875,1.828125t0.38671875,1.8984375t0.69140625,1.76953125t1.0546875,1.46484375q1.1484375-1.2421875,1.69921875-3.0234375t0.984375-3.43359375t0.984375-2.8359375t1.69921875-1.18359375q0.7265625,0,1.21875,0.2578125q-0.234375-0.5859375-0.7734375-1.13671875t-1.20703125-1.0078125t-1.3828125-0.75t-1.34765625-0.29296875q-0.1875,0-0.43359375,0.05859375t-0.38671875,0.01171875q-0.9609375,0.28125-1.58203125,0.97265625t-1.0078125,1.62890625t-0.55078125,1.921875t-0.1640625,1.8515625z M283.110078125,113.9375q0-1.640625,0.15234375-4.265625t0.36328125-5.4140625t0.52734375-5.28515625t0.69140625-3.83203125q0.140625-0.5859375,0.66796875-0.703125t1.06640625-0.1171875q0.7265625,0,1.25390625,0.2578125t0.52734375,1.125q0,4.265625-0.52734375,8.54296875t-0.57421875,8.54296875q0.7265625-1.1015625,1.875-1.65234375t2.4375-0.55078125q1.78125,0,3.0703125,0.7265625t2.0859375,1.875t1.18359375,2.66015625t0.38671875,3.08203125q0,0.8671875-0.17578125,2.16796875t-0.52734375,2.7421875t-0.890625,2.859375t-1.27734375,2.54296875t-1.69921875,1.81640625t-2.109375,0.69140625q-0.234375,0-0.62109375-0.0703125t-0.7734375-0.2109375t-0.64453125-0.36328125t-0.2578125-0.55078125q0-0.375,0.45703125-0.52734375t0.73828125-0.15234375q1.0546875-0.46875,1.875-1.95703125t1.37109375-3.26953125t0.83203125-3.52734375t0.28125-2.84765625q0-0.6328125-0.1875-1.6875t-0.57421875-2.0859375t-1.0546875-1.78125t-1.58203125-0.75q-1.1015625,0-1.7578125,1.13671875t-1.03125,2.6484375t-0.50390625,3.1171875t-0.12890625,2.51953125q0,0.5859375,0.19921875,1.16015625t0.45703125,1.1484375t0.45703125,1.171875t0.19921875,1.18359375q0,0.28125-0.24609375,0.46875t-0.57421875,0.3046875t-0.69140625,0.15234375t-0.55078125,0.03515625q-1.3359375,0-1.8515625-0.6328125t-0.890625-1.78125q-0.8203125-2.6015625-1.13671875-5.28515625t-0.31640625-5.37890625z M302.62578125,121.203125q0-1.3359375,0.33984375-2.75390625t1.078125-2.5546875t1.86328125-1.8515625t2.71875-0.71484375q1.1953125,0,2.51953125,0.41015625t2.42578125,1.171875t1.79296875,1.86328125t0.69140625,2.4609375q0,1.640625-0.59765625,3.1171875t-1.67578125,2.63671875t-2.51953125,1.828125t-3.12890625,0.66796875q-1.3828125,0-2.4140625-0.50390625t-1.72265625-1.34765625t-1.03125-1.9921875t-0.33984375-2.4375z M306.07109375,121.15625q0,0.421875,0.12890625,1.2421875t0.38671875,1.60546875t0.66796875,1.359375t0.99609375,0.52734375q1.2421875-0.140625,2.05078125-0.80859375t1.3125-1.62890625t0.703125-2.0859375t0.19921875-2.1328125q0-1.2890625-0.50390625-2.15625t-1.65234375-1.40625q0,0.046875,0.046875,0.046875t0.046875-0.046875l-0.5859375-0.140625q-0.234375-0.09375-0.57421875-0.2109375t-0.66796875-0.515625q-0.9140625,0.328125-1.41796875,0.84375t-0.76171875,1.25390625t-0.31640625,1.76953125t-0.05859375,2.484375z M320.383671875,114.1953125q0-0.9609375,0.33984375-1.6171875t1.44140625-0.65625q0.421875,0,1.0546875,0.12890625t0.7265625,0.64453125q0.234375,1.3828125,0.2578125,3t0.1640625,3.046875q0.5390625-1.0546875,1.3828125-2.2734375t1.921875-2.25t2.34375-1.7109375t2.578125-0.6796875q0.09375,0,0.3515625,0.0703125t0.48046875,0.19921875t0.26953125,0.29296875t-0.2578125,0.3046875q-0.09375,0.28125-0.3984375,0.33984375t-0.5390625,0.05859375q-0.140625,0-0.4453125-0.1171875q-1.734375,0.9140625-2.953125,2.484375t-1.9921875,3.48046875t-1.125,4.03125t-0.3515625,4.13671875q0,1.0078125-0.45703125,1.21875t-1.46484375,0.2109375q-0.5390625,0-1.13671875-0.1171875t-0.83203125-0.75q-0.421875-1.3359375-0.69140625-3.0703125t-0.41015625-3.57421875t-0.19921875-3.62109375t-0.05859375-3.2109375z M337.04,120.7578125q0-1.59375,0.43359375-3.0703125t1.30078125-2.63671875t2.16796875-1.8515625t3.01171875-0.69140625q1.0546875,0,2.33203125,0.31640625t2.40234375,0.9375t1.875,1.58203125t0.75,2.203125q0,0.5859375-0.19921875,0.890625t-0.80859375,0.3046875l-0.2578125-0.046875q0.6796875,1.828125,1.171875,3.75t0.9609375,3.84375q0.1875,0.375,0.28125,0.66796875t0.09375,0.57421875q0,0.375-0.2109375,0.62109375t-0.55078125,0.36328125t-0.703125,0.1640625t-0.64453125,0.046875q-1.0078125,0-1.51171875-0.3515625t-0.7265625-0.9609375t-0.26953125-1.37109375t-0.1875-1.53515625q-0.28125,0.9140625-0.73828125,1.78125t-1.078125,1.55859375t-1.46484375,1.1015625t-1.8984375,0.41015625q-1.546875,0-2.6015625-0.890625t-1.69921875-2.19140625t-0.9375-2.77734375t-0.29296875-2.7421875z M340.368125,120.4296875q0,0.8671875,0.1171875,1.828125t0.38671875,1.8984375t0.69140625,1.76953125t1.0546875,1.46484375q1.1484375-1.2421875,1.69921875-3.0234375t0.984375-3.43359375t0.984375-2.8359375t1.69921875-1.18359375q0.7265625,0,1.21875,0.2578125q-0.234375-0.5859375-0.7734375-1.13671875t-1.20703125-1.0078125t-1.3828125-0.75t-1.34765625-0.29296875q-0.1875,0-0.43359375,0.05859375t-0.38671875,0.01171875q-0.9609375,0.28125-1.58203125,0.97265625t-1.0078125,1.62890625t-0.55078125,1.921875t-0.1640625,1.8515625z M357.352578125,129.078125q0-0.6796875,0.05859375-1.4296875t0.10546875-1.40625l0.140625-3.515625q0.234375-4.21875,0.57421875-8.296875t0.57421875-8.25q0.140625-2.296875,0.2109375-4.51171875t0.2109375-4.51171875q-0.09375-0.1875-0.09375-0.2578125q0-0.328125,0.24609375-0.515625t0.57421875-0.31640625t0.69140625-0.17578125t0.55078125-0.046875l0.5390625,0q0.7265625,0.09375,1.0546875,0.45703125t0.421875,0.8671875t0.046875,1.078125t-0.046875,1.06640625q0,3.3984375-0.1640625,6.92578125t-0.375,7.078125t-0.38671875,7.1015625t-0.17578125,7.01953125l0,1.640625q0,1.1015625-0.62109375,1.453125t-1.72265625,0.3515625q-0.9609375,0-1.6875-0.421875t-0.7265625-1.3828125z"/></svg>
