<?xml version="1.0" encoding="UTF-8"?>
<svg id="Layer_1" data-name="Layer 1" xmlns="http://www.w3.org/2000/svg" xmlns:xlink="http://www.w3.org/1999/xlink" viewBox="0 0 1080 1080">
  <defs>
    <style>
      .cls-1 {
        fill: url(#New_Gradient_Swatch_2);
      }
    </style>
    <linearGradient id="New_Gradient_Swatch_2" data-name="New Gradient Swatch 2" x1="14.85" y1="540" x2="1065.15" y2="540" gradientUnits="userSpaceOnUse">
      <stop offset="0" stop-color="#caf1b8"/>
      <stop offset="1" stop-color="#9bcbed"/>
      <stop offset="1" stop-color="#98c9f0"/>
    </linearGradient>
  </defs>
  <path class="cls-1" d="m1007.08,401.96c-12.19-13.47-26.01-26.25-41.28-38.28,2.3-19.46,3.02-38.42,2.06-56.7-3.09-57.36-22.11-103.9-56.53-138.31-33.95-33.95-81.88-53.51-138.67-56.55-18.15-.9-36.96-.16-56.26,2.13-12.14-15.39-25.03-29.31-38.64-41.56-42.74-38.37-89.09-57.83-137.77-57.83s-95.74,20.07-138.04,58.07c-13.48,12.19-26.25,26.02-38.29,41.29-19.46-2.3-38.41-3.03-56.69-2.08-57.36,3.09-103.89,22.11-138.31,56.53-33.95,33.95-53.5,81.88-56.55,138.67-.91,18.18-.16,37.02,2.13,56.36-15.39,12.11-29.32,24.98-41.6,38.55-37.81,42.15-57.79,89.79-57.79,137.75s19.51,95.09,58.06,138.04c12.21,13.5,26.07,26.3,41.37,38.36-2.31,19.44-3.07,38.39-2.15,56.67,3.07,56.53,22.62,104.35,56.54,138.26,34.41,34.41,81.04,53.44,138.66,56.56,5.08.25,10.18.38,15.35.38,13.38,0,27.08-.86,41.03-2.51,12.11,15.38,24.98,29.32,38.55,41.6,42.15,37.81,89.79,57.79,137.75,57.79s95.09-19.52,138.04-58.05c13.5-12.22,26.3-26.08,38.36-41.38,14.04,1.67,27.82,2.53,41.28,2.53,5.17,0,10.31-.13,15.39-.38,56.54-3.07,104.35-22.62,138.27-56.54,34.41-34.41,53.44-81.04,56.56-138.66.91-18.15.16-36.97-2.12-56.28,15.38-12.13,29.3-25.03,41.55-38.63,38.37-42.74,57.82-89.09,57.82-137.77s-20.06-95.74-58.07-138.04Zm-250.12-256.31c4.69,0,9.36.11,13.95.34,48.24,2.58,88.49,18.72,116.44,46.66,28.32,28.32,44.02,67.4,46.64,116.12.55,10.47.48,21.2-.16,32.14-38.31-24.69-83.33-45.43-133.13-61.53-16.09-49.84-36.83-94.89-61.53-133.2,6-.35,11.93-.53,17.79-.53Zm48.71,394.35c0,36.71-2.19,72.68-6.39,107.43-21.6,27.52-45.47,54.48-71.42,80.43-25.96,25.95-52.94,49.84-80.49,71.45-34.73,4.18-70.68,6.37-107.38,6.37s-72.64-2.19-107.37-6.38c-27.55-21.61-54.54-45.49-80.49-71.43-25.94-25.94-49.82-52.91-71.42-80.44-4.2-34.76-6.4-70.72-6.4-107.42s2.19-72.64,6.38-107.38c21.6-27.55,45.48-54.53,71.43-80.48,25.94-25.94,52.91-49.82,80.43-71.42,34.76-4.2,70.73-6.4,107.43-6.4s72.68,2.19,107.44,6.39c27.51,21.6,54.47,45.48,80.42,71.42,25.95,25.95,49.83,52.94,71.44,80.48,4.18,34.73,6.37,70.68,6.37,107.38Zm-53.82-211.85c-12.79-12.79-25.83-25.09-39.07-36.9,20.98,4.27,41.33,9.32,60.95,15.09,5.76,19.6,10.79,39.95,15.06,60.92-11.82-13.26-24.14-26.31-36.94-39.11Zm-90.99-79.87c-27.81-21.3-56.17-40.4-84.68-57.09,42.79-20,85.05-33.8,125.18-40.63,23.55,33.19,43.66,72.84,59.77,117.26-31.97-8.37-65.54-14.94-100.27-19.54Zm-67.07-6.34c-17.74-1.02-35.68-1.54-53.79-1.54s-36.01.52-53.73,1.54c17.86-11.82,35.82-22.64,53.78-32.43,17.94,9.79,35.89,20.62,53.74,32.43Zm-174.64,6.35c-34.71,4.61-68.26,11.18-100.21,19.55,16.12-44.42,36.24-84.1,59.8-117.31,40.12,6.81,82.38,20.62,125.17,40.64-28.54,16.69-56.94,35.8-84.76,57.12Zm-51.95,42.99c-13.23,11.8-26.26,24.09-39.04,36.87-12.79,12.79-25.09,25.83-36.9,39.08,4.27-20.95,9.3-41.27,15.06-60.86,19.59-5.77,39.93-10.81,60.88-15.09Zm-118.91,127.91c-21.28,27.8-40.37,56.17-57.04,84.69-20-42.77-33.81-85.02-40.65-125.13,33.22-23.54,72.85-43.65,117.21-59.75-8.36,31.95-14.92,65.49-19.52,100.19Zm-6.34,67.14c-1.01,17.7-1.53,35.6-1.53,53.67s.52,36.01,1.54,53.72c-11.79-17.83-22.61-35.76-32.38-53.68,9.77-17.94,20.59-35.88,32.38-53.71Zm6.36,174.52c4.61,34.71,11.18,68.27,19.56,100.23-44.39-16.1-84.03-36.2-117.22-59.73,6.84-40.13,20.65-82.38,40.63-125.14,16.67,28.5,35.76,56.85,57.04,84.64Zm42.99,51.96c11.8,13.23,24.09,26.26,36.87,39.04,12.79,12.79,25.83,25.1,39.08,36.9-20.95-4.26-41.27-9.3-60.86-15.06-5.77-19.6-10.82-39.93-15.09-60.88Zm127.9,118.91c27.8,21.29,56.18,40.37,84.7,57.04-42.76,20-85.01,33.81-125.12,40.65-23.54-33.22-43.65-72.85-59.76-117.21,31.94,8.36,65.48,14.92,100.18,19.51Zm67.16,6.35c17.69,1.01,35.59,1.53,53.66,1.53s36-.52,53.71-1.53c-17.82,11.79-35.75,22.6-53.66,32.37-17.93-9.77-35.87-20.58-53.7-32.37Zm174.47-6.33c34.72-4.59,68.28-11.14,100.23-19.5-16.09,44.35-36.19,83.97-59.7,117.14-40.12-6.84-82.37-20.65-125.13-40.64,28.49-16.67,56.83-35.74,84.6-57.01Zm51.91-42.95c13.26-11.82,26.32-24.14,39.12-36.94,12.79-12.79,25.09-25.83,36.9-39.07-4.27,20.98-9.31,41.34-15.09,60.95-19.6,5.76-39.95,10.79-60.93,15.06Zm118.98-127.92c21.3-27.8,40.4-56.16,57.09-84.66,20,42.78,33.81,85.04,40.64,125.16-33.19,23.55-72.85,43.67-117.27,59.77,8.37-31.97,14.94-65.54,19.54-100.26Zm6.34-67.08c1.02-17.73,1.54-35.68,1.54-53.78s-.52-36-1.53-53.71c11.81,17.85,22.64,35.81,32.43,53.77-9.79,17.94-20.62,35.89-32.44,53.73Zm-6.32-174.6c-4.59-34.72-11.14-68.28-19.5-100.23,44.39,16.11,84.03,36.23,117.23,59.77-6.81,40.12-20.63,82.38-40.65,125.17-16.68-28.52-35.78-56.9-57.08-84.71ZM424.68,98.12c35.93-32.28,75.81-49.34,115.32-49.34s78.78,16.53,115.09,49.13c7.79,7.02,15.33,14.65,22.61,22.84-44.57,9.63-91.07,26.8-137.67,50.63-46.62-23.86-93.12-41.04-137.68-50.66,7.19-8.09,14.63-15.64,22.32-22.6Zm-278.69,210.97c2.59-48.23,18.72-88.49,46.66-116.43,28.33-28.32,67.4-44.02,116.13-46.64,4.8-.25,9.65-.37,14.56-.37,5.79,0,11.66.18,17.58.52-24.72,38.34-45.46,83.41-61.57,133.25-49.78,16.11-94.81,36.84-133.15,61.55-.64-10.85-.73-21.49-.21-31.87Zm-47.88,346.24c-32.73-36.48-49.33-75.28-49.33-115.33s16.99-79.27,49.07-115.04c7.05-7.79,14.7-15.32,22.91-22.6,9.64,44.57,26.83,91.08,50.67,137.69-23.81,46.59-40.99,93.1-50.63,137.68-8.13-7.22-15.71-14.68-22.69-22.4Zm210.98,278.69c-48.94-2.65-88.12-18.35-116.44-46.67-27.91-27.91-44.04-68.07-46.65-116.04-.52-10.48-.43-21.22.22-32.17,38.33,24.7,83.37,45.43,133.19,61.52,16.11,49.78,36.85,94.81,61.55,133.15-10.85.64-21.49.73-31.88.21Zm346.25,47.88c-36.48,32.73-75.28,49.33-115.33,49.33s-79.27-16.99-115.04-49.07c-7.78-7.04-15.32-14.7-22.59-22.9,44.56-9.64,91.07-26.83,137.68-50.68,46.59,23.82,93.1,40.99,137.68,50.64-7.22,8.13-14.68,15.71-22.4,22.69Zm278.69-210.98c-2.65,48.94-18.35,88.11-46.67,116.43-27.91,27.91-68.07,44.04-116.05,46.65-10.48.53-21.22.44-32.17-.21,24.68-38.3,45.4-83.31,61.49-133.08,49.84-16.09,94.89-36.83,133.2-61.53.64,10.8.72,21.4.2,31.75Zm48.08-115.82c-7.02,7.79-14.65,15.33-22.83,22.61-9.63-44.55-26.81-91.05-50.64-137.65,23.86-46.62,41.05-93.13,50.67-137.68,8.09,7.19,15.64,14.62,22.59,22.3,32.27,35.93,49.34,75.81,49.34,115.33s-16.53,78.79-49.12,115.09Z"/>
</svg>