<?xml version="1.0" encoding="UTF-8"?>
<svg id="Layer_1" data-name="Layer 1" xmlns="http://www.w3.org/2000/svg" xmlns:xlink="http://www.w3.org/1999/xlink" viewBox="0 0 1080 1080">
  <defs>
    <style>
      .cls-1 {
        fill: url(#New_Gradient_Swatch_2);
      }
    </style>
    <linearGradient id="New_Gradient_Swatch_2" data-name="New Gradient Swatch 2" x1="357.81" y1="855.56" x2="722.19" y2="224.44" gradientUnits="userSpaceOnUse">
      <stop offset="0" stop-color="#caf1b8"/>
      <stop offset="1" stop-color="#9bcbed"/>
      <stop offset="1" stop-color="#98c9f0"/>
    </linearGradient>
  </defs>
  <path class="cls-1" d="m835.16,756.83c-103.74,0-188.77-67.79-241.85-124.66-5.44-5.83-5.12-14.96.7-20.4,5.84-5.44,14.97-5.13,20.41.7,49.16,52.68,127.36,115.49,220.73,115.49,103.64,0,187.96-84.32,187.96-187.96s-84.32-187.96-187.96-187.96c-146.53,0-281.92,194.18-283.27,196.14-5.85,8.52-145.31,208.65-307.05,208.65-119.56,0-216.84-97.27-216.84-216.84s97.27-216.83,216.84-216.83c101.42,0,184.9,65.05,237.07,119.61,5.51,5.76,5.31,14.9-.46,20.41-5.76,5.5-14.89,5.31-20.41-.46-48.28-50.5-124.98-110.69-216.2-110.69-103.64,0-187.96,84.32-187.96,187.96s84.32,187.96,187.96,187.96c146.52,0,281.91-194.18,283.27-196.14,5.85-8.52,145.31-208.65,307.06-208.65,119.56,0,216.84,97.27,216.84,216.83s-97.27,216.84-216.84,216.84Z"/>
</svg>