<?xml version="1.0" encoding="UTF-8"?>
<svg id="Layer_2" data-name="Layer 2" xmlns="http://www.w3.org/2000/svg" xmlns:xlink="http://www.w3.org/1999/xlink" viewBox="0 0 1129.12 480.06">
  <defs>
    <style>
      .cls-1 {
        fill: url(#New_Gradient_Swatch_2);
      }
    </style>
    <linearGradient id="New_Gradient_Swatch_2" data-name="New Gradient Swatch 2" x1="363.36" y1="588.52" x2="765.76" y2="-108.46" gradientUnits="userSpaceOnUse">
      <stop offset="0" stop-color="#caf1b8"/>
      <stop offset="1" stop-color="#9bcbed"/>
      <stop offset="1" stop-color="#98c9f0"/>
    </linearGradient>
  </defs>
  <g id="Layer_1-2" data-name="Layer 1">
    <path class="cls-1" d="m889.09,480.06c-114.65,0-208.53-74.82-267.09-137.58-6.59-7.07-6.21-18.14.86-24.73,7.07-6.59,18.14-6.21,24.73.85,53.83,57.69,139.43,126.46,241.5,126.46,113.06,0,205.03-91.98,205.03-205.03s-91.98-205.03-205.03-205.03c-160.47,0-308.63,212.8-310.11,214.94-1.61,2.34-40.03,57.86-100.43,114.15-35.74,33.31-71.77,59.91-107.1,79.08-45.13,24.48-89.34,36.89-131.42,36.89-64.12,0-124.39-24.97-169.73-70.3C24.97,364.42,0,304.15,0,240.03S24.97,115.64,70.3,70.3C115.64,24.97,175.92,0,240.03,0c112.09,0,204.26,71.79,261.84,132.02,6.68,6.99,6.43,18.06-.55,24.74-6.99,6.68-18.06,6.43-24.74-.56-52.86-55.29-136.82-121.2-236.54-121.2-113.06,0-205.03,91.98-205.03,205.03s91.98,205.03,205.03,205.03c82.72,0,162.12-57.7,214.16-106.11,57.74-53.7,95.57-108.3,95.95-108.85,1.6-2.33,40.02-57.85,100.42-114.15,35.74-33.31,71.77-59.91,107.1-79.08C802.8,12.41,847.01,0,889.09,0c64.12,0,124.39,24.97,169.73,70.3s70.3,105.61,70.3,169.73-24.97,124.39-70.3,169.73c-45.34,45.34-105.61,70.3-169.73,70.3Z"/>
  </g>
</svg>