<?xml version="1.0" encoding="UTF-8"?>
<svg id="Layer_1" data-name="Layer 1" xmlns="http://www.w3.org/2000/svg" xmlns:xlink="http://www.w3.org/1999/xlink" viewBox="0 0 1080 1080">
  <defs>
    <style>
      .cls-1 {
        fill: url(#New_Gradient_Swatch_2-33);
      }

      .cls-2 {
        fill: url(#New_Gradient_Swatch_2-40);
      }

      .cls-3 {
        fill: url(#New_Gradient_Swatch_2-2);
      }

      .cls-4 {
        fill: url(#New_Gradient_Swatch_2-50);
      }

      .cls-5 {
        fill: url(#New_Gradient_Swatch_2-55);
      }

      .cls-6 {
        fill: url(#New_Gradient_Swatch_2-28);
      }

      .cls-7 {
        fill: url(#New_Gradient_Swatch_2-48);
      }

      .cls-8 {
        fill: url(#New_Gradient_Swatch_2-52);
      }

      .cls-9 {
        fill: url(#New_Gradient_Swatch_2-57);
      }

      .cls-10 {
        fill: url(#New_Gradient_Swatch_2-14);
      }

      .cls-11 {
        fill: url(#New_Gradient_Swatch_2-22);
      }

      .cls-12 {
        fill: url(#New_Gradient_Swatch_2-42);
      }

      .cls-13 {
        fill: url(#New_Gradient_Swatch_2-8);
      }

      .cls-14 {
        fill: url(#New_Gradient_Swatch_2-4);
      }

      .cls-15 {
        fill: url(#New_Gradient_Swatch_2-64);
      }

      .cls-16 {
        fill: url(#New_Gradient_Swatch_2-34);
      }

      .cls-17 {
        fill: url(#New_Gradient_Swatch_2-36);
      }

      .cls-18 {
        fill: url(#New_Gradient_Swatch_2-49);
      }

      .cls-19 {
        fill: url(#New_Gradient_Swatch_2-17);
      }

      .cls-20 {
        fill: url(#New_Gradient_Swatch_2-13);
      }

      .cls-21 {
        fill: url(#New_Gradient_Swatch_2-11);
      }

      .cls-22 {
        fill: url(#New_Gradient_Swatch_2-66);
      }

      .cls-23 {
        fill: url(#New_Gradient_Swatch_2-18);
      }

      .cls-24 {
        fill: url(#New_Gradient_Swatch_2-20);
      }

      .cls-25 {
        fill: url(#New_Gradient_Swatch_2-46);
      }

      .cls-26 {
        fill: url(#New_Gradient_Swatch_2-44);
      }

      .cls-27 {
        fill: url(#New_Gradient_Swatch_2-31);
      }

      .cls-28 {
        fill: url(#New_Gradient_Swatch_2-37);
      }

      .cls-29 {
        fill: url(#New_Gradient_Swatch_2-25);
      }

      .cls-30 {
        fill: url(#New_Gradient_Swatch_2-56);
      }

      .cls-31 {
        fill: url(#New_Gradient_Swatch_2-54);
      }

      .cls-32 {
        fill: url(#New_Gradient_Swatch_2-47);
      }

      .cls-33 {
        fill: url(#New_Gradient_Swatch_2-59);
      }

      .cls-34 {
        fill: url(#New_Gradient_Swatch_2-24);
      }

      .cls-35 {
        fill: url(#New_Gradient_Swatch_2-63);
      }

      .cls-36 {
        fill: url(#New_Gradient_Swatch_2-15);
      }

      .cls-37 {
        fill: url(#New_Gradient_Swatch_2-53);
      }

      .cls-38 {
        fill: url(#New_Gradient_Swatch_2-58);
      }

      .cls-39 {
        fill: url(#New_Gradient_Swatch_2);
      }

      .cls-40 {
        fill: url(#New_Gradient_Swatch_2-29);
      }

      .cls-41 {
        fill: url(#New_Gradient_Swatch_2-39);
      }

      .cls-42 {
        fill: url(#New_Gradient_Swatch_2-12);
      }

      .cls-43 {
        fill: url(#New_Gradient_Swatch_2-61);
      }

      .cls-44 {
        fill: url(#New_Gradient_Swatch_2-19);
      }

      .cls-45 {
        fill: url(#New_Gradient_Swatch_2-38);
      }

      .cls-46 {
        fill: url(#New_Gradient_Swatch_2-23);
      }

      .cls-47 {
        fill: url(#New_Gradient_Swatch_2-7);
      }

      .cls-48 {
        fill: url(#New_Gradient_Swatch_2-21);
      }

      .cls-49 {
        fill: url(#New_Gradient_Swatch_2-3);
      }

      .cls-50 {
        fill: url(#New_Gradient_Swatch_2-5);
      }

      .cls-51 {
        fill: url(#New_Gradient_Swatch_2-32);
      }

      .cls-52 {
        fill: url(#New_Gradient_Swatch_2-27);
      }

      .cls-53 {
        fill: url(#New_Gradient_Swatch_2-26);
      }

      .cls-54 {
        fill: url(#New_Gradient_Swatch_2-16);
      }

      .cls-55 {
        fill: url(#New_Gradient_Swatch_2-65);
      }

      .cls-56 {
        fill: url(#New_Gradient_Swatch_2-45);
      }

      .cls-57 {
        fill: url(#New_Gradient_Swatch_2-43);
      }

      .cls-58 {
        fill: url(#New_Gradient_Swatch_2-30);
      }

      .cls-59 {
        fill: url(#New_Gradient_Swatch_2-51);
      }

      .cls-60 {
        fill: url(#New_Gradient_Swatch_2-10);
      }

      .cls-61 {
        fill: url(#New_Gradient_Swatch_2-62);
      }

      .cls-62 {
        fill: url(#New_Gradient_Swatch_2-35);
      }

      .cls-63 {
        fill: url(#New_Gradient_Swatch_2-6);
      }

      .cls-64 {
        fill: url(#New_Gradient_Swatch_2-60);
      }

      .cls-65 {
        fill: url(#New_Gradient_Swatch_2-41);
      }

      .cls-66 {
        fill: url(#New_Gradient_Swatch_2-9);
      }
    </style>
    <linearGradient id="New_Gradient_Swatch_2" data-name="New Gradient Swatch 2" x1="369.22" y1="780.71" x2="548.33" y2="780.71" gradientUnits="userSpaceOnUse">
      <stop offset="0" stop-color="#caf1b8"/>
      <stop offset="1" stop-color="#9bcbed"/>
      <stop offset="1" stop-color="#98c9f0"/>
    </linearGradient>
    <linearGradient id="New_Gradient_Swatch_2-2" data-name="New Gradient Swatch 2" x1="529.91" y1="299.93" x2="710.78" y2="299.93" xlink:href="#New_Gradient_Swatch_2"/>
    <linearGradient id="New_Gradient_Swatch_2-3" data-name="New Gradient Swatch 2" x1="393.97" y1="779.2" x2="597.45" y2="779.2" xlink:href="#New_Gradient_Swatch_2"/>
    <linearGradient id="New_Gradient_Swatch_2-4" data-name="New Gradient Swatch 2" x1="482.55" y1="300.97" x2="686.19" y2="300.97" xlink:href="#New_Gradient_Swatch_2"/>
    <linearGradient id="New_Gradient_Swatch_2-5" data-name="New Gradient Swatch 2" x1="417.34" y1="775.41" x2="647.38" y2="775.41" xlink:href="#New_Gradient_Swatch_2"/>
    <linearGradient id="New_Gradient_Swatch_2-6" data-name="New Gradient Swatch 2" x1="432.94" y1="304.65" x2="662.61" y2="304.65" xlink:href="#New_Gradient_Swatch_2"/>
    <linearGradient id="New_Gradient_Swatch_2-7" data-name="New Gradient Swatch 2" x1="439.66" y1="768.92" x2="695.86" y2="768.92" xlink:href="#New_Gradient_Swatch_2"/>
    <linearGradient id="New_Gradient_Swatch_2-8" data-name="New Gradient Swatch 2" x1="384.14" y1="311.16" x2="640.28" y2="311.16" xlink:href="#New_Gradient_Swatch_2"/>
    <linearGradient id="New_Gradient_Swatch_2-9" data-name="New Gradient Swatch 2" x1="460.77" y1="760.09" x2="742.89" y2="760.09" xlink:href="#New_Gradient_Swatch_2"/>
    <linearGradient id="New_Gradient_Swatch_2-10" data-name="New Gradient Swatch 2" x1="337.43" y1="319.92" x2="619.13" y2="319.92" xlink:href="#New_Gradient_Swatch_2"/>
    <linearGradient id="New_Gradient_Swatch_2-11" data-name="New Gradient Swatch 2" x1="480.21" y1="748.76" x2="787.84" y2="748.76" xlink:href="#New_Gradient_Swatch_2"/>
    <linearGradient id="New_Gradient_Swatch_2-12" data-name="New Gradient Swatch 2" x1="292.48" y1="331.23" x2="599.68" y2="331.23" xlink:href="#New_Gradient_Swatch_2"/>
    <linearGradient id="New_Gradient_Swatch_2-13" data-name="New Gradient Swatch 2" x1="497.78" y1="735.2" x2="830.06" y2="735.2" xlink:href="#New_Gradient_Swatch_2"/>
    <linearGradient id="New_Gradient_Swatch_2-14" data-name="New Gradient Swatch 2" x1="250.26" y1="344.59" x2="582.14" y2="344.59" xlink:href="#New_Gradient_Swatch_2"/>
    <linearGradient id="New_Gradient_Swatch_2-15" data-name="New Gradient Swatch 2" x1="512.84" y1="722.02" x2="869.39" y2="722.02" xlink:href="#New_Gradient_Swatch_2"/>
    <linearGradient id="New_Gradient_Swatch_2-16" data-name="New Gradient Swatch 2" x1="210.94" y1="357.43" x2="567.27" y2="357.43" xlink:href="#New_Gradient_Swatch_2"/>
    <linearGradient id="New_Gradient_Swatch_2-17" data-name="New Gradient Swatch 2" x1="524.34" y1="709.89" x2="905.19" y2="709.89" xlink:href="#New_Gradient_Swatch_2"/>
    <linearGradient id="New_Gradient_Swatch_2-18" data-name="New Gradient Swatch 2" x1="174.81" y1="370.07" x2="555.68" y2="370.07" xlink:href="#New_Gradient_Swatch_2"/>
    <linearGradient id="New_Gradient_Swatch_2-19" data-name="New Gradient Swatch 2" x1="529.74" y1="697.7" x2="937.13" y2="697.7" xlink:href="#New_Gradient_Swatch_2"/>
    <linearGradient id="New_Gradient_Swatch_2-20" data-name="New Gradient Swatch 2" x1="142.87" y1="382.29" x2="550.26" y2="382.29" xlink:href="#New_Gradient_Swatch_2"/>
    <linearGradient id="New_Gradient_Swatch_2-21" data-name="New Gradient Swatch 2" x1="529.74" y1="685.29" x2="964.74" y2="685.29" xlink:href="#New_Gradient_Swatch_2"/>
    <linearGradient id="New_Gradient_Swatch_2-22" data-name="New Gradient Swatch 2" x1="115.42" y1="394.13" x2="550.1" y2="394.13" xlink:href="#New_Gradient_Swatch_2"/>
    <linearGradient id="New_Gradient_Swatch_2-23" data-name="New Gradient Swatch 2" x1="529.9" y1="672.66" x2="987.86" y2="672.66" xlink:href="#New_Gradient_Swatch_2"/>
    <linearGradient id="New_Gradient_Swatch_2-24" data-name="New Gradient Swatch 2" x1="92.14" y1="407.47" x2="550.26" y2="407.47" xlink:href="#New_Gradient_Swatch_2"/>
    <linearGradient id="New_Gradient_Swatch_2-25" data-name="New Gradient Swatch 2" x1="529.9" y1="659.77" x2="1006" y2="659.77" xlink:href="#New_Gradient_Swatch_2"/>
    <linearGradient id="New_Gradient_Swatch_2-26" data-name="New Gradient Swatch 2" x1="74" y1="420.42" x2="550.1" y2="420.42" xlink:href="#New_Gradient_Swatch_2"/>
    <linearGradient id="New_Gradient_Swatch_2-27" data-name="New Gradient Swatch 2" x1="530.22" y1="646.72" x2="1019.48" y2="646.72" xlink:href="#New_Gradient_Swatch_2"/>
    <linearGradient id="New_Gradient_Swatch_2-28" data-name="New Gradient Swatch 2" x1="60.52" y1="433.57" x2="550.02" y2="433.57" xlink:href="#New_Gradient_Swatch_2"/>
    <linearGradient id="New_Gradient_Swatch_2-29" data-name="New Gradient Swatch 2" x1="530.71" y1="633.89" x2="1027.67" y2="633.89" xlink:href="#New_Gradient_Swatch_2"/>
    <linearGradient id="New_Gradient_Swatch_2-30" data-name="New Gradient Swatch 2" x1="52.33" y1="446.51" x2="549.77" y2="446.51" xlink:href="#New_Gradient_Swatch_2"/>
    <linearGradient id="New_Gradient_Swatch_2-31" data-name="New Gradient Swatch 2" x1="529.75" y1="620.35" x2="1030.4" y2="620.35" xlink:href="#New_Gradient_Swatch_2"/>
    <linearGradient id="New_Gradient_Swatch_2-32" data-name="New Gradient Swatch 2" x1="49.6" y1="459.42" x2="549.78" y2="459.42" xlink:href="#New_Gradient_Swatch_2"/>
    <linearGradient id="New_Gradient_Swatch_2-33" data-name="New Gradient Swatch 2" x1="530.07" y1="584.21" x2="1028.31" y2="584.21" xlink:href="#New_Gradient_Swatch_2"/>
    <linearGradient id="New_Gradient_Swatch_2-34" data-name="New Gradient Swatch 2" x1="51.69" y1="495.62" x2="550.25" y2="495.62" xlink:href="#New_Gradient_Swatch_2"/>
    <linearGradient id="New_Gradient_Swatch_2-35" data-name="New Gradient Swatch 2" x1="530.39" y1="547.65" x2="1020.77" y2="547.65" xlink:href="#New_Gradient_Swatch_2"/>
    <linearGradient id="New_Gradient_Swatch_2-36" data-name="New Gradient Swatch 2" x1="59.24" y1="532.45" x2="549.93" y2="532.45" xlink:href="#New_Gradient_Swatch_2"/>
    <linearGradient id="New_Gradient_Swatch_2-37" data-name="New Gradient Swatch 2" x1="530.39" y1="512.17" x2="1007.92" y2="512.17" xlink:href="#New_Gradient_Swatch_2"/>
    <linearGradient id="New_Gradient_Swatch_2-38" data-name="New Gradient Swatch 2" x1="72.08" y1="567.87" x2="549.93" y2="567.87" xlink:href="#New_Gradient_Swatch_2"/>
    <linearGradient id="New_Gradient_Swatch_2-39" data-name="New Gradient Swatch 2" x1="530.87" y1="478.14" x2="990.27" y2="478.14" xlink:href="#New_Gradient_Swatch_2"/>
    <linearGradient id="New_Gradient_Swatch_2-40" data-name="New Gradient Swatch 2" x1="530.39" y1="540.36" x2="550.89" y2="540.36" xlink:href="#New_Gradient_Swatch_2"/>
    <linearGradient id="New_Gradient_Swatch_2-41" data-name="New Gradient Swatch 2" x1="530.23" y1="540.2" x2="550.73" y2="540.2" xlink:href="#New_Gradient_Swatch_2"/>
    <linearGradient id="New_Gradient_Swatch_2-42" data-name="New Gradient Swatch 2" x1="89.74" y1="601.89" x2="550.09" y2="601.89" xlink:href="#New_Gradient_Swatch_2"/>
    <linearGradient id="New_Gradient_Swatch_2-43" data-name="New Gradient Swatch 2" x1="530.23" y1="446.05" x2="967.63" y2="446.05" xlink:href="#New_Gradient_Swatch_2"/>
    <linearGradient id="New_Gradient_Swatch_2-44" data-name="New Gradient Swatch 2" x1="529.91" y1="540.2" x2="550.49" y2="540.2" xlink:href="#New_Gradient_Swatch_2"/>
    <linearGradient id="New_Gradient_Swatch_2-45" data-name="New Gradient Swatch 2" x1="529.59" y1="540.04" x2="550.09" y2="540.04" xlink:href="#New_Gradient_Swatch_2"/>
    <linearGradient id="New_Gradient_Swatch_2-46" data-name="New Gradient Swatch 2" x1="112.37" y1="634.04" x2="548.97" y2="634.04" xlink:href="#New_Gradient_Swatch_2"/>
    <linearGradient id="New_Gradient_Swatch_2-47" data-name="New Gradient Swatch 2" x1="530.07" y1="416.23" x2="940.66" y2="416.23" xlink:href="#New_Gradient_Swatch_2"/>
    <linearGradient id="New_Gradient_Swatch_2-48" data-name="New Gradient Swatch 2" x1="139.34" y1="663.89" x2="549.7" y2="663.89" xlink:href="#New_Gradient_Swatch_2"/>
    <linearGradient id="New_Gradient_Swatch_2-49" data-name="New Gradient Swatch 2" x1="531.19" y1="389.01" x2="914.3" y2="389.01" xlink:href="#New_Gradient_Swatch_2"/>
    <linearGradient id="New_Gradient_Swatch_2-50" data-name="New Gradient Swatch 2" x1="530.07" y1="540" x2="550.73" y2="540" xlink:href="#New_Gradient_Swatch_2"/>
    <linearGradient id="New_Gradient_Swatch_2-51" data-name="New Gradient Swatch 2" x1="165.77" y1="691.07" x2="550.41" y2="691.07" xlink:href="#New_Gradient_Swatch_2"/>
    <linearGradient id="New_Gradient_Swatch_2-52" data-name="New Gradient Swatch 2" x1="530.55" y1="365.24" x2="889.9" y2="365.24" xlink:href="#New_Gradient_Swatch_2"/>
    <linearGradient id="New_Gradient_Swatch_2-53" data-name="New Gradient Swatch 2" x1="189.95" y1="714.83" x2="549.93" y2="714.83" xlink:href="#New_Gradient_Swatch_2"/>
    <linearGradient id="New_Gradient_Swatch_2-54" data-name="New Gradient Swatch 2" x1="540.48" y1="346.72" x2="865.6" y2="346.72" xlink:href="#New_Gradient_Swatch_2"/>
    <linearGradient id="New_Gradient_Swatch_2-55" data-name="New Gradient Swatch 2" x1="214.32" y1="733.36" x2="549.93" y2="733.36" xlink:href="#New_Gradient_Swatch_2"/>
    <linearGradient id="New_Gradient_Swatch_2-56" data-name="New Gradient Swatch 2" x1="530.15" y1="332.92" x2="840.73" y2="332.92" xlink:href="#New_Gradient_Swatch_2"/>
    <linearGradient id="New_Gradient_Swatch_2-57" data-name="New Gradient Swatch 2" x1="239.13" y1="747.16" x2="549.93" y2="747.16" xlink:href="#New_Gradient_Swatch_2"/>
    <linearGradient id="New_Gradient_Swatch_2-58" data-name="New Gradient Swatch 2" x1="529.99" y1="321.28" x2="815.26" y2="321.28" xlink:href="#New_Gradient_Swatch_2"/>
    <linearGradient id="New_Gradient_Swatch_2-59" data-name="New Gradient Swatch 2" x1="529.43" y1="540.12" x2="550.01" y2="540.12" xlink:href="#New_Gradient_Swatch_2"/>
    <linearGradient id="New_Gradient_Swatch_2-60" data-name="New Gradient Swatch 2" x1="264.76" y1="758.8" x2="549.78" y2="758.8" xlink:href="#New_Gradient_Swatch_2"/>
    <linearGradient id="New_Gradient_Swatch_2-61" data-name="New Gradient Swatch 2" x1="530.06" y1="312.13" x2="789.14" y2="312.13" xlink:href="#New_Gradient_Swatch_2"/>
    <linearGradient id="New_Gradient_Swatch_2-62" data-name="New Gradient Swatch 2" x1="290.86" y1="768.01" x2="549.73" y2="768.01" xlink:href="#New_Gradient_Swatch_2"/>
    <linearGradient id="New_Gradient_Swatch_2-63" data-name="New Gradient Swatch 2" x1="530.06" y1="305.39" x2="762.84" y2="305.39" xlink:href="#New_Gradient_Swatch_2"/>
    <linearGradient id="New_Gradient_Swatch_2-64" data-name="New Gradient Swatch 2" x1="529.27" y1="540.28" x2="549.85" y2="540.28" xlink:href="#New_Gradient_Swatch_2"/>
    <linearGradient id="New_Gradient_Swatch_2-65" data-name="New Gradient Swatch 2" x1="317.13" y1="774.85" x2="549.13" y2="774.85" xlink:href="#New_Gradient_Swatch_2"/>
    <linearGradient id="New_Gradient_Swatch_2-66" data-name="New Gradient Swatch 2" x1="343.44" y1="540" x2="736.59" y2="540" xlink:href="#New_Gradient_Swatch_2"/>
  </defs>
  <path class="cls-39" d="m536.94,1030.32c-2.14,0-4.3-.66-6.14-2.05-75.74-56.73-161.58-121.02-161.58-247.08s82.71-187.87,162.7-248.02c4.52-3.4,10.96-2.5,14.36,2.03,3.4,4.53,2.49,10.96-2.03,14.36-75.96,57.12-154.51,116.19-154.51,231.63s77.97,174.19,153.37,230.66c4.53,3.39,5.45,9.82,2.06,14.36-2.02,2.69-5.1,4.11-8.21,4.11Z"/>
  <path class="cls-3" d="m540.17,550.17c-3.11,0-6.19-1.41-8.2-4.09-3.4-4.53-2.49-10.96,2.03-14.36,80.36-60.44,156.27-117.52,156.27-233.08s-77.81-174.03-153.06-230.5c-4.53-3.4-5.44-9.83-2.05-14.36,3.4-4.53,9.83-5.44,14.36-2.05,75.58,56.73,161.25,121.02,161.25,246.9s-83.6,188.67-164.46,249.47c-1.85,1.39-4.01,2.06-6.16,2.06Z"/>
  <path class="cls-49" d="m587.18,1028.23c-1.8,0-3.62-.47-5.27-1.47-81.21-48.82-173.27-104.16-186.47-229.08-13.05-124.67,63.17-195.88,136.89-264.75,4.14-3.87,10.64-3.66,14.5.48,3.87,4.14,3.66,10.62-.48,14.48l-.02.02c-73.27,68.46-142.49,133.12-130.5,247.62,12.13,114.75,95.76,165.03,176.64,213.65,4.85,2.92,6.42,9.22,3.5,14.07-1.92,3.2-5.32,4.97-8.8,4.97Z"/>
  <path class="cls-14" d="m540.16,550.17c-2.75,0-5.49-1.1-7.51-3.27-3.86-4.15-3.62-10.63.52-14.49,73.62-68.47,143.15-133.15,131.15-248.11-12.16-115.01-95.85-165.07-176.79-213.48-4.86-2.9-6.44-9.2-3.53-14.06,2.91-4.86,9.21-6.44,14.06-3.53,81.28,48.62,173.42,103.72,186.65,228.93,13.07,125.15-63.52,196.39-137.58,265.27-1.97,1.84-4.48,2.75-6.98,2.75Z"/>
  <path class="cls-50" d="m637.11,1020.69c-1.45,0-2.92-.31-4.32-.96-86-40.01-183.49-85.36-209.73-208.3-26.1-122.92,41.79-200.94,107.65-276.3l.1-.14c2.79-4.48,8.58-6.16,13.37-3.71,5.04,2.57,7.04,8.75,4.47,13.8-.19.37-.57.99-.9,1.48l-1.15,1.58c-62.68,71.72-127.5,145.89-103.48,259.04,24.11,112.92,112.68,154.13,198.33,193.98,5.13,2.39,7.36,8.49,4.97,13.62-1.74,3.74-5.44,5.93-9.3,5.93Z"/>
  <path class="cls-63" d="m540.03,550c-2.37,0-4.75-.8-6.66-2.47-4.27-3.72-4.83-10.07-1.11-14.34,66.22-76.05,128.57-147.65,104.62-260.51-24.01-113.03-112.46-154.1-198-193.81-5.13-2.38-7.37-8.48-4.98-13.62,2.38-5.14,8.47-7.37,13.62-4.98,85.91,39.88,183.28,85.1,209.42,208.15,26.08,122.87-42.59,201.72-109,277.98-2.06,2.36-4.99,3.59-7.92,3.59Z"/>
  <path class="cls-47" d="m685.6,1007.84c-1.1,0-2.22-.18-3.32-.56-89.63-30.7-191.21-65.48-230.21-185.19-38.85-119.43,20.76-204.42,78.41-286.62l.59-.81c2.8-4.34,8.48-5.95,13.19-3.6,5.06,2.53,7.12,8.69,4.59,13.76-.32.63-.95,1.75-1.92,2.91-57.15,81.48-110.97,158.54-75.36,268.01,35.83,109.97,128.11,141.57,217.35,172.14,5.36,1.83,8.21,7.66,6.38,13.02-1.46,4.26-5.44,6.94-9.7,6.94Zm-155.08-472.21v.02s0-.01,0-.02Z"/>
  <path class="cls-13" d="m539.99,550.17c-2.04,0-4.1-.6-5.89-1.87-4.63-3.26-5.75-9.65-2.49-14.29,57.87-82.3,112.52-160.03,76.81-269.93-35.77-109.79-128.08-141.4-217.34-171.98-5.36-1.83-8.21-7.66-6.38-13.02,1.83-5.36,7.66-8.22,13.02-6.38,89.65,30.7,191.27,65.5,230.21,185.03,38.88,119.66-21.32,205.27-79.54,288.07-2,2.84-5.17,4.36-8.4,4.36Z"/>
  <path class="cls-66" d="m732.64,990.19c-.76,0-1.53-.09-2.3-.26-92.34-21.17-197-45.16-248.19-160.09-51.28-114.96-.44-206.27,48.73-294.58,2.75-4.95,8.99-6.73,13.95-3.97,4.95,2.75,6.73,9,3.97,13.95-48.86,87.76-95.02,170.66-47.91,276.26,47.03,105.58,142.1,127.37,234.04,148.45,5.52,1.27,8.97,6.77,7.7,12.28-1.09,4.75-5.31,7.97-9.98,7.97Z"/>
  <path class="cls-60" d="m539.99,550.18c-1.69,0-3.39-.42-4.97-1.3-4.95-2.75-6.73-8.99-3.98-13.94,48.87-87.93,95.03-170.99,48.07-276.6-46.77-105.2-141.82-127.18-233.73-148.44-5.52-1.28-8.96-6.78-7.68-12.3s6.8-8.96,12.3-7.68c92.3,21.35,196.92,45.55,247.85,160.09,51.11,114.96.27,206.43-48.89,294.89-1.87,3.37-5.37,5.28-8.97,5.28Z"/>
  <path class="cls-21" d="m777.6,967.55c-.41,0-.82-.02-1.24-.07-94.1-11.36-200.75-24.24-263.69-133.15-62.85-108.95-21.88-205.11,17.75-298.1,2.22-5.21,8.24-7.64,13.45-5.41,5.21,2.22,7.63,8.24,5.41,13.45-39.38,92.43-76.58,179.74-18.85,279.81,57.81,100.04,154.7,111.74,248.39,123.05,5.62.68,9.63,5.79,8.95,11.41-.63,5.2-5.05,9.03-10.17,9.03Z"/>
  <path class="cls-42" d="m540,550.18c-1.34,0-2.7-.26-4.02-.82-5.21-2.22-7.63-8.24-5.41-13.45,39.42-92.51,76.65-179.89,18.86-279.97-57.57-99.88-154.34-111.74-247.93-123.21-5.62-.69-9.62-5.8-8.93-11.43.69-5.62,5.81-9.61,11.43-8.93,93.99,11.52,200.52,24.57,263.2,133.32,62.92,108.94,21.91,205.18-17.75,298.25-1.66,3.9-5.45,6.24-9.44,6.24Z"/>
  <path class="cls-20" d="m819.81,940.58h-.17c-94.73-1.54-202.11-3.28-276.05-105.04-73.77-101.53-43.18-201.49-13.59-298.17l2.22-7.25,5.8-.1c.64-.13,1.31-.19,1.99-.19,5.66,0,10.25,4.59,10.25,10.25,0,1.53-.34,2.98-.96,4.3-29.32,95.8-56.6,186.22,10.88,279.11,67.92,93.48,165.47,95.06,259.8,96.59,5.66.09,10.18,4.76,10.09,10.42-.09,5.6-4.67,10.09-10.25,10.09Z"/>
  <path class="cls-10" d="m539.95,549.93c-.96,0-1.93-.14-2.88-.43-5.41-1.66-8.53-7.16-6.88-12.58,29.54-96.52,57.31-187.26-10.53-280.56-67.66-93.17-165.1-94.91-259.33-96.59-5.66-.1-10.17-4.78-10.07-10.44.1-5.66,4.73-10.16,10.44-10.07,94.63,1.69,201.89,3.61,275.55,105.04,73.84,101.58,43.26,201.51,13.69,298.16-1.37,4.46-5.54,7.47-9.99,7.47Z"/>
  <path class="cls-36" d="m774,914.16c-69.56,0-140.19-14.73-199.56-80.67-83.98-93.35-63.92-196.01-44.52-295.27,1.08-5.56,6.48-9.23,12.04-8.15,5.56,1.09,9.19,6.43,8.11,11.98l-.02.1c-19.28,98.68-37.5,191.88,39.64,277.62,77.41,85.98,174.58,77.29,268.53,68.88,5.63-.52,10.62,3.66,11.13,9.3.5,5.64-3.66,10.62-9.3,11.13-27.88,2.49-56.87,5.08-86.04,5.08Z"/>
  <path class="cls-54" d="m540.17,549.05c-.65,0-1.32-.06-1.99-.2-5.56-1.09-9.18-6.48-8.08-12.04,18.43-93.82,37.47-190.83-39.94-276.74-77.11-85.65-174.19-77.13-268.07-68.88-5.76.52-10.62-3.68-11.11-9.32-.5-5.64,3.68-10.62,9.32-11.11,94.3-8.29,201.17-17.66,285.11,75.59,84.28,93.52,64.22,195.65,44.82,294.42-.96,4.89-5.25,8.28-10.05,8.28Z"/>
  <path class="cls-19" d="m770.29,889.96c-56.01,0-112.6-14.12-165.39-61.65-93.52-84.3-84.16-188.43-75.11-289.14.51-5.64,5.54-9.79,11.13-9.3,5.64.51,9.8,5.49,9.3,11.13-9,100.09-17.49,194.63,68.41,272.07,85.91,77.35,181.71,58.58,274.33,40.41,5.54-1.07,10.94,2.54,12.04,8.09,1.09,5.56-2.53,10.94-8.09,12.04-40.52,7.94-83.39,16.35-126.61,16.35Z"/>
  <path class="cls-23" d="m540,550.13h-.02c-5.65-.01-10.23-4.55-10.23-10.21,0-.75.04-1.7.27-2.83,8.82-99.38,16.89-193.24-68.79-270.31-85.8-77.1-181.57-58.46-274.2-40.42-5.56,1.08-10.94-2.55-12.02-8.1-1.08-5.56,2.54-10.94,8.1-12.02,93-18.11,198.42-38.64,291.82,45.3,93.54,84.13,84.34,187.86,75.44,288.17l-.21,1.52c-.68,5.01-4.97,8.91-10.16,8.91Zm10.25-10.25h0s0,0,0,0Z"/>
  <path class="cls-44" d="m774.48,865.57c-45.94,0-92.93-11.66-139.69-45.58-101.75-73.97-103.43-178.58-105.04-279.75-.09-5.66,4.43-10.32,10.09-10.42,5.56-.17,10.32,4.43,10.42,10.09,1.61,100.56,3.13,195.54,96.59,263.48,93.37,67.74,186.74,39.15,277.03,11.5,5.42-1.66,11.15,1.39,12.81,6.8,1.66,5.42-1.39,11.15-6.8,12.81-48.96,15-101.46,31.07-155.4,31.07Z"/>
  <path class="cls-24" d="m540,550.17c-5.59,0-10.16-4.48-10.25-10.09-1.61-100.56-3.13-195.54-96.59-263.48-93.26-67.77-186.68-39.16-277.03-11.5-5.43,1.67-11.15-1.39-12.81-6.8-1.66-5.42,1.39-11.15,6.8-12.81,90.72-27.78,193.55-59.28,295.09,14.51,101.74,73.96,103.42,178.58,105.04,279.75.09,5.66-4.43,10.32-10.09,10.42h-.17Z"/>
  <path class="cls-48" d="m780.65,840.75c-37.62,0-76.71-8.86-117.19-32.21-108.98-63.04-121.52-166.84-133.64-267.23-.68-5.62,3.33-10.73,8.95-11.41,5.61-.65,10.73,3.33,11.41,8.95,12.05,99.78,23.43,194.02,123.54,251.93,100.04,57.71,189.87,19.44,276.75-17.57,5.21-2.23,11.24.2,13.45,5.41,2.22,5.21-.2,11.23-5.41,13.45-54.82,23.36-114.24,48.67-177.86,48.67Z"/>
  <path class="cls-11" d="m539.83,549.05c-5.11,0-9.53-3.82-10.17-9.02-12.05-99.32-23.44-193.13-123.53-250.8-99.82-57.7-189.62-19.59-276.45,17.25-5.22,2.21-11.24-.22-13.45-5.43-2.21-5.21.22-11.23,5.43-13.45,87.2-37,186.03-78.94,294.71-16.14,108.96,62.79,121.5,166.14,133.64,266.09.68,5.62-3.32,10.73-8.95,11.42-.42.05-.83.07-1.25.07Z"/>
  <path class="cls-46" d="m786.66,815.18c-30.3,0-62.13-6.11-95.76-21.09-115.04-51.22-138.27-152.99-160.73-251.41-1.26-5.52,2.19-11.02,7.71-12.28,5.5-1.26,11.02,2.19,12.28,7.71,22.32,97.81,43.41,190.19,149.08,237.24,105.46,46.98,190.83-.45,273.38-46.31,4.96-2.76,11.2-.96,13.94,3.98,2.75,4.95.97,11.19-3.98,13.94-58.62,32.57-122.78,68.21-195.93,68.21Z"/>
  <path class="cls-34" d="m540.01,550.18c-3.76,0-7.38-2.08-9.18-5.67-.81-1.62-1.09-3.17-1.19-4.31-22.59-97.23-44.19-188.96-149.04-235.56-105.46-47.04-190.74.33-273.22,46.14-4.97,2.76-11.2.96-13.94-3.98-2.75-4.95-.97-11.2,3.98-13.94,82.83-46.02,176.7-98.16,291.53-46.95,114.5,50.89,138.08,152.4,160.88,250.57l.27,1.63c.79,4.37-1.34,8.91-5.51,10.99-1.47.73-3.04,1.08-4.58,1.08Zm9.17-14.84s0,0,0,.01c0,0,0-.01,0-.01Z"/>
  <path class="cls-29" d="m791.72,789.4c-23.53,0-48.43-3.77-75.09-12.41-119.76-38.97-153.52-137.74-186.17-233.26-1.83-5.36,1.03-11.19,6.39-13.02,5.38-1.82,11.19,1.03,13.02,6.39,32.45,94.93,63.1,184.6,173.1,220.4,109.53,35.53,189.52-20.45,266.9-74.58,4.64-3.25,11.04-2.12,14.28,2.52,3.25,4.64,2.12,11.04-2.52,14.28-63.26,44.26-128.22,89.7-209.9,89.7Z"/>
  <path class="cls-53" d="m539.84,550.01c-4.27,0-8.25-2.68-9.7-6.94-32.49-95.05-63.18-184.83-173.25-220.55-109.88-35.7-189.62,20.36-266.73,74.56-4.64,3.26-11.03,2.14-14.29-2.49-3.26-4.63-2.14-11.03,2.49-14.29,77.45-54.44,165.23-116.14,284.85-77.29,119.83,38.88,153.64,137.78,186.33,233.42,1.83,5.36-1.03,11.19-6.39,13.02-1.1.37-2.22.55-3.32.55Z"/>
  <path class="cls-52" d="m793.25,762.98c-16.67,0-34.21-1.82-52.81-5.79-123.19-26.22-166.95-120.74-209.27-212.16-2.38-5.14-.14-11.24,5-13.62,5.13-2.38,11.23-.14,13.62,5,42.05,90.84,81.77,176.64,194.93,200.72,112.67,24.05,186.44-40.05,257.78-102.05,4.27-3.71,10.74-3.26,14.47,1.01,3.72,4.27,3.26,10.75-1.01,14.47-63.75,55.4-129.35,112.42-222.7,112.42Z"/>
  <path class="cls-6" d="m539.74,549.94c-3.83,0-7.48-2.15-9.2-5.86-42.39-91.24-82.36-177.25-195.26-201.21-112.8-24.06-186.51,40.11-257.77,102.2-4.27,3.72-10.75,3.27-14.47-.99-3.72-4.27-3.27-10.75.99-14.47,71.56-62.35,152.67-133.03,275.51-106.8,122.91,26.09,166.93,120.83,209.5,212.44,2.39,5.14.2,11.33-4.94,13.71-1.42.66-2.91.97-4.38.97Z"/>
  <path class="cls-40" d="m789.36,736.51c-8.82,0-17.9-.47-27.3-1.47-124.51-13.1-177.61-100.96-228.63-186.31-1.74-1.95-2.71-4.46-2.71-7.21,0-5.66,4.59-10.25,10.25-10.25,2.62,0,5.02.98,6.83,2.6l.91.46,1.54,2.57c48.68,81.43,99.01,165.64,213.96,177.74,115,12.12,181.47-59.47,245.68-128.73,3.85-4.15,10.33-4.4,14.49-.55,4.15,3.85,4.4,10.34.55,14.49-59.66,64.35-126.69,136.64-235.58,136.64Zm-238.14-194.98h.07-.07Z"/>
  <path class="cls-58" d="m539.53,549.53c-3.49,0-6.89-1.78-8.81-4.99-51.42-85.96-99.99-167.16-214.92-179.19-114.76-12.12-181.34,59.32-245.71,128.43-3.86,4.14-10.35,4.37-14.49.51-4.14-3.86-4.37-10.35-.51-14.49,64.64-69.39,137.92-148.07,262.86-134.84,125.12,13.1,178.63,102.55,230.38,189.06,2.91,4.86,1.33,11.16-3.53,14.06-1.65.99-3.46,1.46-5.25,1.46Z"/>
  <path class="cls-27" d="m781.27,710.86c-125.12,0-187.27-81.74-247.06-161.25l-3.51-1.75v-2.41l-.8-.8v-2.74c-.11-.59-.16-1.2-.16-1.83,0-5.66,4.59-10.25,10.25-10.25.62,0,1.23.05,1.82.16h8.6l.58,7.81c56.65,75.32,115.63,152.56,230.28,152.56s174.19-77.97,230.66-153.38c3.4-4.53,9.82-5.44,14.36-2.06,4.53,3.39,5.45,9.82,2.06,14.36-56.73,75.74-121.03,161.59-247.08,161.59Zm-240.79-170.14h.07-.07Zm-.32-.32h.07-.07Zm0,0h.07-.07Z"/>
  <path class="cls-51" d="m539.51,549.53c-1.54,0-3.11-.35-4.58-1.08-1.16-.58-2.54-1.7-3.51-2.76l-.75-.9c-57.19-76.19-116.31-154.99-231.95-154.99s-174.19,77.97-230.66,153.37c-3.4,4.53-9.82,5.45-14.36,2.06-4.53-3.39-5.45-9.82-2.06-14.36,56.73-75.74,121.02-161.58,247.08-161.58s187.83,82.55,247.9,162.59c3.15,3.03,4.12,7.86,2.07,11.98-1.8,3.59-5.42,5.67-9.18,5.67Zm7.56-17.08l.07.09s-.04-.06-.07-.09Zm-2.95-2.34h0,0Z"/>
  <path class="cls-1" d="m770.1,686.11c-108.41,0-173.84-70.52-237.3-138.9-3.85-4.15-3.61-10.64.54-14.49,4.15-3.85,10.64-3.61,14.49.54,68.25,73.54,132.7,143,247.78,130.98,114.94-12.13,165.11-95.92,213.64-176.95,2.91-4.86,9.21-6.44,14.07-3.53,4.86,2.91,6.44,9.21,3.53,14.07-48.73,81.37-103.96,173.6-229.09,186.81-9.52.99-18.75,1.48-27.66,1.48Z"/>
  <path class="cls-16" d="m61.93,597.37c-1.8,0-3.62-.47-5.27-1.47-4.85-2.92-6.42-9.22-3.5-14.07,48.82-81.22,104.16-173.27,229.08-186.47,123.62-12.96,194.21,61.26,262,133.99l6.02.32v10.25c0,6.11-5.68,11-11.55,10.25l-9.12-.16-.1-6.41c-67.31-72.23-131.41-139.75-245.1-127.85-114.75,12.13-165.03,95.76-213.65,176.65-1.92,3.2-5.32,4.97-8.8,4.97Z"/>
  <path class="cls-62" d="m758.99,662.59c-94.2,0-160.57-58.05-225.1-114.47-4.26-3.73-4.7-10.21-.97-14.47,3.73-4.27,10.2-4.7,14.47-.97,75.4,65.94,146.64,128.23,259.84,104.12,112.77-23.92,154.06-112.5,193.99-198.17,2.39-5.13,8.49-7.35,13.63-4.96,5.13,2.39,7.35,8.49,4.96,13.63-40.09,86.02-85.54,183.53-208.31,209.57-18.45,3.93-35.92,5.73-52.51,5.73Z"/>
  <path class="cls-17" d="m69.49,647.46c-1.45,0-2.92-.31-4.32-.96-5.13-2.39-7.36-8.49-4.97-13.62,40.05-86.09,85.45-183.68,208.31-209.74,122.95-26.14,201.74,42.42,277.91,108.73,4.27,3.72,4.72,10.19,1,14.47-3.72,4.28-10.2,4.72-14.47,1-75.71-65.9-147.23-128.15-260.18-104.14-112.84,23.94-154.09,112.59-193.98,198.33-1.74,3.74-5.44,5.93-9.3,5.93Z"/>
  <path class="cls-28" d="m747.17,640.27c-82.47,0-148.29-46.34-212.43-91.49-4.63-3.26-5.74-9.66-2.48-14.29,3.26-4.63,9.66-5.74,14.29-2.48,81.91,57.66,159.27,112.11,269.29,76.33,109.68-35.58,141.43-127.99,172.14-217.36,1.84-5.36,7.67-8.21,13.03-6.37,5.36,1.84,8.21,7.67,6.37,13.03-32.34,94.13-65.79,191.46-185.2,230.2-26.58,8.65-51.47,12.42-74.99,12.42Z"/>
  <path class="cls-45" d="m82.33,695.94c-1.1,0-2.22-.18-3.32-.55-5.36-1.83-8.22-7.66-6.39-13.02,30.68-89.72,65.45-191.42,185.05-230.21,119.38-38.8,204.92,21.03,287.65,78.88l4.38,3.06.23,5.5c0,5.66-4.59,10.33-10.25,10.33-2.69,0-5.13-1.01-6.96-2.68-82.07-57.38-159.54-111.07-268.71-75.59-109.85,35.63-141.43,128.01-171.97,217.34-1.46,4.26-5.44,6.94-9.7,6.94Z"/>
  <path class="cls-41" d="m733.56,619.26c-72.23,0-135.56-35.28-197.42-69.74-4.95-2.76-6.72-9-3.97-13.95,2.76-4.95,9-6.72,13.95-3.97,87.27,48.61,169.71,94.51,275.3,47.59,105.44-46.96,127.38-142.15,148.6-234.21,1.27-5.52,6.8-8.96,12.29-7.69,5.52,1.27,8.96,6.78,7.69,12.29-21.31,92.44-45.46,197.21-160.25,248.34-33.99,15.11-65.88,21.33-96.2,21.33Z"/>
  <path class="cls-2" d="m540.64,550.66c-5.66,0-10.25-4.59-10.25-10.25s4.59-10.33,10.25-10.33,10.25,4.51,10.25,10.17v.16c0,5.66-4.59,10.25-10.25,10.25Z"/>
  <path class="cls-65" d="m540.48,550.49c-5.66,0-10.25-4.59-10.25-10.25s4.59-10.33,10.25-10.33,10.25,4.51,10.25,10.17v.16c0,5.66-4.59,10.25-10.25,10.25Z"/>
  <path class="cls-12" d="m100,742.97c-.76,0-1.53-.09-2.3-.26-5.52-1.27-8.97-6.77-7.7-12.28,21.19-92.42,45.2-197.18,160.09-248.35,111.89-49.75,201.55-2.83,287.85,44.99l12.14-12.35.02,25.04c0,3.09-1.37,5.88-3.52,7.78l-4.23,4.31-12.9-5.08v-.97c-85.92-47.63-167.67-90.94-271.02-44.99-105.53,47-127.34,142.17-148.44,234.19-1.09,4.75-5.31,7.97-9.98,7.97Z"/>
  <path class="cls-57" d="m717.01,599.86c-62.12,0-120.66-24.64-177.98-49.04h-.3l-1.65-.79c-4-1.46-6.86-5.29-6.86-9.79,0-5.66,4.59-10.25,10.25-10.25.62,0,1.23.05,1.82.16h.74l.96.46c.47.17.92.38,1.36.61,91.93,39.15,178.79,76.06,278.62,18.29,100.23-57.83,111.92-154.63,123.22-248.23.68-5.62,5.79-9.61,11.41-8.95,5.62.68,9.63,5.79,8.95,11.41-11.35,94.02-24.22,200.58-133.32,263.53-40.72,23.57-79.64,32.59-117.23,32.6Zm-166.27-59.62h.07-.07Z"/>
  <path class="cls-26" d="m540.32,550.49h-10.25l-.16-10.25c0-5.66,4.59-10.33,10.25-10.33,4.2,0,7.81,2.48,9.39,6.07.6,1.3.94,2.74.94,4.26,0,5.66-4.51,10.25-10.17,10.25Z"/>
  <path class="cls-56" d="m539.84,550.33c-5.66,0-10.25-4.59-10.25-10.25s4.59-10.33,10.25-10.33,10.25,4.51,10.25,10.17v.16c0,5.66-4.59,10.25-10.25,10.25Z"/>
  <path class="cls-25" d="m122.64,787.92c-.41,0-.82-.02-1.24-.07-5.62-.68-9.63-5.79-8.95-11.41,11.36-94.1,24.24-200.75,133.15-263.69,109.11-62.97,204.7-22.1,297.15,17.43,5.21,2.23,7.62,8.25,5.4,13.46s-8.25,7.62-13.46,5.4c-87.81-37.54-178.61-76.37-278.83-18.53-100.04,57.81-111.74,154.7-123.05,248.39-.63,5.2-5.05,9.03-10.17,9.03Z"/>
  <path class="cls-32" d="m696.34,582.44c-53.25,0-105.72-16.04-157.25-31.95h-8.71l-.32-10.25c0-6.11,5.67-11.02,11.55-10.25l.65.1c.42.08.83.18,1.23.31l.17.04c95.73,29.55,186.14,57.47,279.74-10.54,93.32-67.82,95.06-165.42,96.75-259.81.1-5.66,4.95-10.18,10.44-10.07,5.66.1,10.17,4.77,10.07,10.44-1.69,94.78-3.61,202.21-105.2,276.03-46.89,34.07-93.3,45.95-139.12,45.95Z"/>
  <path class="cls-7" d="m149.6,829.97h-.17c-5.66-.09-10.18-4.76-10.09-10.42,1.53-94.65,3.27-201.94,105.04-275.89,101.35-73.72,200.98-43.3,297.33-13.87l2.19.93c5.05,2.54,7.28,8.78,4.76,13.84-2.52,5.05-8.47,7.21-13.53,4.71-95.16-29.1-185.59-56.72-278.7,10.98-93.49,67.93-95.06,165.39-96.59,259.64-.09,5.6-4.67,10.09-10.25,10.09Z"/>
  <path class="cls-18" d="m669.43,567.32c-43.31,0-86.95-8.57-129.96-17.02-5.56-1.09-9.18-6.48-8.08-12.04,1.09-5.55,6.47-9.19,12.04-8.08,98,19.25,190.56,37.42,276.42-39.93,85.69-77,77.15-174.3,68.89-268.4-.5-5.64,3.68-10.62,9.32-11.11,5.72-.49,10.62,3.68,11.11,9.32,8.7,99.11,17.7,201.6-75.6,285.44-52.7,47.49-108.13,61.83-164.13,61.83Z"/>
  <path class="cls-4" d="m540.48,550.33c-5.66,0-10.41-4.75-10.41-10.41s4.59-10.25,10.25-10.25c2.87,0,5.47,1.18,7.33,3.08,1.9,1.86,3.08,4.46,3.08,7.33,0,5.66-4.59,10.25-10.25,10.25Zm10.09-10.41h.07-.07Z"/>
  <path class="cls-59" d="m181.04,869.31c-5.25,0-9.72-4.01-10.2-9.34-8.43-94.24-17.98-201.05,75.58-285.44,93.21-83.82,195.39-64.08,294.23-44.99l.74.14,8.56.05.23,8.12c.68,3.26-.25,6.79-2.78,9.32-2.6,2.61-6.5,3.7-10.03,2.77-.68-.13-1.34-.31-1.96-.54-97.73-18.88-190.05-36.28-275.27,40.36-85.95,77.52-77.27,174.55-68.88,268.37.5,5.64-3.66,10.62-9.3,11.13-.31.03-.62.04-.93.04Z"/>
  <path class="cls-8" d="m629.91,555.75c-29.54,0-59.38-2.63-88.92-5.25h-3.73l-3.63-3.09c-4.05-3.97-4.11-10.46-.15-14.5,2.6-2.66,6.3-3.6,9.68-2.81,99.17,8.8,192.81,16.85,269.83-68.79,77.41-85.98,58.61-181.74,40.43-274.34-1.09-5.56,2.53-10.95,8.08-12.04,5.57-1.12,10.95,2.53,12.04,8.08,18.27,93,38.96,198.42-45.3,292.01-59.13,65.76-127.9,80.72-198.31,80.72Z"/>
  <path class="cls-37" d="m216.36,905.11c-4.8,0-9.09-3.39-10.05-8.28-18.26-92.95-38.94-198.3,45.31-291.7,84.01-93.38,188.19-84.17,288.96-75.26,5.64.5,9.81,5.48,9.31,11.12-.5,5.64-5.44,9.79-11.12,9.31-100.14-8.86-194.75-17.22-271.92,68.56-77.39,85.79-58.6,181.48-40.43,274.02,1.09,5.56-2.53,10.95-8.08,12.04-.67.13-1.33.2-1.99.2Z"/>
  <path class="cls-31" d="m540.96,550.33l-.48-10.25.32-10.25c100.02-1.61,194.66-3.12,262.52-96.58,67.85-93.38,39.28-186.66,11.66-276.87-1.66-5.42,1.39-11.15,6.8-12.81,5.42-1.68,11.15,1.39,12.81,6.8,27.75,90.6,59.19,193.28-14.67,294.93-73.88,101.75-178.13,103.42-278.95,105.04Z"/>
  <path class="cls-5" d="m255.22,936.89c-4.39,0-8.44-2.84-9.8-7.25-27.78-90.57-59.28-193.23,14.51-294.78,74.09-101.75,178.56-103.42,279.59-105.04,5.54-.17,10.32,4.43,10.42,10.09.09,5.66-4.43,10.32-10.09,10.42-100.42,1.61-195.27,3.12-263.33,96.59-67.76,93.25-39.15,186.51-11.49,276.7,1.66,5.41-1.38,11.15-6.8,12.81-1,.31-2.02.45-3.01.45Z"/>
  <path class="cls-30" d="m541.1,550.33h-.62c-5.66,0-10.33-4.59-10.33-10.25s4.2-9.93,9.57-10.24c99.39-12.02,193.22-23.52,250.98-123.48,57.78-100.13,19.55-189.84-17.41-276.59-2.22-5.21.2-11.23,5.41-13.45,5.21-2.23,11.23.2,13.45,5.41,37.12,87.13,79.2,185.87,16.31,294.88-62.98,108.99-166.56,121.52-266.75,133.64l-.61.07Z"/>
  <path class="cls-9" d="m297.12,964.5c-3.99,0-7.77-2.34-9.44-6.24-37.1-87.09-79.16-185.79-16.3-294.57,62.92-108.77,166.69-121.49,267.05-133.79,5.58-.72,10.73,3.31,11.43,8.93.69,5.62-3.31,10.74-8.93,11.43-99.76,12.23-193.99,23.78-251.79,123.7-57.73,99.9-19.53,189.56,17.41,276.27,2.22,5.21-.2,11.23-5.41,13.45-1.31.56-2.67.82-4.02.82Z"/>
  <path class="cls-38" d="m540.32,550.33c-5.66,0-10.33-4.59-10.33-10.25,0-.44.03-.87.08-1.3v-6.88l7.97-1.98c97.85-22.33,190.27-43.43,237.4-149.09,46.97-105.46-.45-190.82-46.31-273.37-2.75-4.95-.97-11.19,3.98-13.94,4.96-2.75,11.2-.96,13.94,3.98,46.06,82.9,98.26,176.87,47.12,291.68-49.93,111.93-147.66,136.94-243.6,158.91v2.08l-10.25.16Z"/>
  <path class="cls-33" d="m539.68,550.41c-5.66,0-10.25-4.51-10.25-10.17v-10.41h10.25c5.66,0,10.33,4.59,10.33,10.25,0,4.2-2.48,7.81-6.07,9.39-1.3.6-2.74.94-4.26.94Z"/>
  <path class="cls-64" d="m341.92,987.62c-3.6,0-7.09-1.9-8.97-5.27-46.03-82.71-98.21-176.46-47.12-291.36,51.23-115.05,152.99-138.28,251.41-160.74,5.5-1.24,11.02,2.19,12.28,7.71,1.26,5.52-2.19,11.02-7.71,12.28-97.81,22.32-190.19,43.41-237.24,149.08-46.92,105.54.47,190.7,46.3,273.05,2.75,4.95.97,11.19-3.97,13.95-1.58.88-3.29,1.3-4.98,1.3Z"/>
  <path class="cls-43" d="m540.32,550.18c-4.27,0-8.25-2.68-9.7-6.94-1.83-5.36,1.03-11.19,6.39-13.02,94.96-32.46,184.66-63.12,220.39-173.1,35.8-109.89-20.31-189.7-74.57-266.88-3.26-4.63-2.14-11.03,2.49-14.29,4.64-3.26,11.03-2.14,14.29,2.49,54.5,77.52,116.27,165.39,77.29,285.02-38.9,119.73-137.71,153.5-233.26,186.16-1.1.37-2.22.55-3.32.55Z"/>
  <path class="cls-61" d="m388.79,1005.92c-3.23,0-6.4-1.52-8.4-4.36-54.5-77.53-116.27-165.4-77.29-284.87,38.65-119.32,137.15-153.2,232.51-185.85,3.74-1.48,8.18-.73,11.15,2.3,3.96,4.05,3.98,10.46-.07,14.42l-1.66,1.62-2.36.91c-94.89,32.49-184.51,63.18-220.07,172.93-35.8,109.73,20.31,189.54,74.57,266.73,3.26,4.63,2.14,11.03-2.49,14.29-1.8,1.26-3.85,1.87-5.89,1.87Z"/>
  <path class="cls-35" d="m540.33,550.18c-3.87,0-7.57-2.2-9.31-5.94-2.38-5.14-.15-11.24,4.99-13.62,91.11-42.26,177.18-82.18,201.21-195.26,23.96-112.96-40.18-186.58-102.21-257.77-3.72-4.27-3.27-10.75.99-14.47s10.75-3.28,14.47.99c62.29,71.49,132.89,152.53,106.81,275.5-26.17,123.11-120.96,167.08-212.64,209.6-1.4.65-2.86.95-4.31.95Z"/>
  <path class="cls-15" d="m539.52,550.58c-5.66,0-10.25-4.51-10.25-10.17v-10.41h10.25c5.66,0,10.33,4.59,10.33,10.25,0,4.2-2.48,7.81-6.07,9.39-1.3.6-2.74.94-4.26.94Z"/>
  <path class="cls-55" d="m437.11,1019.24c-2.86,0-5.7-1.19-7.73-3.51-62.25-71.29-132.8-152.09-106.65-275.19,26.23-123.05,120.59-166.81,211.84-209.12,5.13-2.38,11.23-.15,13.62,4.99,2.38,5.14.15,11.23-4.99,13.62-90.67,42.04-176.31,81.76-200.4,194.78-24.02,113.06,40.06,186.46,102.04,257.44,3.73,4.27,3.28,10.74-.98,14.47-1.94,1.7-4.35,2.53-6.74,2.53Z"/>
  <path class="cls-22" d="m486.7,1027.59c-2.5,0-5.01-.91-6.99-2.75-69.31-64.56-147.88-137.74-134.84-262.68,12.98-123.54,99.8-176.88,184.71-227.66l.32-4.67,7.5-.12c85.54-51.39,165.46-100.38,177.32-213.83,12.15-114.92-59.39-181.41-128.57-245.7-4.15-3.86-4.39-10.34-.53-14.49,3.85-4.15,10.34-4.39,14.49-.53,69.48,64.57,148.23,137.76,135.01,262.86-12.81,122.52-99.53,176.59-184.71,227.8l-.32,4.52-7.72.41c-81.3,48.6-165.08,99.09-177.11,213.55-11.97,114.77,59.4,181.25,128.43,245.54,4.14,3.86,4.37,10.35.51,14.49-2.02,2.17-4.76,3.26-7.51,3.26Z"/>
</svg>