<?xml version="1.0" encoding="UTF-8"?>
<svg id="Layer_1" data-name="Layer 1" xmlns="http://www.w3.org/2000/svg" xmlns:xlink="http://www.w3.org/1999/xlink" viewBox="0 0 1080 1080">
  <defs>
    <style>
      .cls-1 {
        fill: url(#New_Gradient_Swatch_2);
      }
    </style>
    <linearGradient id="New_Gradient_Swatch_2" data-name="New Gradient Swatch 2" x1="-4681.57" y1="4431.35" x2="-5420.65" y2="3692.27" gradientTransform="translate(-5243.84 3465.52) rotate(-168.03)" gradientUnits="userSpaceOnUse">
      <stop offset="0" stop-color="#caf1b8"/>
      <stop offset="1" stop-color="#9bcbed"/>
      <stop offset="1" stop-color="#98c9f0"/>
    </linearGradient>
  </defs>
  <path class="cls-1" d="m536.61,1067.51c-35.32,0-70.84-3.7-106.14-11.18-199.01-42.21-355.06-200.58-397.55-403.48h0c-15.2-72.83-15.02-146.97.55-220.39,15.56-73.4,45.49-141.22,88.93-201.57C243.6,62.69,450.52-18.71,649.5,23.48c135.17,28.67,250.95,109.47,326.02,227.55,74.96,117.91,100.18,258.64,70.98,396.26-29.18,137.65-109.35,256.04-225.72,333.39-86.09,57.22-184.26,86.84-284.17,86.84ZM81.55,642.68c38.46,183.64,179.46,326.94,359.23,365.06,121.97,25.86,247.19,1.57,352.51-68.43,105.48-70.11,178.15-177.48,204.63-302.33,26.46-124.83,3.63-252.43-64.32-359.3-67.84-106.71-172.4-179.73-294.4-205.6-179.78-38.12-366.79,35.6-476.48,187.85-39.39,54.72-66.53,116.23-80.66,182.84-14.13,66.63-14.3,133.9-.51,199.93h0Z"/>
</svg>