<?xml version="1.0" encoding="UTF-8"?>
<svg id="Layer_1" data-name="Layer 1" xmlns="http://www.w3.org/2000/svg" xmlns:xlink="http://www.w3.org/1999/xlink" viewBox="0 0 1080 1080">
  <defs>
    <style>
      .cls-1 {
        fill: url(#New_Gradient_Swatch_2);
      }
    </style>
    <linearGradient id="New_Gradient_Swatch_2" data-name="New Gradient Swatch 2" x1="46.21" y1="540" x2="1033.79" y2="540" gradientUnits="userSpaceOnUse">
      <stop offset="0" stop-color="#caf1b8"/>
      <stop offset="1" stop-color="#9bcbed"/>
      <stop offset="1" stop-color="#98c9f0"/>
    </linearGradient>
  </defs>
  <path class="cls-1" d="m689.1,1024.12l-5.49-19.8c-11.8-42.59-23.36-87.04-34.36-132.13-12.64-51.68-58.61-87.8-111.81-87.84-53.25,0-99.24,36.05-111.93,87.66-10.15,41.26-20.75,81.84-31.52,120.62l-5.48,19.75-17.12-11.27c-5.93-3.91-12.33-7.3-19.01-10.08-6.72-2.81-13.79-4.99-21.05-6.48l-20.16-4.15,10.2-17.88c19.55-34.27,40.75-70.13,63.02-106.57,27.77-45.46,20.91-103.58-16.67-141.35-21.78-21.85-50.78-33.89-81.66-33.89-21.01,0-41.61,5.75-59.58,16.64-39.64,23.98-78.78,46.88-116.35,68.05l-17.85,10.06-4.11-20.07c-1.51-7.39-3.74-14.65-6.62-21.58-3.35-8.07-7.63-15.74-12.71-22.8l-12.44-17.29,20.49-5.8c42.19-11.94,86.01-23.58,130.25-34.6,51.36-12.77,87.29-58.65,87.38-111.58.09-52.91-35.68-98.92-86.98-111.88-47.73-12.03-95.19-24.81-141.04-37.99l-20.3-5.84,12.28-17.19c5.07-7.1,9.34-14.81,12.69-22.9,3.53-8.5,6.02-17.38,7.43-26.41l3.29-21.15,18.71,10.39c40.61,22.55,83.1,47.1,126.26,72.97,17.87,10.75,38.33,16.42,59.2,16.42,30.81,0,59.77-12,81.54-33.78,37.44-37.49,44.51-95.37,17.21-140.74-23.86-39.67-46.67-79-67.8-116.9l-10.37-18.61,21.03-3.4c8.7-1.41,17.25-3.84,25.42-7.23,6.86-2.8,13.44-6.28,19.63-10.36l17.1-11.27,5.5,19.72c11.66,41.81,23.22,85.98,34.36,131.28,12.69,51.61,58.68,87.65,111.84,87.65,53.41-.07,99.35-36.25,111.91-87.99,10.03-41.26,20.51-81.79,31.14-120.46l5.47-19.9,17.19,11.42c6.1,4.05,12.67,7.53,19.55,10.35,6.67,2.77,13.5,4.89,20.37,6.31l20.06,4.16-10.1,17.82c-19.72,34.78-40.86,70.79-62.84,107.03-27.64,45.53-20.61,103.6,17.09,141.22,21.77,21.71,50.69,33.67,81.42,33.67,21.1,0,41.8-5.81,59.88-16.8,39.64-24.14,78.65-47.12,115.95-68.29l17.96-10.2,4.05,20.25c1.52,7.61,3.81,15.08,6.81,22.21,3.27,7.83,7.45,15.33,12.42,22.33l12.23,17.2-20.29,5.81c-41.15,11.78-85.02,23.55-130.38,34.98-51.31,12.92-87.12,58.89-87.08,111.81h0c.03,52.9,35.91,98.8,87.24,111.61,48.53,12.12,96.25,24.87,141.84,37.91l20.36,5.82-12.32,17.22c-5.11,7.13-9.41,14.9-12.78,23.09-3.54,8.59-6.03,17.52-7.41,26.55l-3.24,21.17-18.75-10.36c-40.88-22.6-83.73-47.31-127.36-73.45-17.88-10.69-38.33-16.34-59.14-16.34-30.81,0-59.77,12-81.54,33.78-37.4,37.44-44.5,95.29-17.27,140.67,24.2,40.31,47.17,80,68.27,117.96l10.34,18.61-21.02,3.39c-8.81,1.42-17.42,3.84-25.58,7.2-6.91,2.84-13.57,6.37-19.77,10.46l-17.14,11.33Zm-1.42-121.13c6.42,25.38,13,50.45,19.66,74.96,2.4-1.15,4.84-2.23,7.3-3.24,3.89-1.6,7.85-3.03,11.88-4.29-12.4-22.03-25.39-44.57-38.84-67.43Zm-330.84,57.75c2.39.85,4.74,1.76,7.06,2.73,2.14.89,4.26,1.84,6.36,2.83,4.64-17.03,9.24-34.37,13.77-51.93-9.33,15.67-18.41,31.15-27.19,46.36Zm180.51-206.25c43.85.03,83.78,19.47,110.62,51.11-2.74-40.69,11.77-81.8,42.15-112.21,27.41-27.43,63.87-42.54,102.66-42.54,5.93,0,11.84.36,17.69,1.08-34.5-26.78-55.97-68.51-56-114.43h0c-.03-43.39,19.07-83.07,50.24-109.97-3.96.33-7.94.49-11.93.49-38.7,0-75.11-15.06-102.52-42.4-29.29-29.23-43.88-68.24-42.59-107.31-26.66,28.62-64.55,46.01-105.94,46.07-43.97,0-83.98-19.46-110.85-51.14,2.74,40.68-11.76,81.79-42.15,112.23-27.41,27.44-63.87,42.54-102.67,42.54-5.95,0-11.86-.37-17.73-1.09,34.64,26.88,56.14,68.78,56.06,114.85-.08,43.23-19.14,82.73-50.17,109.54,3.93-.32,7.88-.48,11.84-.48,38.87,0,75.39,15.16,102.82,42.69,29.09,29.23,43.56,68.13,42.27,107.07,26.72-28.7,64.72-46.12,106.19-46.12Zm351.42-70.25c29.82,17.65,59.16,34.55,87.65,50.5,1.34-4.38,2.89-8.71,4.65-12.97,1.6-3.87,3.36-7.68,5.28-11.39-31.73-8.9-64.41-17.65-97.57-26.13Zm-784.77,27.09c1.86,3.6,3.58,7.27,5.13,11.02,1.04,2.51,2.02,5.06,2.92,7.63,21.66-12.35,43.78-25.23,66.17-38.52-25.07,6.47-49.88,13.11-74.23,19.87Zm-10.42-342.8c31.64,8.93,63.94,17.66,96.5,26.06-29.44-17.44-58.47-34.2-86.68-50.05-1.34,4.34-2.88,8.63-4.63,12.83-1.57,3.79-3.3,7.52-5.18,11.16Zm873.11-19.97c-21.63,12.42-43.77,25.4-66.22,38.83,25.45-6.63,50.28-13.35,74.29-20.08-1.76-3.42-3.39-6.89-4.86-10.42-1.15-2.74-2.22-5.52-3.2-8.33ZM352.74,109.4c12.32,21.83,25.17,44.08,38.41,66.53-6.42-25.21-12.95-49.94-19.53-73.97-2.36,1.12-4.75,2.18-7.16,3.16-3.84,1.59-7.75,3.02-11.72,4.27Zm355.61,3.04c-4.59,17.03-9.14,34.38-13.63,51.96,9.22-15.61,18.24-31.1,27.01-46.38-2.13-.77-4.24-1.59-6.34-2.46-2.37-.97-4.72-2.01-7.04-3.11Z"/>
</svg>