<?xml version="1.0" encoding="UTF-8"?>
<svg id="Layer_1" data-name="Layer 1" xmlns="http://www.w3.org/2000/svg" xmlns:xlink="http://www.w3.org/1999/xlink" viewBox="0 0 1080 1080">
  <defs>
    <style>
      .cls-1 {
        fill: url(#New_Gradient_Swatch_2);
      }
    </style>
    <linearGradient id="New_Gradient_Swatch_2" data-name="New Gradient Swatch 2" x1="66.59" y1="540.43" x2="1015.81" y2="540.43" gradientUnits="userSpaceOnUse">
      <stop offset="0" stop-color="#caf1b8"/>
      <stop offset="1" stop-color="#9bcbed"/>
      <stop offset="1" stop-color="#98c9f0"/>
    </linearGradient>
  </defs>
  <path class="cls-1" d="m1014.95,176.3c-2.92-26.3-13.06-46.48-30.12-60l-2.26-1.54c-3.47-2.01-7.04-3.62-10.66-5.02l.39-.71-137.09-74.61c-17.22-9.32-38.45-12.35-63.08-9C593.28,37.78,214.76,463.45,102.14,732.84c-43.52,104.11-47.1,179.72-10.67,224.84,4.22,7.78,19.71,16.57,109.08,64.23,17.39,9.28,36.81,19.63,43.41,23.36,1.39.93,2.79,1.83,4.3,2.66l.24-.37c.21.13.38.27.59.39l3.25,1.65c1.6.73,3.26,1.46,4.97,2.09.95.38,1.91.74,2.48.91,1.88.64,3.81,1.18,5.44,1.58,6.55,1.81,12.86,2.25,18.26,2.52l.89.02h1.03c2.42,0,4.88-.03,7.35-.18l.81-.07c107.7-11.08,276.89-143.24,452.58-353.54l.2-.24c174.68-216.33,280.11-422.96,268.61-526.42ZM206.09,981.85c-31.05-16.59-74.77-40.1-83.88-46.56-27.96-32.58-22.8-97.51,14.95-187.82C253.44,469.3,623.18,72.83,775.25,63.25l1.44-.15c16.72-2.34,30.36-.77,40.43,4.68l70.15,38.18c-160.6,44.22-339.78,245.34-412.43,333.83-146.72,178.74-254.27,372.77-267.62,482.68-2.52,19.48-3.98,40-1.14,59.38ZM825.56,172.83c-51.85,207.4-372.33,612.96-576.03,728.6,24.47-106.79,123.24-277.49,254.64-437.57,112.85-137.47,226.5-239.54,321.39-291.03Zm-108.64,505.92c-166.69,199.5-330.16,329.68-426.82,339.95-1.73.09-3.46.1-5.17.09-3.39-.17-6.9-.43-10.04-1.29-.98-.25-1.9-.48-3.48-1.02l-.93-.36c-.79-.28-1.54-.64-1.67-.69l-.93-.46c-14.46-8.93-21.94-24.77-14.75-72.33,218.96-113,569.63-557.76,612.96-777.16,36.41-17.96,72.39-31.28,96.22-18.59,8.32,7.13,13.2,18.14,14.92,33.58,10.12,91-96.92,295.88-260.32,498.27Z"/>
</svg>