<?xml version="1.0" encoding="UTF-8"?>
<svg id="Layer_1" data-name="Layer 1" xmlns="http://www.w3.org/2000/svg" xmlns:xlink="http://www.w3.org/1999/xlink" viewBox="0 0 1080 1080">
  <defs>
    <style>
      .cls-1 {
        fill: url(#New_Gradient_Swatch_2-33);
      }

      .cls-2 {
        fill: url(#New_Gradient_Swatch_2-40);
      }

      .cls-3 {
        fill: url(#New_Gradient_Swatch_2-2);
      }

      .cls-4 {
        fill: url(#New_Gradient_Swatch_2-50);
      }

      .cls-5 {
        fill: url(#New_Gradient_Swatch_2-55);
      }

      .cls-6 {
        fill: url(#New_Gradient_Swatch_2-28);
      }

      .cls-7 {
        fill: url(#New_Gradient_Swatch_2-48);
      }

      .cls-8 {
        fill: url(#New_Gradient_Swatch_2-52);
      }

      .cls-9 {
        fill: url(#New_Gradient_Swatch_2-57);
      }

      .cls-10 {
        fill: url(#New_Gradient_Swatch_2-14);
      }

      .cls-11 {
        fill: url(#New_Gradient_Swatch_2-22);
      }

      .cls-12 {
        fill: url(#New_Gradient_Swatch_2-42);
      }

      .cls-13 {
        fill: url(#New_Gradient_Swatch_2-8);
      }

      .cls-14 {
        fill: url(#New_Gradient_Swatch_2-4);
      }

      .cls-15 {
        fill: url(#New_Gradient_Swatch_2-64);
      }

      .cls-16 {
        fill: url(#New_Gradient_Swatch_2-34);
      }

      .cls-17 {
        fill: url(#New_Gradient_Swatch_2-36);
      }

      .cls-18 {
        fill: url(#New_Gradient_Swatch_2-49);
      }

      .cls-19 {
        fill: url(#New_Gradient_Swatch_2-17);
      }

      .cls-20 {
        fill: url(#New_Gradient_Swatch_2-13);
      }

      .cls-21 {
        fill: url(#New_Gradient_Swatch_2-11);
      }

      .cls-22 {
        fill: url(#New_Gradient_Swatch_2-18);
      }

      .cls-23 {
        fill: url(#New_Gradient_Swatch_2-20);
      }

      .cls-24 {
        fill: url(#New_Gradient_Swatch_2-46);
      }

      .cls-25 {
        fill: url(#New_Gradient_Swatch_2-44);
      }

      .cls-26 {
        fill: url(#New_Gradient_Swatch_2-31);
      }

      .cls-27 {
        fill: url(#New_Gradient_Swatch_2-37);
      }

      .cls-28 {
        fill: url(#New_Gradient_Swatch_2-25);
      }

      .cls-29 {
        fill: url(#New_Gradient_Swatch_2-56);
      }

      .cls-30 {
        fill: url(#New_Gradient_Swatch_2-54);
      }

      .cls-31 {
        fill: url(#New_Gradient_Swatch_2-47);
      }

      .cls-32 {
        fill: url(#New_Gradient_Swatch_2-59);
      }

      .cls-33 {
        fill: url(#New_Gradient_Swatch_2-24);
      }

      .cls-34 {
        fill: url(#New_Gradient_Swatch_2-63);
      }

      .cls-35 {
        fill: url(#New_Gradient_Swatch_2-15);
      }

      .cls-36 {
        fill: url(#New_Gradient_Swatch_2-53);
      }

      .cls-37 {
        fill: url(#New_Gradient_Swatch_2-58);
      }

      .cls-38 {
        fill: url(#New_Gradient_Swatch_2);
      }

      .cls-39 {
        fill: url(#New_Gradient_Swatch_2-29);
      }

      .cls-40 {
        fill: url(#New_Gradient_Swatch_2-39);
      }

      .cls-41 {
        fill: url(#New_Gradient_Swatch_2-12);
      }

      .cls-42 {
        fill: url(#New_Gradient_Swatch_2-61);
      }

      .cls-43 {
        fill: url(#New_Gradient_Swatch_2-19);
      }

      .cls-44 {
        fill: url(#New_Gradient_Swatch_2-38);
      }

      .cls-45 {
        fill: url(#New_Gradient_Swatch_2-23);
      }

      .cls-46 {
        fill: url(#New_Gradient_Swatch_2-7);
      }

      .cls-47 {
        fill: url(#New_Gradient_Swatch_2-21);
      }

      .cls-48 {
        fill: url(#New_Gradient_Swatch_2-3);
      }

      .cls-49 {
        fill: url(#New_Gradient_Swatch_2-5);
      }

      .cls-50 {
        fill: url(#New_Gradient_Swatch_2-32);
      }

      .cls-51 {
        fill: url(#New_Gradient_Swatch_2-27);
      }

      .cls-52 {
        fill: url(#New_Gradient_Swatch_2-26);
      }

      .cls-53 {
        fill: url(#New_Gradient_Swatch_2-16);
      }

      .cls-54 {
        fill: url(#New_Gradient_Swatch_2-65);
      }

      .cls-55 {
        fill: url(#New_Gradient_Swatch_2-45);
      }

      .cls-56 {
        fill: url(#New_Gradient_Swatch_2-43);
      }

      .cls-57 {
        fill: url(#New_Gradient_Swatch_2-30);
      }

      .cls-58 {
        fill: url(#New_Gradient_Swatch_2-51);
      }

      .cls-59 {
        fill: url(#New_Gradient_Swatch_2-10);
      }

      .cls-60 {
        fill: url(#New_Gradient_Swatch_2-62);
      }

      .cls-61 {
        fill: url(#New_Gradient_Swatch_2-35);
      }

      .cls-62 {
        fill: url(#New_Gradient_Swatch_2-6);
      }

      .cls-63 {
        fill: url(#New_Gradient_Swatch_2-60);
      }

      .cls-64 {
        fill: url(#New_Gradient_Swatch_2-41);
      }

      .cls-65 {
        fill: url(#New_Gradient_Swatch_2-9);
      }
    </style>
    <linearGradient id="New_Gradient_Swatch_2" data-name="New Gradient Swatch 2" x1="531.02" y1="784.28" x2="548.98" y2="784.28" gradientUnits="userSpaceOnUse">
      <stop offset="0" stop-color="#caf1b8"/>
      <stop offset="1" stop-color="#9bcbed"/>
      <stop offset="1" stop-color="#98c9f0"/>
    </linearGradient>
    <linearGradient id="New_Gradient_Swatch_2-2" data-name="New Gradient Swatch 2" y1="295.61" y2="295.61" xlink:href="#New_Gradient_Swatch_2"/>
    <linearGradient id="New_Gradient_Swatch_2-3" data-name="New Gradient Swatch 2" x1="531.02" y1="784.28" x2="600.23" y2="784.28" xlink:href="#New_Gradient_Swatch_2"/>
    <linearGradient id="New_Gradient_Swatch_2-4" data-name="New Gradient Swatch 2" x1="479.77" y1="295.38" x2="548.76" y2="295.38" xlink:href="#New_Gradient_Swatch_2"/>
    <linearGradient id="New_Gradient_Swatch_2-5" data-name="New Gradient Swatch 2" x1="531.02" y1="784.28" x2="652.82" y2="784.28" xlink:href="#New_Gradient_Swatch_2"/>
    <linearGradient id="New_Gradient_Swatch_2-6" data-name="New Gradient Swatch 2" x1="427.41" y1="295.39" x2="548.76" y2="295.39" xlink:href="#New_Gradient_Swatch_2"/>
    <linearGradient id="New_Gradient_Swatch_2-7" data-name="New Gradient Swatch 2" x1="531.46" y1="784.51" x2="707.62" y2="784.51" xlink:href="#New_Gradient_Swatch_2"/>
    <linearGradient id="New_Gradient_Swatch_2-8" data-name="New Gradient Swatch 2" x1="372.6" y1="295.52" x2="548.78" y2="295.52" xlink:href="#New_Gradient_Swatch_2"/>
    <linearGradient id="New_Gradient_Swatch_2-9" data-name="New Gradient Swatch 2" x1="531.46" y1="784.51" x2="766.42" y2="784.51" xlink:href="#New_Gradient_Swatch_2"/>
    <linearGradient id="New_Gradient_Swatch_2-10" data-name="New Gradient Swatch 2" x1="531.13" y1="540.22" x2="549.2" y2="540.22" xlink:href="#New_Gradient_Swatch_2"/>
    <linearGradient id="New_Gradient_Swatch_2-11" data-name="New Gradient Swatch 2" x1="313.81" y1="295.63" x2="548.55" y2="295.63" xlink:href="#New_Gradient_Swatch_2"/>
    <linearGradient id="New_Gradient_Swatch_2-12" data-name="New Gradient Swatch 2" x1="531.45" y1="784.32" x2="830.76" y2="784.32" xlink:href="#New_Gradient_Swatch_2"/>
    <linearGradient id="New_Gradient_Swatch_2-13" data-name="New Gradient Swatch 2" x1="249.24" y1="295.5" x2="548.54" y2="295.5" xlink:href="#New_Gradient_Swatch_2"/>
    <linearGradient id="New_Gradient_Swatch_2-14" data-name="New Gradient Swatch 2" x1="531.69" y1="781.29" x2="899.54" y2="781.29" xlink:href="#New_Gradient_Swatch_2"/>
    <linearGradient id="New_Gradient_Swatch_2-15" data-name="New Gradient Swatch 2" x1="530.91" y1="539.56" y2="539.56" xlink:href="#New_Gradient_Swatch_2"/>
    <linearGradient id="New_Gradient_Swatch_2-16" data-name="New Gradient Swatch 2" x1="180.9" y1="298.55" x2="548.54" y2="298.55" xlink:href="#New_Gradient_Swatch_2"/>
    <linearGradient id="New_Gradient_Swatch_2-17" data-name="New Gradient Swatch 2" x1="531.69" y1="767.53" x2="958.56" y2="767.53" xlink:href="#New_Gradient_Swatch_2"/>
    <linearGradient id="New_Gradient_Swatch_2-18" data-name="New Gradient Swatch 2" x1="121.67" y1="312.25" x2="548.54" y2="312.25" xlink:href="#New_Gradient_Swatch_2"/>
    <linearGradient id="New_Gradient_Swatch_2-19" data-name="New Gradient Swatch 2" x1="531.69" y1="744.9" x2="1003.59" y2="744.9" xlink:href="#New_Gradient_Swatch_2"/>
    <linearGradient id="New_Gradient_Swatch_2-20" data-name="New Gradient Swatch 2" x1="531.24" y1="540.17" x2="549.31" y2="540.17" xlink:href="#New_Gradient_Swatch_2"/>
    <linearGradient id="New_Gradient_Swatch_2-21" data-name="New Gradient Swatch 2" x1="76.18" y1="334.88" x2="548.53" y2="334.88" xlink:href="#New_Gradient_Swatch_2"/>
    <linearGradient id="New_Gradient_Swatch_2-22" data-name="New Gradient Swatch 2" x1="531.69" y1="715.28" x2="1031.11" y2="715.28" xlink:href="#New_Gradient_Swatch_2"/>
    <linearGradient id="New_Gradient_Swatch_2-23" data-name="New Gradient Swatch 2" x1="48.89" y1="364.55" x2="548.76" y2="364.55" xlink:href="#New_Gradient_Swatch_2"/>
    <linearGradient id="New_Gradient_Swatch_2-24" data-name="New Gradient Swatch 2" x1="531.63" y1="680.92" x2="1037.1" y2="680.92" xlink:href="#New_Gradient_Swatch_2"/>
    <linearGradient id="New_Gradient_Swatch_2-25" data-name="New Gradient Swatch 2" x1="42.9" y1="399" x2="548.76" y2="399" xlink:href="#New_Gradient_Swatch_2"/>
    <linearGradient id="New_Gradient_Swatch_2-26" data-name="New Gradient Swatch 2" x1="531.46" y1="648.67" x2="1037.1" y2="648.67" xlink:href="#New_Gradient_Swatch_2"/>
    <linearGradient id="New_Gradient_Swatch_2-27" data-name="New Gradient Swatch 2" x1="42.9" y1="431.17" x2="548.76" y2="431.17" xlink:href="#New_Gradient_Swatch_2"/>
    <linearGradient id="New_Gradient_Swatch_2-28" data-name="New Gradient Swatch 2" x1="531.69" y1="619.21" x2="1037.1" y2="619.21" xlink:href="#New_Gradient_Swatch_2"/>
    <linearGradient id="New_Gradient_Swatch_2-29" data-name="New Gradient Swatch 2" x1="42.9" y1="460.57" x2="548.76" y2="460.57" xlink:href="#New_Gradient_Swatch_2"/>
    <linearGradient id="New_Gradient_Swatch_2-30" data-name="New Gradient Swatch 2" x1="532.13" y1="591.81" x2="1037.1" y2="591.81" xlink:href="#New_Gradient_Swatch_2"/>
    <linearGradient id="New_Gradient_Swatch_2-31" data-name="New Gradient Swatch 2" x1="42.9" y1="487.86" x2="548.76" y2="487.86" xlink:href="#New_Gradient_Swatch_2"/>
    <linearGradient id="New_Gradient_Swatch_2-32" data-name="New Gradient Swatch 2" x1="532.13" y1="565.63" x2="1037.1" y2="565.63" xlink:href="#New_Gradient_Swatch_2"/>
    <linearGradient id="New_Gradient_Swatch_2-33" data-name="New Gradient Swatch 2" x1="42.9" y1="514.15" x2="548.87" y2="514.15" xlink:href="#New_Gradient_Swatch_2"/>
    <linearGradient id="New_Gradient_Swatch_2-34" data-name="New Gradient Swatch 2" x1="531.69" y1="540" x2="1037.1" y2="540" xlink:href="#New_Gradient_Swatch_2"/>
    <linearGradient id="New_Gradient_Swatch_2-35" data-name="New Gradient Swatch 2" x1="42.9" y1="540" x2="548.09" y2="540" xlink:href="#New_Gradient_Swatch_2"/>
    <linearGradient id="New_Gradient_Swatch_2-36" data-name="New Gradient Swatch 2" x1="531.46" y1="514.15" x2="1037.1" y2="514.15" xlink:href="#New_Gradient_Swatch_2"/>
    <linearGradient id="New_Gradient_Swatch_2-37" data-name="New Gradient Swatch 2" x1="42.9" y1="565.63" x2="548.09" y2="565.63" xlink:href="#New_Gradient_Swatch_2"/>
    <linearGradient id="New_Gradient_Swatch_2-38" data-name="New Gradient Swatch 2" x1="531.46" y1="487.97" x2="1037.1" y2="487.97" xlink:href="#New_Gradient_Swatch_2"/>
    <linearGradient id="New_Gradient_Swatch_2-39" data-name="New Gradient Swatch 2" x1="42.9" y1="591.92" x2="548.31" y2="591.92" xlink:href="#New_Gradient_Swatch_2"/>
    <linearGradient id="New_Gradient_Swatch_2-40" data-name="New Gradient Swatch 2" x1="531.46" y1="460.57" x2="1037.1" y2="460.57" xlink:href="#New_Gradient_Swatch_2"/>
    <linearGradient id="New_Gradient_Swatch_2-41" data-name="New Gradient Swatch 2" x1="42.9" y1="619.21" x2="548.54" y2="619.21" xlink:href="#New_Gradient_Swatch_2"/>
    <linearGradient id="New_Gradient_Swatch_2-42" data-name="New Gradient Swatch 2" x1="531.69" y1="431.06" x2="1037.1" y2="431.06" xlink:href="#New_Gradient_Swatch_2"/>
    <linearGradient id="New_Gradient_Swatch_2-43" data-name="New Gradient Swatch 2" x1="42.9" y1="648.61" x2="548.54" y2="648.61" xlink:href="#New_Gradient_Swatch_2"/>
    <linearGradient id="New_Gradient_Swatch_2-44" data-name="New Gradient Swatch 2" x1="531.69" y1="398.78" x2="1037.1" y2="398.78" xlink:href="#New_Gradient_Swatch_2"/>
    <linearGradient id="New_Gradient_Swatch_2-45" data-name="New Gradient Swatch 2" x1="42.9" y1="680.78" x2="548.65" y2="680.78" xlink:href="#New_Gradient_Swatch_2"/>
    <linearGradient id="New_Gradient_Swatch_2-46" data-name="New Gradient Swatch 2" x1="531.69" y1="364.5" x2="1031.11" y2="364.5" xlink:href="#New_Gradient_Swatch_2"/>
    <linearGradient id="New_Gradient_Swatch_2-47" data-name="New Gradient Swatch 2" x1="48.9" y1="715.28" x2="548.76" y2="715.28" xlink:href="#New_Gradient_Swatch_2"/>
    <linearGradient id="New_Gradient_Swatch_2-48" data-name="New Gradient Swatch 2" x1="531.35" y1="335.21" x2="1003.82" y2="335.21" xlink:href="#New_Gradient_Swatch_2"/>
    <linearGradient id="New_Gradient_Swatch_2-49" data-name="New Gradient Swatch 2" x1="76.41" y1="745.01" x2="548.54" y2="745.01" xlink:href="#New_Gradient_Swatch_2"/>
    <linearGradient id="New_Gradient_Swatch_2-50" data-name="New Gradient Swatch 2" x1="531.69" y1="312.25" x2="958.33" y2="312.25" xlink:href="#New_Gradient_Swatch_2"/>
    <linearGradient id="New_Gradient_Swatch_2-51" data-name="New Gradient Swatch 2" x1="121.44" y1="767.42" x2="548.75" y2="767.42" xlink:href="#New_Gradient_Swatch_2"/>
    <linearGradient id="New_Gradient_Swatch_2-52" data-name="New Gradient Swatch 2" x1="531.35" y1="298.71" x2="899.32" y2="298.71" xlink:href="#New_Gradient_Swatch_2"/>
    <linearGradient id="New_Gradient_Swatch_2-53" data-name="New Gradient Swatch 2" x1="180.68" y1="781.4" x2="548.54" y2="781.4" xlink:href="#New_Gradient_Swatch_2"/>
    <linearGradient id="New_Gradient_Swatch_2-54" data-name="New Gradient Swatch 2" x1="531.46" y1="295.39" x2="830.76" y2="295.39" xlink:href="#New_Gradient_Swatch_2"/>
    <linearGradient id="New_Gradient_Swatch_2-55" data-name="New Gradient Swatch 2" x1="531.13" y1="539.78" x2="549.2" y2="539.78" xlink:href="#New_Gradient_Swatch_2"/>
    <linearGradient id="New_Gradient_Swatch_2-56" data-name="New Gradient Swatch 2" x1="530.8" y1="540.06" x2="548.87" y2="540.06" xlink:href="#New_Gradient_Swatch_2"/>
    <linearGradient id="New_Gradient_Swatch_2-57" data-name="New Gradient Swatch 2" x1="249.24" y1="784.4" x2="548.54" y2="784.4" xlink:href="#New_Gradient_Swatch_2"/>
    <linearGradient id="New_Gradient_Swatch_2-58" data-name="New Gradient Swatch 2" x1="531.46" y1="295.38" x2="766.19" y2="295.38" xlink:href="#New_Gradient_Swatch_2"/>
    <linearGradient id="New_Gradient_Swatch_2-59" data-name="New Gradient Swatch 2" x1="531.13" y1="539.56" x2="549.2" y2="539.56" xlink:href="#New_Gradient_Swatch_2"/>
    <linearGradient id="New_Gradient_Swatch_2-60" data-name="New Gradient Swatch 2" x1="313.58" y1="784.18" x2="548.87" y2="784.18" xlink:href="#New_Gradient_Swatch_2"/>
    <linearGradient id="New_Gradient_Swatch_2-61" data-name="New Gradient Swatch 2" x1="531.13" y1="295.94" x2="707.62" y2="295.94" xlink:href="#New_Gradient_Swatch_2"/>
    <linearGradient id="New_Gradient_Swatch_2-62" data-name="New Gradient Swatch 2" x1="372.6" y1="784.51" x2="548.76" y2="784.51" xlink:href="#New_Gradient_Swatch_2"/>
    <linearGradient id="New_Gradient_Swatch_2-63" data-name="New Gradient Swatch 2" x1="531.02" y1="295.61" x2="652.59" y2="295.61" xlink:href="#New_Gradient_Swatch_2"/>
    <linearGradient id="New_Gradient_Swatch_2-64" data-name="New Gradient Swatch 2" x1="427.19" y1="784.51" x2="548.76" y2="784.51" xlink:href="#New_Gradient_Swatch_2"/>
    <linearGradient id="New_Gradient_Swatch_2-65" data-name="New Gradient Swatch 2" x1="479.77" y1="540" x2="600.23" y2="540" xlink:href="#New_Gradient_Swatch_2"/>
  </defs>
  <path class="cls-38" d="m540,1037.1c-4.96,0-8.98-4.02-8.98-8.98v-487.68c0-4.96,4.02-8.98,8.98-8.98s8.98,4.02,8.98,8.98v487.68c0,4.96-4.02,8.98-8.98,8.98Z"/>
  <path class="cls-3" d="m540,548.31c-4.96,0-8.98-4.02-8.98-8.98V51.88c0-4.96,4.02-8.98,8.98-8.98s8.98,4.02,8.98,8.98v487.46c0,4.96-4.02,8.98-8.98,8.98Z"/>
  <path class="cls-48" d="m591.23,1037.1c-4.53,0-8.43-3.43-8.91-8.04l-51.25-487.68c-.51-4.93,3.06-9.35,7.99-9.87,5.03-.49,9.35,3.06,9.87,7.99l51.25,487.68c.51,4.93-3.06,9.35-7.99,9.87-.32.03-.64.05-.96.05Z"/>
  <path class="cls-14" d="m539.77,547.87c-4.54,0-8.43-3.43-8.92-8.04l-51.03-487.01c-.51-4.93,3.06-9.35,7.99-9.86,4.97-.53,9.35,3.06,9.86,7.99l51.03,487.01c.51,4.93-3.06,9.35-7.99,9.86-.32.03-.63.05-.94.05Z"/>
  <path class="cls-49" d="m643.83,1037.1c-4.15,0-7.88-2.89-8.77-7.11l-103.84-487.68c-1.03-4.85,2.06-9.62,6.91-10.65,4.82-1.03,9.62,2.06,10.65,6.91l103.84,487.68c1.03,4.85-2.06,9.62-6.91,10.65-.63.13-1.26.2-1.88.2Z"/>
  <path class="cls-62" d="m539.77,547.87c-4.15,0-7.88-2.89-8.77-7.11L427.6,53.74c-1.03-4.85,2.07-9.62,6.92-10.64,4.82-1.02,9.6,2.07,10.64,6.92l103.4,487.01c1.03,4.85-2.07,9.62-6.92,10.64-.63.13-1.25.2-1.87.2Z"/>
  <path class="cls-46" d="m698.64,1037.1c-3.79,0-7.3-2.41-8.54-6.21l-158.2-487.23c-1.53-4.72,1.05-9.78,5.77-11.31,4.71-1.53,9.77,1.05,11.31,5.77l158.2,487.23c1.53,4.71-1.05,9.78-5.77,11.31-.92.3-1.85.44-2.77.44Z"/>
  <path class="cls-13" d="m539.74,548.14c-3.21,0-6.24-1.71-7.79-4.81l-.71-1.66L373.04,54.65c-1.53-4.71,1.05-9.78,5.77-11.31,4.71-1.53,9.77,1.05,11.31,5.76l158.15,486.85c1.48,4.24-.29,9.16-4.39,11.19-1.34.66-2.75.98-4.13.98Z"/>
  <path class="cls-65" d="m757.45,1037.1c-3.44,0-6.72-1.99-8.21-5.33l-217-487.23c-2.01-4.53.02-9.83,4.54-11.85,4.56-2.01,9.84.02,11.85,4.55l217,487.23c2.01,4.53-.02,9.83-4.54,11.85-1.19.53-2.43.78-3.65.78Z"/>
  <path class="cls-59" d="m540.22,549.2c-4.96,0-9.09-4.02-9.09-8.98s3.91-8.98,8.87-8.98h.22c4.96,0,8.98,4.02,8.98,8.98s-4.02,8.98-8.98,8.98Z"/>
  <path class="cls-21" d="m539.51,548.36c-3.21,0-6.24-1.71-7.78-4.81l-.38-.78L314.59,55.53c-2.01-4.53.02-9.84,4.55-11.85,4.54-2.02,9.84.03,11.85,4.55l216.77,487.23c1.99,4.46.15,9.92-4.27,11.99-1.29.61-2.64.9-3.97.9Z"/>
  <path class="cls-41" d="m821.79,1037.1c-3.1,0-6.12-1.61-7.78-4.49l-281.79-488.03-.29-.87c-1.56-4.7.88-10.12,5.59-11.68,4.64-1.54,9.52.59,11.16,5.15l280.89,486.45c2.48,4.29,1.01,9.78-3.29,12.26-1.41.82-2.96,1.21-4.48,1.21Z"/>
  <path class="cls-20" d="m539.57,548.09c-3.1,0-6.12-1.61-7.78-4.49L250.45,56.37c-2.48-4.29-1.01-9.78,3.29-12.26,4.29-2.48,9.79-1.01,12.26,3.29l281.34,487.23c2.48,4.29,1.01,9.78-3.29,12.26-1.41.82-2.96,1.2-4.48,1.2Z"/>
  <path class="cls-10" d="m890.57,1031.11c-2.77,0-5.52-1.28-7.27-3.7l-349.89-481.69c-2.91-4.01-2.02-9.62,1.99-12.54,3.99-2.92,9.62-2.03,12.54,1.99l349.89,481.69c2.91,4.01,2.02,9.63-1.99,12.54-1.59,1.16-3.43,1.71-5.27,1.71Z"/>
  <path class="cls-35" d="m540,548.53c-4.96,0-9.09-4.02-9.09-8.98s3.91-8.98,8.87-8.98h.22c4.96,0,8.98,4.02,8.98,8.98s-4.02,8.98-8.98,8.98Z"/>
  <path class="cls-53" d="m539.56,548.2c-3.51,0-6.54-1.96-8.02-4.86L182.62,63.15c-2.92-4.01-2.03-9.62,1.99-12.54,3.99-2.91,9.63-2.03,12.53,1.99l351.4,483.6v2.92c0,4.96-4.02,9.09-8.98,9.09Z"/>
  <path class="cls-19" d="m949.58,1003.6c-2.46,0-4.9-1-6.67-2.97l-408.91-454.18c-3.32-3.68-3.02-9.36.66-12.68,3.69-3.31,9.36-3.02,12.68.66l408.91,454.18c3.32,3.68,3.02,9.36-.66,12.67-1.72,1.54-3.87,2.31-6.01,2.31Z"/>
  <path class="cls-22" d="m539.56,548.31c-2.46,0-4.9-1-6.67-2.97L123.98,91.17c-3.32-3.68-3.02-9.36.66-12.68,3.69-3.32,9.36-3.02,12.68.66l408.91,454.18c3.32,3.68,3.02,9.36-.66,12.68-1.72,1.54-3.87,2.31-6.01,2.31Z"/>
  <path class="cls-43" d="m994.62,958.33c-2.15,0-4.29-.76-6.01-2.31l-453.95-408.91c-3.68-3.32-3.98-8.99-.66-12.68,3.32-3.69,9.02-3.97,12.68-.66l453.95,408.91c3.68,3.32,3.98,8.99.66,12.68-1.77,1.97-4.22,2.97-6.67,2.97Z"/>
  <path class="cls-23" d="m540.44,549.2h-8.98l-.22-8.98c0-4.96,4.02-9.09,8.98-9.09,3.71,0,6.88,2.18,8.26,5.35.53,1.14.83,2.4.83,3.73,0,4.96-3.91,8.98-8.87,8.98Z"/>
  <path class="cls-47" d="m539.56,548.31c-2.14,0-4.29-.76-6-2.3L79.15,137.1c-3.69-3.31-3.99-8.99-.67-12.68,3.32-3.68,8.99-3.98,12.67-.67l454.4,408.91c3.69,3.31,3.99,8.99.67,12.68-1.77,1.97-4.21,2.97-6.67,2.97Z"/>
  <path class="cls-11" d="m1022.13,899.1c-1.83,0-3.68-.56-5.27-1.71l-481.47-349.67c-4.02-2.91-4.91-8.52-1.99-12.54,2.91-4.02,8.55-4.9,12.54-1.99l481.47,349.67c4.02,2.91,4.91,8.53,1.99,12.54-1.76,2.42-4.49,3.7-7.27,3.7Z"/>
  <path class="cls-45" d="m539.78,548.65c-2.63,0-5.01-1.1-6.65-2.88L52.6,196.7c-4.02-2.91-4.91-8.53-1.99-12.54,2.91-4.02,8.54-4.9,12.54-1.99l482.27,350.32,3.12,3.14.22,3.92c0,4.96-4.02,9.09-8.98,9.09Z"/>
  <path class="cls-33" d="m1028.11,830.54c-1.52,0-3.07-.39-4.48-1.2l-488.41-281.67-.8-.77c-3.56-3.45-3.77-9.24-.32-12.8,3.21-3.31,8.27-3.72,11.8-.99l486.7,280.68c4.29,2.48,5.77,7.97,3.29,12.26-1.66,2.88-4.68,4.49-7.78,4.49Z"/>
  <path class="cls-28" d="m539.77,548.76c-1.52,0-3.07-.39-4.48-1.2L47.39,266c-4.29-2.48-5.77-7.97-3.29-12.26,2.49-4.29,7.97-5.76,12.26-3.29l487.9,281.56c4.29,2.48,5.77,7.97,3.29,12.26-1.66,2.88-4.68,4.49-7.78,4.49Z"/>
  <path class="cls-52" d="m1028.11,766.2c-1.21,0-2.46-.25-3.64-.78l-493.01-219.36v-5.83c0-4.96,4.02-9.09,8.98-9.09,1.85,0,3.58.55,5.01,1.49l486.32,216.39c4.53,2.01,6.57,7.32,4.55,11.85-1.49,3.34-4.77,5.33-8.21,5.33Z"/>
  <path class="cls-51" d="m539.77,548.76c-1.22,0-2.46-.25-3.64-.78L48.23,330.77c-4.53-2.01-6.57-7.32-4.55-11.85,2.01-4.53,7.33-6.57,11.85-4.55l487.9,217.22c4.53,2.01,6.57,7.32,4.55,11.85-1.49,3.34-4.77,5.33-8.21,5.33Z"/>
  <path class="cls-6" d="m1028.12,707.4c-.92,0-1.85-.14-2.77-.44l-487.45-158.42c-4.71-1.53-7.3-6.6-5.77-11.31,1.54-4.71,6.6-7.3,11.31-5.76l487.45,158.42c4.71,1.53,7.3,6.6,5.77,11.31-1.24,3.79-4.75,6.2-8.54,6.2Z"/>
  <path class="cls-39" d="m539.78,548.76c-.92,0-1.85-.14-2.77-.44L49.11,389.9c-4.71-1.53-7.3-6.59-5.77-11.31,1.54-4.71,6.6-7.29,11.31-5.77l487.9,158.42c4.71,1.53,7.3,6.59,5.77,11.31-1.24,3.79-4.75,6.21-8.54,6.21Z"/>
  <path class="cls-57" d="m1028.13,652.59c-.62,0-1.24-.06-1.88-.2l-487.01-103.62c-4.85-1.03-7.94-5.8-6.91-10.65,1.03-4.85,5.77-7.96,10.65-6.91l487.01,103.62c4.85,1.03,7.94,5.8,6.91,10.65-.9,4.22-4.63,7.11-8.77,7.11Z"/>
  <path class="cls-26" d="m539.79,548.76c-.62,0-1.24-.06-1.88-.2L50.01,444.72c-4.85-1.03-7.94-5.8-6.91-10.65s5.77-7.95,10.65-6.91l487.9,103.84c4.85,1.03,7.94,5.8,6.91,10.65-.9,4.22-4.63,7.11-8.77,7.11Z"/>
  <path class="cls-50" d="m1028.13,600.23c-.31,0-.63-.02-.95-.05l-487.01-51.25c-4.93-.52-8.5-4.94-7.99-9.87.52-4.93,4.79-8.53,9.87-7.99l487.01,51.25c4.93.52,8.5,4.94,7.99,9.87-.49,4.61-4.38,8.04-8.92,8.04Z"/>
  <path class="cls-1" d="m540,548.76l-1.16-.05-487.9-51.25c-4.93-.52-8.5-4.93-7.99-9.87.51-4.92,4.79-8.52,9.87-7.99l487.79,51.24c4.58.42,8.26,4.26,8.26,8.94,0,4.96-3.91,8.98-8.87,8.98Z"/>
  <path class="cls-16" d="m1028.12,548.98h-487.01c-4.96,0-9.42-4.02-9.42-8.98s3.57-8.98,8.53-8.98h487.9c4.96,0,8.98,4.02,8.98,8.98s-4.02,8.98-8.98,8.98Z"/>
  <path class="cls-61" d="m539.11,548.98H51.88c-4.96,0-8.98-4.02-8.98-8.98s4.02-8.98,8.98-8.98h487.23c4.96,0,8.98,4.02,8.98,8.98s-4.02,8.98-8.98,8.98Z"/>
  <path class="cls-17" d="m540.43,548.76c-4.54,0-8.43-3.43-8.92-8.04-.51-4.93,3.06-9.35,7.99-9.87l487.68-51.25c5.04-.53,9.35,3.06,9.87,7.99.51,4.93-3.06,9.35-7.99,9.87l-487.68,51.25c-.32.03-.64.05-.95.05Z"/>
  <path class="cls-27" d="m51.87,600.23c-4.54,0-8.43-3.43-8.92-8.04-.51-4.93,3.06-9.35,7.99-9.87l487.23-51.25c5.04-.52,9.35,3.06,9.87,7.99.51,4.93-3.06,9.35-7.99,9.87l-487.23,51.25c-.32.03-.64.05-.95.05Z"/>
  <path class="cls-44" d="m540.43,548.76c-4.15,0-7.88-2.89-8.77-7.11-1.03-4.85,2.07-9.62,6.91-10.65l487.68-103.62c4.86-1.02,9.62,2.06,10.65,6.91s-2.07,9.62-6.91,10.65l-487.68,103.62c-.63.13-1.26.2-1.88.2Z"/>
  <path class="cls-40" d="m51.87,652.82c-4.15,0-7.88-2.89-8.77-7.11-1.03-4.85,2.06-9.62,6.91-10.65l488.15-104.03h.95c4.96,0,9.2,4.02,9.2,8.98s-3.5,8.66-8.16,8.96l-486.4,103.66c-.63.13-1.26.2-1.88.2Z"/>
  <path class="cls-2" d="m540.44,548.76c-3.79,0-7.3-2.41-8.54-6.21-1.53-4.71,1.05-9.78,5.77-11.31l487.68-158.42c4.71-1.53,9.77,1.05,11.31,5.76,1.53,4.71-1.05,9.78-5.77,11.31l-487.68,158.42c-.92.3-1.85.44-2.77.44Z"/>
  <path class="cls-64" d="m51.88,707.4c-3.79,0-7.3-2.41-8.54-6.21-1.53-4.71,1.05-9.78,5.77-11.31l487.68-158.42c4.7-1.54,9.77,1.05,11.31,5.76,1.53,4.71-1.05,9.78-5.77,11.31L54.65,706.96c-.92.3-1.85.44-2.77.44Z"/>
  <path class="cls-12" d="m540.68,548.54c-3.44,0-6.72-1.99-8.21-5.33-2.01-4.53.02-9.84,4.55-11.85l487.45-216.99c4.52-2.02,9.84.02,11.85,4.55,2.01,4.53-.02,9.84-4.55,11.85l-487.45,216.99c-1.18.53-2.42.78-3.64.78Z"/>
  <path class="cls-56" d="m51.89,766.2c-3.44,0-6.72-1.99-8.21-5.33-2.01-4.53.02-9.83,4.54-11.85l487.68-217.22c4.56-2.01,9.85.02,11.85,4.55,2.01,4.53-.02,9.83-4.54,11.85L55.53,765.42c-1.19.53-2.43.78-3.65.78Z"/>
  <path class="cls-25" d="m540.68,548.31c-3.1,0-6.12-1.61-7.78-4.49-2.48-4.29-1.01-9.78,3.29-12.26l487.45-281.11c4.29-2.47,9.78-1.01,12.26,3.29,2.48,4.29,1.01,9.78-3.29,12.26l-487.45,281.11c-1.41.81-2.96,1.2-4.48,1.2Z"/>
  <path class="cls-55" d="m51.89,830.54c-3.1,0-6.12-1.61-7.78-4.49-2.48-4.29-1.01-9.78,3.29-12.26l489.76-282.76h2.4c4.96,0,9.09,4.02,9.09,8.98,0,3.81-2.32,7.07-5.63,8.37L56.37,829.33c-1.41.82-2.96,1.21-4.48,1.21Z"/>
  <path class="cls-24" d="m540.68,548.31c-2.78,0-5.52-1.29-7.27-3.7-2.91-4.01-2.02-9.62,1.99-12.54l481.47-349.67c3.99-2.92,9.62-2.02,12.54,1.99,2.91,4.01,2.02,9.62-1.99,12.54l-481.47,349.67c-1.59,1.16-3.43,1.72-5.27,1.72Z"/>
  <path class="cls-31" d="m57.88,899.32c-2.77,0-5.52-1.28-7.27-3.7-2.92-4.01-2.03-9.63,1.99-12.54l481.91-350.12c3.99-2.91,9.62-2.03,12.53,1.99,2.92,4.01,2.03,9.62-1.99,12.54L63.15,897.6c-1.59,1.16-3.43,1.71-5.27,1.71Z"/>
  <path class="cls-7" d="m540.44,548.76c-4.96,0-9.09-4.02-9.09-8.98,0-.49.04-.97.11-1.43v-7.55l5.42-.13L988.84,123.97c3.68-3.32,9.35-3.02,12.67.67,3.32,3.69,3.02,9.36-.67,12.68l-451.2,406.02-.23,5.2-8.98.22Z"/>
  <path class="cls-18" d="m85.38,958.33c-2.46,0-4.9-1-6.67-2.97-3.32-3.68-3.02-9.36.66-12.67l454-408.69,1.21-.81c4.14-2.74,9.7-1.62,12.44,2.51,2.75,4.13,1.63,9.7-2.5,12.44l-.13.08L91.39,956.03c-1.72,1.54-3.87,2.31-6.01,2.31Z"/>
  <path class="cls-4" d="m540.67,548.31c-2.14,0-4.29-.76-6-2.3-3.69-3.31-3.99-8.99-.67-12.68L942.68,79.16c3.32-3.69,8.99-3.98,12.67-.67,3.69,3.31,3.99,8.99.67,12.68l-408.68,454.18c-1.77,1.97-4.21,2.97-6.67,2.97Z"/>
  <path class="cls-58" d="m130.42,1003.6c-2.14,0-4.29-.76-6.01-2.31-3.68-3.32-3.98-8.99-.66-12.68l409.69-454.74c3.5-3.5,9.19-3.49,12.69.01,3.5,3.51,3.49,9.19-.01,12.69l-.89.89-408.14,453.16c-1.77,1.97-4.22,2.97-6.67,2.97Z"/>
  <path class="cls-8" d="m540.44,548.53c-4.96,0-9.09-4.02-9.09-8.98,0-2.64,1.11-5.01,2.9-6.66L883.07,52.6c2.91-4.01,8.54-4.91,12.54-1.99,4.02,2.91,4.91,8.52,1.99,12.54l-350.12,482.08-3.16,3.08-3.88.22Z"/>
  <path class="cls-36" d="m189.65,1031.11c-1.83,0-3.68-.56-5.27-1.71-4.01-2.92-4.9-8.53-1.98-12.54l349.9-481.47c2.9-4.02,8.52-4.9,12.54-1.99,4.01,2.92,4.9,8.53,1.98,12.54l-349.9,481.47c-1.75,2.42-4.49,3.7-7.27,3.7Z"/>
  <path class="cls-30" d="m540.43,547.87c-1.52,0-3.07-.39-4.49-1.2-4.29-2.48-5.76-7.97-3.28-12.26L814.01,47.39c2.48-4.29,7.96-5.76,12.27-3.28,4.29,2.48,5.76,7.97,3.28,12.26l-281.34,487.01c-1.66,2.88-4.68,4.49-7.78,4.49Z"/>
  <path class="cls-5" d="m540.22,548.76c-4.96,0-9.09-4.02-9.09-8.98s3.91-8.98,8.87-8.98h.22c4.96,0,8.98,4.02,8.98,8.98s-4.02,8.98-8.98,8.98Z"/>
  <path class="cls-29" d="m539.78,549.09c-4.96,0-8.98-3.91-8.98-8.87v-9.2h8.98c4.96,0,9.09,4.02,9.09,8.98,0,3.69-2.16,6.86-5.31,8.24-1.15.55-2.43.85-3.78.85Z"/>
  <path class="cls-9" d="m258.21,1037.1c-1.52,0-3.07-.39-4.48-1.21-4.29-2.48-5.77-7.97-3.29-12.26l281.34-487.46c2.48-4.29,7.98-5.76,12.26-3.29,4.29,2.48,5.77,7.97,3.29,12.26l-281.34,487.45c-1.66,2.88-4.68,4.49-7.78,4.49Z"/>
  <path class="cls-37" d="m540.43,547.87c-1.22,0-2.46-.25-3.64-.78-4.53-2.01-6.57-7.32-4.55-11.85L749.01,48.23c2.01-4.53,7.33-6.57,11.85-4.55,4.53,2.01,6.57,7.32,4.55,11.85l-216.77,487.01c-1.49,3.34-4.77,5.33-8.21,5.33Z"/>
  <path class="cls-32" d="m540.22,548.53c-4.96,0-9.09-4.02-9.09-8.98s3.91-8.98,8.87-8.98h.22c4.96,0,8.98,4.02,8.98,8.98s-4.02,8.98-8.98,8.98Z"/>
  <path class="cls-63" d="m322.55,1037.1c-1.22,0-2.46-.25-3.64-.78-4.53-2.01-6.57-7.32-4.55-11.85l217.38-488.25,2.48-4.97h5.56c4.96,0,9.09,4.02,9.09,8.98,0,1.87-.56,3.61-1.52,5.05l-216.59,486.5c-1.49,3.34-4.77,5.33-8.21,5.33Z"/>
  <path class="cls-42" d="m540.22,548.98c-4.96,0-9.09-4.02-9.09-8.98,0-.49.04-.97.11-1.43v-.04c.1-.52.22-1.02.39-1.51l.07-.28L690.1,49.11c1.54-4.72,6.6-7.3,11.31-5.76,4.71,1.53,7.3,6.59,5.77,11.31l-157.98,486.34v7.54l-8.98.44Z"/>
  <path class="cls-60" d="m381.58,1037.1c-.92,0-1.85-.14-2.77-.44-4.71-1.53-7.3-6.6-5.77-11.31l158.2-487.23c1.54-4.71,6.61-7.29,11.31-5.77,4.71,1.53,7.3,6.59,5.77,11.31l-158.2,487.23c-1.24,3.79-4.75,6.21-8.54,6.21Z"/>
  <path class="cls-34" d="m540.01,548.31c-.62,0-1.24-.06-1.88-.2-4.85-1.03-7.94-5.8-6.91-10.65l103.62-487.46c1.03-4.85,5.75-7.94,10.65-6.91,4.85,1.03,7.94,5.8,6.91,10.65l-103.62,487.46c-.9,4.22-4.63,7.11-8.77,7.11Z"/>
  <path class="cls-15" d="m436.17,1037.1c-.62,0-1.24-.07-1.88-.2-4.85-1.03-7.94-5.8-6.91-10.65l103.62-487.23c1.03-4.85,5.77-7.93,10.65-6.91,4.85,1.03,7.94,5.8,6.91,10.65l-103.62,487.23c-.9,4.22-4.63,7.11-8.77,7.11Z"/>
  <path class="cls-54" d="m488.77,1037.1c-.32,0-.63-.01-.95-.05-4.93-.52-8.51-4.93-7.99-9.86l51.27-488.99,51.23-487.26c.51-4.93,4.74-8.52,9.87-7.99,4.93.52,8.5,4.94,7.99,9.87l-51.2,487.41v2.1l-.43.95-50.87,485.78c-.49,4.61-4.38,8.04-8.91,8.04Z"/>
</svg>