<?xml version="1.0" encoding="UTF-8"?>
<svg id="Layer_1" data-name="Layer 1" xmlns="http://www.w3.org/2000/svg" xmlns:xlink="http://www.w3.org/1999/xlink" viewBox="0 0 1080 1080">
  <defs>
    <style>
      .cls-1 {
        fill: url(#New_Gradient_Swatch_2-2);
      }

      .cls-2 {
        fill: url(#New_Gradient_Swatch_2-4);
      }

      .cls-3 {
        fill: url(#New_Gradient_Swatch_2);
      }

      .cls-4 {
        fill: url(#New_Gradient_Swatch_2-3);
      }
    </style>
    <linearGradient id="New_Gradient_Swatch_2" data-name="New Gradient Swatch 2" x1="46.49" y1="771.69" x2="570.13" y2="771.69" gradientUnits="userSpaceOnUse">
      <stop offset="0" stop-color="#caf1b8"/>
      <stop offset="1" stop-color="#9bcbed"/>
      <stop offset="1" stop-color="#98c9f0"/>
    </linearGradient>
    <linearGradient id="New_Gradient_Swatch_2-2" data-name="New Gradient Swatch 2" x1="509.86" y1="308.31" x2="1033.51" y2="308.31" xlink:href="#New_Gradient_Swatch_2"/>
    <linearGradient id="New_Gradient_Swatch_2-3" data-name="New Gradient Swatch 2" x1="46.49" y1="308.31" y2="308.31" xlink:href="#New_Gradient_Swatch_2"/>
    <linearGradient id="New_Gradient_Swatch_2-4" data-name="New Gradient Swatch 2" x1="509.86" y1="771.69" x2="1033.51" y2="771.69" xlink:href="#New_Gradient_Swatch_2"/>
  </defs>
  <path class="cls-3" d="m168.58,1033.51c-37.93,0-68.64-10.43-90.15-31.94-74.64-74.64-15.92-260.28,149.58-472.94l14.61-18.77,14.61,18.77c44.93,57.72,89.93,108.93,137.57,156.57,47.68,47.67,98.89,92.67,156.57,137.57l18.77,14.61-18.77,14.61c-151.38,117.82-289.08,181.53-382.79,181.53Zm74.25-463.34c-138.2,183.49-195.02,348.42-138.23,405.22,56.82,56.8,221.74-.03,405.22-138.23-51.33-40.97-97.69-82.27-141.21-125.79-43.49-43.49-84.8-89.85-125.79-141.21Z"/>
  <path class="cls-1" d="m837.37,570.14l-14.61-18.77c-44.9-57.69-89.9-108.9-137.57-156.57-47.68-47.67-98.89-92.67-156.57-137.56l-18.77-14.61,18.77-14.61C741.3,62.51,926.93,3.78,1001.57,78.43c74.64,74.64,15.92,260.28-149.59,472.94l-14.61,18.77Zm-267.21-327.3c51.33,40.97,97.69,82.27,141.21,125.78,43.51,43.51,84.82,89.87,125.79,141.21,138.21-183.49,195.03-348.42,138.23-405.22-56.81-56.81-221.74.02-405.23,138.23Z"/>
  <path class="cls-4" d="m242.62,570.14l-14.61-18.77C62.51,338.71,3.79,153.07,78.42,78.43,153.06,3.79,338.71,62.51,551.37,228.02l18.77,14.61-18.77,14.61c-57.68,44.9-108.9,89.89-156.57,137.56-47.66,47.66-92.66,98.88-137.57,156.57l-14.61,18.77ZM169.1,82.78c-27.74,0-49.75,7.08-64.49,21.82-56.79,56.8.03,221.74,138.23,405.22,40.97-51.34,82.28-97.7,125.79-141.21,43.51-43.51,89.87-84.82,141.21-125.78C373.96,140.5,248.26,82.78,169.1,82.78Z"/>
  <path class="cls-2" d="m911.42,1033.51c-93.7,0-231.39-63.7-382.8-181.53l-18.77-14.61,18.77-14.61c57.68-44.9,108.9-89.9,156.57-137.57h0c47.65-47.64,92.65-98.86,137.57-156.57l14.61-18.77,14.61,18.77c165.52,212.67,224.23,398.31,149.59,472.94-21.5,21.5-52.23,31.94-90.15,31.94Zm-341.26-196.35c183.5,138.21,348.44,195.02,405.22,138.23,56.8-56.8-.02-221.73-138.23-405.22-40.98,51.36-82.29,97.71-125.79,141.21-43.51,43.52-89.87,84.82-141.21,125.79Z"/>
</svg>