<?xml version="1.0" encoding="UTF-8"?>
<svg id="Layer_1" data-name="Layer 1" xmlns="http://www.w3.org/2000/svg" xmlns:xlink="http://www.w3.org/1999/xlink" viewBox="0 0 1080 1080">
  <defs>
    <style>
      .cls-1 {
        fill: url(#New_Gradient_Swatch_2);
        opacity: .9;
      }

      .cls-2 {
        fill: url(#New_Gradient_Swatch_2-3);
      }

      .cls-3 {
        fill: url(#New_Gradient_Swatch_2-2);
        opacity: .5;
      }
    </style>
    <linearGradient id="New_Gradient_Swatch_2" data-name="New Gradient Swatch 2" x1="321.11" y1="-5.34" x2="733.73" y2="516.84" gradientUnits="userSpaceOnUse">
      <stop offset="0" stop-color="#caf1b8"/>
      <stop offset="1" stop-color="#9bcbed"/>
      <stop offset="1" stop-color="#98c9f0"/>
    </linearGradient>
    <linearGradient id="New_Gradient_Swatch_2-2" data-name="New Gradient Swatch 2" x1="89.69" y1="843.18" x2="586.73" y2="471.08" xlink:href="#New_Gradient_Swatch_2"/>
    <linearGradient id="New_Gradient_Swatch_2-3" data-name="New Gradient Swatch 2" x1="1042.02" y1="176.61" x2="558.36" y2="1022.67" xlink:href="#New_Gradient_Swatch_2"/>
  </defs>
  <path class="cls-1" d="m102.47,271.7L536.33,16.49c2.27-1.34,5.09-1.37,7.39-.08l433.67,242.34c5.01,2.8,5.09,9.98.14,12.89l-433.86,255.21c-2.27,1.34-5.09,1.37-7.39.08L102.61,284.59c-5.01-2.8-5.09-9.98-.14-12.89Z"/>
  <path class="cls-3" d="m91.3,290.93v510.96c0,2.63,1.39,5.07,3.66,6.4l433.84,255.2c4.95,2.91,11.2-.66,11.2-6.4v-523.72c0-2.69-1.46-5.17-3.81-6.49L102.36,284.45c-4.95-2.77-11.06.81-11.06,6.49Z"/>
  <path class="cls-2" d="m543.66,526.86l433.84-255.2c4.95-2.91,11.2.66,11.2,6.4v513.36c0,2.59-1.35,4.99-3.55,6.34l-433.84,265.41c-4.95,3.03-11.31-.53-11.31-6.34v-523.57c0-2.63,1.39-5.07,3.66-6.4Z"/>
</svg>