<?xml version="1.0" encoding="UTF-8"?>
<svg id="Layer_1" data-name="Layer 1" xmlns="http://www.w3.org/2000/svg" xmlns:xlink="http://www.w3.org/1999/xlink" viewBox="0 0 1080 1080">
  <defs>
    <style>
      .cls-1 {
        fill: url(#New_Gradient_Swatch_2);
      }
    </style>
    <linearGradient id="New_Gradient_Swatch_2" data-name="New Gradient Swatch 2" x1="42.87" y1="540" x2="1037.13" y2="540" gradientUnits="userSpaceOnUse">
      <stop offset="0" stop-color="#caf1b8"/>
      <stop offset="1" stop-color="#9bcbed"/>
      <stop offset="1" stop-color="#98c9f0"/>
    </linearGradient>
  </defs>
  <path class="cls-1" d="m565.86,28.62c-.18-.19-.35-.37-.53-.55l-12.74-13.22-12.74,13.22c-.17.16-.32.33-.49.5L66.11,519.54l-3.69,1.22c-6.96,2.31-11.55,8.46-12.25,15.31l-7.3,7.57,496.77,502.21c.06.07.13.13.2.2l18.89,19.09,9.31-22.1,469.08-525.52L565.86,28.62Zm175.02,562.94l-27.3-88.74,212.78,25.5-185.48,63.24Zm-381.5-131.18l314.99,37.74,29.42,95.65-563.78-60.69,219.37-72.7Zm607.67,36.46l-265.08-31.76-109.9-357.24,374.98,389.01Zm-304.29-36.46l-268.37-32.16,156.67-330.96,111.7,363.12Zm-169.83-331.61l-139.44,294.57c-6.16-.65-11.91,1.81-15.65,6.16l-198.06,65.64L492.92,128.76Zm53.52,872.63L116.6,566.86l586.43,63.13-156.59,371.41Zm196.14-372.28l210.7-71.84-341.92,383.05,131.22-311.21Z"/>
</svg>