<?xml version="1.0" encoding="UTF-8"?>
<svg id="Layer_2" data-name="Layer 2" xmlns="http://www.w3.org/2000/svg" xmlns:xlink="http://www.w3.org/1999/xlink" viewBox="0 0 1080 1080">
  <defs>
    <style>
      .cls-1 {
        fill: url(#New_Gradient_Swatch_2);
      }
    </style>
    <linearGradient id="New_Gradient_Swatch_2" data-name="New Gradient Swatch 2" x1="62.72" y1="540" x2="1017.28" y2="540" gradientUnits="userSpaceOnUse">
      <stop offset="0" stop-color="#caf1b8"/>
      <stop offset="1" stop-color="#9bcbed"/>
      <stop offset="1" stop-color="#98c9f0"/>
    </linearGradient>
  </defs>
  <path class="cls-1" d="m1016.41,167.69c-2.96-26.67-13.24-47.13-30.54-60.84l-2.29-1.56c-6.85-3.98-14.01-6.72-21.35-8.46l-122.46-66.96c-17.29-9.4-38.62-12.45-63.42-9.07C595.5,33.31,212.61,466.07,98.66,739.94c-43.97,105.69-47.61,182.37-10.84,228.01,4.16,7.75,19.62,16.55,110.14,65.06,17.62,9.44,37.28,19.98,44.01,23.8,1.38.93,2.77,1.83,4.29,2.66l2.47-3.83c.75.29,1.45.55,1.93.69,1.92.65,3.89,1.2,5.49,1.59,6.67,1.85,13.07,2.29,18.54,2.56l.89.02h1.05c2.45,0,4.94-.03,7.43-.17l.85-.07c109.21-11.24,280.78-145.27,458.94-358.52l.2-.25c177.14-219.37,284.05-428.9,272.37-533.82ZM117.74,946.15c-28.58-33.36-23.42-99.71,14.95-191.93C250.5,471.08,625.21,67.51,779.38,57.74l1.4-.14c17.11-2.4,31.07-.77,41.4,4.86l72.7,39.75c-162.84,43.85-345.22,249.53-419,339.83-148.46,181.71-257.28,378.92-270.78,490.6-1.94,15.09-3.26,30.81-2.49,46.15.08,5.22.41,10.33,1.06,15.3-31.6-16.95-76.75-41.35-85.93-47.92ZM821.82,173.83c-58.87,209.7-368.36,601.36-572.07,723.66,29.6-109.29,126.92-275.63,254.63-431.94,111.07-135.95,222.95-237.94,317.44-291.71Zm-107.62,503.39c-169.03,202.29-334.78,334.3-432.8,344.73-1.78.08-3.55.08-5.26.09-3.43-.17-6.98-.43-10.21-1.32-.98-.25-1.92-.48-3.49-1.03l-.93-.36c-.81-.29-1.59-.65-1.76-.72l-.88-.43c-14.66-9.05-22.25-25.11-14.96-73.36,222.04-114.58,577.64-565.6,621.57-788.07,26.18-12.91,52.13-23.46,73.64-23.92,4.64.27,8.4.82,11.89,1.79,1.29.34,2.54.69,4.31,1.31,1.4.44,3.08,1.21,4.7,1.99.51.25,1.04.49,1.63.75l.58-1.19c.27.14.55.26.82.4,8.43,7.24,13.39,18.39,15.13,34.05,10.27,92.28-98.27,300.03-263.97,505.27Z"/>
</svg>