<?xml version="1.0" encoding="UTF-8"?>
<svg id="Layer_2" data-name="Layer 2" xmlns="http://www.w3.org/2000/svg" xmlns:xlink="http://www.w3.org/1999/xlink" viewBox="0 0 1080 1080">
  <defs>
    <style>
      .cls-1 {
        fill: url(#New_Gradient_Swatch_2);
      }
    </style>
    <linearGradient id="New_Gradient_Swatch_2" data-name="New Gradient Swatch 2" x1="-4318.28" y1="7928.99" x2="-5049.65" y2="7197.63" gradientTransform="translate(-5611.03 6967.01) rotate(-168.03)" gradientUnits="userSpaceOnUse">
      <stop offset="0" stop-color="#caf1b8"/>
      <stop offset="1" stop-color="#9bcbed"/>
      <stop offset="1" stop-color="#98c9f0"/>
    </linearGradient>
  </defs>
  <path class="cls-1" d="m536.69,1062c-34.95,0-70.1-3.65-105.03-11.06-196.94-41.77-351.35-198.48-393.38-399.27h0c-15.06-72.05-14.87-145.42.53-218.08,15.4-72.62,45.01-139.73,88.01-199.46C246.73,67.7,451.44-12.88,648.39,28.88c276.37,58.61,452.61,335.53,392.86,617.29-28.89,136.21-108.21,253.37-223.36,329.91-85.19,56.62-182.33,85.92-281.2,85.92ZM86.39,641.6c38.04,181.73,177.57,323.52,355.46,361.25,120.75,25.62,244.61,1.56,348.83-67.71,104.38-69.37,176.28-175.62,202.48-299.17,54.13-255.25-105.11-506.02-354.96-559.01-177.91-37.74-362.97,35.24-471.5,185.88-38.98,54.15-65.83,115.03-79.81,180.93-13.99,65.95-14.16,132.5-.51,197.82h0Z"/>
</svg>