<?xml version="1.0" encoding="UTF-8"?>
<svg id="Layer_2" data-name="Layer 2" xmlns="http://www.w3.org/2000/svg" xmlns:xlink="http://www.w3.org/1999/xlink" viewBox="0 0 1080 1080">
  <defs>
    <style>
      .cls-1 {
        fill: url(#New_Gradient_Swatch_2-2);
      }

      .cls-2 {
        fill: url(#New_Gradient_Swatch_2-4);
      }

      .cls-3 {
        fill: url(#New_Gradient_Swatch_2);
      }

      .cls-4 {
        fill: url(#New_Gradient_Swatch_2-3);
      }
    </style>
    <linearGradient id="New_Gradient_Swatch_2" data-name="New Gradient Swatch 2" x1="17" y1="785.53" x2="571.94" y2="785.53" gradientUnits="userSpaceOnUse">
      <stop offset="0" stop-color="#caf1b8"/>
      <stop offset="1" stop-color="#9bcbed"/>
      <stop offset="1" stop-color="#98c9f0"/>
    </linearGradient>
    <linearGradient id="New_Gradient_Swatch_2-2" data-name="New Gradient Swatch 2" x1="508.06" y1="294.47" x2="1063" y2="294.47" xlink:href="#New_Gradient_Swatch_2"/>
    <linearGradient id="New_Gradient_Swatch_2-3" data-name="New Gradient Swatch 2" x1="17" y1="294.46" y2="294.46" xlink:href="#New_Gradient_Swatch_2"/>
    <linearGradient id="New_Gradient_Swatch_2-4" data-name="New Gradient Swatch 2" x1="508.06" y1="785.53" x2="1063" y2="785.53" xlink:href="#New_Gradient_Swatch_2"/>
  </defs>
  <path class="cls-3" d="m146.38,1063c-40.2,0-72.74-11.05-95.53-33.85-79.1-79.1-16.87-275.83,158.53-501.21l15.48-19.89,15.48,19.89c47.6,61.16,95.29,115.43,145.79,165.92,50.52,50.51,104.8,98.21,165.92,145.79l19.89,15.48-19.89,15.48c-160.43,124.86-306.36,192.38-405.66,192.38Zm78.7-491.03C78.63,766.41,18.4,941.22,78.58,1001.42c60.18,60.18,234.97,0,429.43-146.49-54.4-43.42-103.53-87.2-149.64-133.31-46.1-46.09-89.87-95.22-133.3-149.64Z"/>
  <path class="cls-1" d="m855.15,571.94l-15.48-19.89c-47.62-61.17-95.32-115.45-145.79-165.93-50.54-50.53-104.82-98.21-165.92-145.78l-19.89-15.48,19.89-15.48C753.32,33.97,950.07-28.24,1029.15,50.85c79.1,79.1,16.88,275.82-158.52,501.2l-15.48,19.89Zm-283.17-346.85c54.38,43.39,103.51,87.17,149.64,133.3,46.08,46.08,89.86,95.21,133.31,149.65,146.47-194.46,206.68-369.25,146.48-429.44-60.2-60.2-234.97.03-429.43,146.5Z"/>
  <path class="cls-4" d="m224.85,571.94l-15.48-19.89C33.98,326.68-28.25,129.95,50.85,50.85c79.11-79.12,275.84-16.87,501.2,158.54l19.89,15.48-19.89,15.48c-61.07,47.54-115.35,95.22-165.92,145.78-50.52,50.53-98.21,104.81-145.79,165.92l-15.48,19.89ZM146.93,55.46c-29.4,0-52.72,7.51-68.35,23.13-60.18,60.2.03,234.99,146.49,429.43,43.41-54.39,87.19-103.52,133.3-149.64,46.15-46.15,95.29-89.92,149.64-133.3C364.03,116.63,230.82,55.46,146.93,55.46Z"/>
  <path class="cls-2" d="m933.62,1063.01c-99.3,0-245.22-67.51-405.66-192.38l-19.89-15.48,19.89-15.48c61.16-47.61,115.43-95.3,165.92-145.79h0c50.46-50.45,98.15-104.72,145.79-165.93l15.48-19.89,15.48,19.89c175.4,225.37,237.63,422.11,158.52,501.21-22.78,22.79-55.35,33.85-95.53,33.85Zm-361.64-208.09c194.47,146.48,369.24,206.68,429.43,146.49,60.19-60.19-.02-234.98-146.48-429.44-43.46,54.45-87.25,103.59-133.31,149.64-46.08,46.09-95.22,89.87-149.64,133.31Z"/>
</svg>