<?xml version="1.0" encoding="UTF-8"?>
<svg id="Layer_2" data-name="Layer 2" xmlns="http://www.w3.org/2000/svg" xmlns:xlink="http://www.w3.org/1999/xlink" viewBox="0 0 1080 1080">
  <defs>
    <style>
      .cls-1 {
        fill: url(#New_Gradient_Swatch_2-2);
      }

      .cls-2 {
        fill: url(#New_Gradient_Swatch_2);
      }

      .cls-3 {
        fill: url(#New_Gradient_Swatch_2-3);
      }
    </style>
    <linearGradient id="New_Gradient_Swatch_2" data-name="New Gradient Swatch 2" x1="514.38" y1="423.95" x2="1063" y2="423.95" gradientUnits="userSpaceOnUse">
      <stop offset="0" stop-color="#caf1b8"/>
      <stop offset="1" stop-color="#9bcbed"/>
      <stop offset="1" stop-color="#98c9f0"/>
    </linearGradient>
    <linearGradient id="New_Gradient_Swatch_2-2" data-name="New Gradient Swatch 2" x1="17" y1="473.69" x2="698.26" y2="473.69" xlink:href="#New_Gradient_Swatch_2"/>
    <linearGradient id="New_Gradient_Swatch_2-3" data-name="New Gradient Swatch 2" x1="381.74" y1="788.69" x2="930.36" y2="788.69" xlink:href="#New_Gradient_Swatch_2"/>
  </defs>
  <path class="cls-2" d="m904.74,698.26l-390.36-390.37,158.25-158.26,390.37,390.37-158.26,158.26Zm-339.11-390.37l339.11,339.12,107.01-107.01-339.12-339.12-107,107.01Z"/>
  <path class="cls-1" d="m407.37,930.37L17,540,540,17l158.25,158.25-364.74,364.74,232.11,232.11-158.26,158.26ZM68.25,540l339.12,339.12,107.01-107.01-232.11-232.11,364.74-364.74-107-107L68.25,540Z"/>
  <path class="cls-3" d="m540,1063l-158.26-158.25,390.37-390.37,158.25,158.26-390.36,390.36Zm-107.01-158.25l107.01,107,339.11-339.11-107-107.01-339.12,339.12Z"/>
</svg>