<?xml version="1.0" encoding="UTF-8"?>
<svg id="Layer_2" data-name="Layer 2" xmlns="http://www.w3.org/2000/svg" xmlns:xlink="http://www.w3.org/1999/xlink" viewBox="0 0 1026.25 304.21">
  <defs>
    <style>
      .cls-1 {
        fill: #fff;
      }

      .cls-2 {
        fill: url(#New_Gradient_Swatch_2);
      }
    </style>
    <linearGradient id="New_Gradient_Swatch_2" data-name="New Gradient Swatch 2" x1="76.04" y1="283.85" x2="228.17" y2="20.36" gradientUnits="userSpaceOnUse">
      <stop offset="0" stop-color="#caf1b8"/>
      <stop offset="1" stop-color="#9bcbed"/>
      <stop offset="1" stop-color="#98c9f0"/>
    </linearGradient>
  </defs>
  <g id="Layer_1-2" data-name="Layer 1">
    <g>
      <g>
        <path class="cls-1" d="m459.82,151.73s24.86-3.59,24.86-34.4c0-12.32-5.06-21.01-11.13-27-7.9-7.79-18.71-11.91-29.81-11.91h-64.45v156.45h71.34c8.06,0,16.03-2,22.97-6.09,9.5-5.61,17.19-16.23,18.37-36.06,2.32-39.17-32.15-40.99-32.15-40.99Zm-58.64-54.33l27.62-.2c8.46,0,15.3.4,22.54,4.64,6.16,3.6,11.78,13.11,10.61,21.23-.07.45-.14.89-.22,1.33-2.22,11.89-10.81,19.53-24.99,20.33l-35.56.2v-47.53Zm69.2,93.78c-1.25,17.38-13.24,25.06-27.9,25.27h-41.3l.2-52.15h40.17c7.16-.4,12.39,1.48,14.17,2.25,7.92,3.4,14.45,9.76,14.85,21.02.06,1.61-.16,3.14-.19,3.61Z"/>
        <g>
          <path class="cls-1" d="m518.63,104.58c3.84,0,7.15-1.3,9.92-3.91,2.78-2.6,4.16-5.72,4.16-9.36s-1.39-6.85-4.16-9.46c-2.78-2.61-6.08-3.91-9.92-3.91s-7.23,1.3-9.97,3.91c-2.74,2.61-4.11,5.76-4.11,9.46s1.37,6.75,4.11,9.36c2.74,2.61,6.07,3.91,9.97,3.91Z"/>
          <rect class="cls-1" x="507.42" y="119.12" width="22.21" height="114.96"/>
        </g>
        <path class="cls-1" d="m546.56,233.82v-114.96h21.49v18.41h1.23c2.12-6.17,5.84-11.05,11.16-14.65,5.31-3.6,11.33-5.4,18.05-5.4,1.37,0,3,.05,4.88.15,1.89.1,3.41.22,4.58.36v21.39c-.89-.27-2.49-.55-4.78-.82-2.3-.27-4.61-.41-6.94-.41-5.28,0-9.99,1.12-14.14,3.34-4.15,2.23-7.4,5.28-9.77,9.15-2.37,3.87-3.55,8.35-3.55,13.42v70.03h-22.21Z"/>
        <path class="cls-1" d="m657.26,236.71c-11.04,0-20.57-2.54-28.59-7.61-8.02-5.07-14.19-12.06-18.51-20.98-4.32-8.91-6.48-19.13-6.48-30.64s2.21-22.06,6.63-31c4.42-8.95,10.62-15.94,18.61-20.98,7.98-5.04,17.36-7.56,28.12-7.56,8.77,0,16.57,1.59,23.39,4.78,6.82,3.19,12.34,7.7,16.56,13.52,4.22,5.83,6.7,12.61,7.45,20.36h-21.8c-.75-3.63-2.21-6.96-4.37-9.97-2.16-3.02-4.99-5.41-8.48-7.2-3.5-1.78-7.64-2.67-12.44-2.67-6.24,0-11.67,1.63-16.3,4.88-4.63,3.26-8.24,7.9-10.85,13.93-2.61,6.03-3.91,13.16-3.91,21.39s1.27,15.53,3.8,21.7c2.54,6.17,6.15,10.92,10.85,14.24,4.69,3.33,10.16,4.99,16.4,4.99s11.94-1.78,16.5-5.35c4.56-3.56,7.49-8.43,8.79-14.6h21.8c-.75,7.47-3.15,14.12-7.2,19.95-4.04,5.83-9.46,10.42-16.25,13.78-6.79,3.36-14.7,5.04-23.75,5.04Z"/>
        <path class="cls-1" d="m737.68,77.24v156.85h-22.21V77.24h22.21Z"/>
        <path class="cls-1" d="m855.17,175.37c0-10.35-1.42-19.19-4.27-26.53-2.85-7.33-6.7-13.3-11.57-17.89-4.87-4.59-10.35-7.95-16.45-10.08-6.1-2.12-12.41-3.19-18.92-3.19-10.69,0-20,2.52-27.92,7.56-7.92,5.04-14.05,12.05-18.41,21.03-4.35,8.98-6.53,19.37-6.53,31.16s2.21,22.23,6.63,31.11c4.42,8.88,10.75,15.75,18.97,20.62,8.23,4.87,17.96,7.3,29.2,7.3,8.36,0,15.82-1.29,22.36-3.86,6.55-2.57,11.98-6.19,16.3-10.85,4.32-4.66,7.33-10.08,9.05-16.25l-21.18-4.01c-1.3,3.63-3.22,6.68-5.76,9.15-2.54,2.47-5.54,4.32-9,5.55-3.46,1.23-7.32,1.85-11.57,1.85-6.51,0-12.22-1.44-17.12-4.32-4.9-2.88-8.72-7.06-11.47-12.54-2.48-4.95-3.82-10.89-4.06-17.79h81.7v-8.02Zm-78.15-22.31c2.4-5.07,5.88-9.15,10.44-12.24,4.56-3.08,10.06-4.63,16.5-4.63s11.84,1.53,16.2,4.58c4.35,3.05,7.63,7.29,9.82,12.7,1.6,3.95,2.61,8.34,3.04,13.16h-59.48c.34-4.85,1.49-9.38,3.48-13.57Z"/>
        <path class="cls-1" d="m967.27,233.34h24.47l-55.01-155.62h-26.74l-55.12,155.62h24.58l13.99-41.25h59.76l14.06,41.25Zm-67.16-60.89l22.53-66.42h1.23l22.64,66.42h-46.41Z"/>
        <path class="cls-1" d="m1026.25,76.57v157.52h-23.14V76.57h23.14Z"/>
      </g>
      <path class="cls-2" d="m152.1,0C68.1,0,0,68.1,0,152.1s68.1,152.1,152.1,152.1,152.1-68.1,152.1-152.1S236.11,0,152.1,0ZM52.33,132.76h80.44V52.33h30.87v111.31H52.33v-30.87Zm199.55,38.68c-44.38.11-80.33,36.06-80.44,80.44h-30.87c.11-61.43,49.88-111.2,111.31-111.31v30.87Z"/>
    </g>
  </g>
</svg>