<svg version="1.2" xmlns="http://www.w3.org/2000/svg" viewBox="0 0 1080 361" width="1080" height="361">
	<title>GRADIENTE-forma-texto-negro-sin-relleno-svg</title>
	<defs>
		<linearGradient id="g1" x2="1" gradientUnits="userSpaceOnUse" gradientTransform="matrix(266.97,0,0,266.97,40.09,181)">
			<stop offset="0" stop-color="#caf1b8"/>
			<stop offset="1" stop-color="#98c9f0"/>
		</linearGradient>
	</defs>
	<style>
		.s0 { fill: url(#g1) } 
		.s1 { fill: #000000 } 
	</style>
	<path id="Layer" fill-rule="evenodd" class="s0" d="m307.1 181c0 73.7-59.8 133.5-133.5 133.5-73.7 0-133.5-59.8-133.5-133.5 0-73.7 59.8-133.5 133.5-133.5 73.7 0 133.5 59.8 133.5 133.5zm-214.3 11.5h92.3v-92.3h-25.5v66.8h-66.8zm161.6-23c-51 0-92.3 41.3-92.3 92.3h25.5c0-36.9 29.9-66.8 66.8-66.8z"/>
	<g id="Layer">
		<path id="Layer" fill-rule="evenodd" class="s1" d="m495.4 219.6c-1.2 20.2-9 31.1-18.7 36.8-7.1 4.2-15.2 6.2-23.4 6.2h-72.7v-159.5h65.6c11.4 0 22.4 4.2 30.4 12.2 6.2 6.1 11.4 14.9 11.4 27.5 0 31.4-25.4 35.1-25.4 35.1 0 0 35.2 1.8 32.8 41.7zm-92.5-97.1zm0 0v48.4l36.2-0.2c14.5-0.8 23.2-8.6 25.5-20.7q0.1-0.7 0.2-1.4c1.2-8.2-4.5-17.9-10.8-21.6-7.4-4.3-14.3-4.7-23-4.7zm70.5 95.5c0.1-0.4 0.3-2 0.2-3.6-0.4-11.5-7-18-15.1-21.5-1.8-0.7-7.2-2.7-14.5-2.2h-40.9l-0.2 53.1h42.1c14.9-0.2 27.2-8 28.4-25.7z"/>
		<g id="Layer">
			<path id="Layer" class="s1" d="m522.6 129.8q5.8 0 10.1-4 4.2-4 4.2-9.5c0-3.7-1.4-7-4.2-9.7q-4.3-3.9-10.1-3.9c-4 0-7.4 1.3-10.2 3.9q-4.2 4-4.2 9.7c0 3.7 1.4 6.9 4.2 9.5q4.2 4 10.2 4z"/>
			<path id="Layer" class="s1" d="m511.1 144.6h22.7v117.2h-22.7z"/>
		</g>
		<path id="Layer" class="s1" d="m551 261.5v-117.2h21.9v18.8h1.3q3.2-9.4 11.4-14.9 8.1-5.5 18.3-5.5 2.1 0 5 0.1 2.9 0.2 4.7 0.4v21.8q-1.4-0.4-4.9-0.8-3.5-0.4-7.1-0.4-8 0-14.4 3.4-6.3 3.4-9.9 9.3-3.6 5.9-3.6 13.7v71.3h-22.7z"/>
		<path id="Layer" class="s1" d="m663.8 264.5q-16.8 0-29.1-7.8-12.2-7.7-18.8-21.4-6.6-13.6-6.6-31.2c0-11.7 2.2-22.5 6.7-31.6q6.8-13.7 19-21.4 12.2-7.7 28.6-7.7 13.5 0 23.9 4.9 10.4 4.9 16.9 13.8 6.4 8.9 7.6 20.7h-22.3q-1.1-5.5-4.4-10.1-3.3-4.7-8.7-7.4-5.3-2.7-12.6-2.7-9.6 0-16.7 5-7 4.9-11 14.2-4 9.2-4 21.8c0 8.4 1.3 15.8 3.9 22.1q3.9 9.4 11 14.5 7.2 5.1 16.8 5.1c6.3 0 12.1-1.8 16.8-5.5q7-5.4 8.9-14.9h22.3q-1.2 11.5-7.4 20.4-6.2 8.9-16.5 14-10.4 5.1-24.2 5.2z"/>
		<path id="Layer" class="s1" d="m745.8 101.9v159.9h-22.6v-159.9z"/>
		<path id="Layer" fill-rule="evenodd" class="s1" d="m865.5 201.9v8.2h-83.2q0.3 10.6 4.1 18.1 4.2 8.4 11.7 12.8 7.5 4.4 17.5 4.4 6.4 0 11.7-1.9 5.3-1.9 9.2-5.6 3.9-3.8 5.9-9.4l21.6 4.1q-2.6 9.5-9.2 16.6-6.7 7.1-16.7 11.1-10 3.9-22.7 3.9-17.2 0-29.8-7.5-12.6-7.4-19.3-21c-4.6-9-6.8-19.7-6.8-31.7q0-18 6.6-31.7 6.7-13.7 18.8-21.4 12.1-7.7 28.5-7.7 9.9 0 19.2 3.2 9.4 3.3 16.8 10.3 7.4 7 11.8 18.2 4.3 11.2 4.3 27.1zm-79.6-22.8q-3 6.4-3.5 13.8h60.6q-0.7-7.3-3.1-13.4-3.4-8.2-10-12.9-6.7-4.7-16.5-4.7-9.9 0-16.9 4.8-6.9 4.7-10.6 12.4z"/>
		<path id="Layer" fill-rule="evenodd" class="s1" d="m965.5 219h-60.9l-14.3 42h-25.1l56.2-158.6h27.3l56 158.6h-24.9zm-6.8-20l-23.1-67.7h-1.3l-22.9 67.7c0 0 47.3 0 47.3 0z"/>
		<path id="Layer" class="s1" d="m1016.3 101.3h23.6v160.5h-23.6z"/>
	</g>
</svg>