<?xml version="1.0" encoding="UTF-8"?>
<svg id="Layer_2" data-name="Layer 2" xmlns="http://www.w3.org/2000/svg" xmlns:xlink="http://www.w3.org/1999/xlink" viewBox="0 0 745.52 1028">
  <defs>
    <style>
      .cls-1 {
        fill: url(#New_Gradient_Swatch_2);
      }
    </style>
    <linearGradient id="New_Gradient_Swatch_2" data-name="New Gradient Swatch 2" x1="4130" y1="5234" x2="4875.52" y2="5234" gradientTransform="translate(-4130 -4720)" gradientUnits="userSpaceOnUse">
      <stop offset="0" stop-color="#caf1b8"/>
      <stop offset="1" stop-color="#9bcbed"/>
      <stop offset="1" stop-color="#98c9f0"/>
    </linearGradient>
  </defs>
  <g id="Layer_2-2" data-name="Layer 2">
    <g>
      <path d="m30.58,1028v-74.26l423.72-414.99c38.82-37.86,67.94-71.09,87.37-99.74,19.41-28.62,32.51-55.56,39.32-80.81,6.78-25.23,10.19-49.01,10.19-71.35,0-59.2-20.16-105.8-60.43-139.78-40.29-33.97-99.74-50.97-178.37-50.97-60.2,0-113.35,9.24-159.44,27.67-46.11,18.46-85.68,47.1-118.67,85.91L0,145.61C39.8,99.01,90.76,63.11,152.89,37.86,215,12.63,284.42,0,361.11,0c68.92,0,128.62,10.91,179.11,32.76,50.46,21.84,89.55,53.64,117.21,95.37,27.67,41.76,41.51,90.78,41.51,147.06,0,33.02-4.63,65.53-13.84,97.57-9.23,32.03-25.73,65.77-49.51,101.19-23.8,35.45-58.49,75.49-104.11,120.13l-388.77,381.5-29.13-40.77h631.95v93.19H30.58Z"/>
      <path class="cls-1" d="m30.58,1028v-74.26l423.72-414.99c38.82-37.86,67.94-71.09,87.37-99.74,19.41-28.62,32.51-55.56,39.32-80.81,6.78-25.23,10.19-49.01,10.19-71.35,0-59.2-20.16-105.8-60.43-139.78-40.29-33.97-99.74-50.97-178.37-50.97-60.2,0-113.35,9.24-159.44,27.67-46.11,18.46-85.68,47.1-118.67,85.91L0,145.61C39.8,99.01,90.76,63.11,152.89,37.86,215,12.63,284.42,0,361.11,0c68.92,0,128.62,10.91,179.11,32.76,50.46,21.84,89.55,53.64,117.21,95.37,27.67,41.76,41.51,90.78,41.51,147.06,0,33.02-4.63,65.53-13.84,97.57-9.23,32.03-25.73,65.77-49.51,101.19-23.8,35.45-58.49,75.49-104.11,120.13l-388.77,381.5-29.13-40.77h631.95v93.19H30.58Z"/>
    </g>
  </g>
</svg>