<?xml version="1.0" encoding="UTF-8"?>
<svg id="Layer_2" data-name="Layer 2" xmlns="http://www.w3.org/2000/svg" xmlns:xlink="http://www.w3.org/1999/xlink" viewBox="0 0 725.32 1012">
  <defs>
    <style>
      .cls-1 {
        fill: url(#New_Gradient_Swatch_2);
      }
    </style>
    <linearGradient id="New_Gradient_Swatch_2" data-name="New Gradient Swatch 2" x1="4130" y1="5226" x2="4855.32" y2="5226" gradientTransform="translate(-4130 -4720)" gradientUnits="userSpaceOnUse">
      <stop offset="0" stop-color="#caf1b8"/>
      <stop offset="1" stop-color="#9bcbed"/>
      <stop offset="1" stop-color="#98c9f0"/>
    </linearGradient>
  </defs>
  <g id="Layer_2-2" data-name="Layer 2">
    <g>
      <path d="m361.23,1012c-72.64,0-141.2-11.69-205.7-35.12-64.5-23.4-116.35-54.69-155.53-93.88l50.17-81.71c32.48,33.47,76.2,61.17,131.16,83.14,54.93,22,114.89,32.97,179.9,32.97,83.13,0,146.92-18.14,191.36-54.46,44.44-36.31,66.65-85.04,66.65-146.21s-21.74-109.88-65.22-146.2c-43.49-36.31-112.05-54.47-205.7-54.47h-71.67v-75.97L586.28,51.6l14.34,40.14H41.58V0h645.04v73.1l-309.62,388.46-50.17-32.97h38.71c120.41,0,210.46,26.77,270.2,80.27,59.71,53.53,89.6,122.34,89.6,206.42,0,56.39-13.4,107.04-40.14,151.94-26.77,44.92-67.15,80.27-121.13,106.07-53.99,25.81-121.61,38.71-202.82,38.71Z"/>
      <path class="cls-1" d="m361.23,1012c-72.64,0-141.2-11.69-205.7-35.12-64.5-23.4-116.35-54.69-155.53-93.88l50.17-81.71c32.48,33.47,76.2,61.17,131.16,83.14,54.93,22,114.89,32.97,179.9,32.97,83.13,0,146.92-18.14,191.36-54.46,44.44-36.31,66.65-85.04,66.65-146.21s-21.74-109.88-65.22-146.2c-43.49-36.31-112.05-54.47-205.7-54.47h-71.67v-75.97L586.28,51.6l14.34,40.14H41.58V0h645.04v73.1l-309.62,388.46-50.17-32.97h38.71c120.41,0,210.46,26.77,270.2,80.27,59.71,53.53,89.6,122.34,89.6,206.42,0,56.39-13.4,107.04-40.14,151.94-26.77,44.92-67.15,80.27-121.13,106.07-53.99,25.81-121.61,38.71-202.82,38.71Z"/>
    </g>
  </g>
</svg>