<?xml version="1.0" encoding="UTF-8"?>
<svg id="Layer_2" data-name="Layer 2" xmlns="http://www.w3.org/2000/svg" xmlns:xlink="http://www.w3.org/1999/xlink" viewBox="0 0 1080 1080">
  <defs>
    <style>
      .cls-1 {
        fill: url(#New_Gradient_Swatch_2-33);
      }

      .cls-2 {
        fill: url(#New_Gradient_Swatch_2-2);
      }

      .cls-3 {
        fill: url(#New_Gradient_Swatch_2-28);
      }

      .cls-4 {
        fill: #fff;
      }

      .cls-5 {
        fill: url(#New_Gradient_Swatch_2-14);
      }

      .cls-6 {
        fill: url(#New_Gradient_Swatch_2);
        opacity: .2;
      }

      .cls-7 {
        fill: url(#New_Gradient_Swatch_2-22);
      }

      .cls-8 {
        fill: url(#New_Gradient_Swatch_2-8);
      }

      .cls-9 {
        fill: url(#New_Gradient_Swatch_2-4);
      }

      .cls-10 {
        fill: url(#New_Gradient_Swatch_2-34);
      }

      .cls-11 {
        fill: url(#New_Gradient_Swatch_2-36);
      }

      .cls-12 {
        fill: url(#New_Gradient_Swatch_2-17);
      }

      .cls-13 {
        fill: url(#New_Gradient_Swatch_2-13);
      }

      .cls-14 {
        fill: url(#New_Gradient_Swatch_2-11);
      }

      .cls-15 {
        fill: url(#New_Gradient_Swatch_2-18);
      }

      .cls-16 {
        fill: url(#New_Gradient_Swatch_2-20);
      }

      .cls-17 {
        fill: url(#New_Gradient_Swatch_2-31);
      }

      .cls-18 {
        fill: url(#New_Gradient_Swatch_2-37);
      }

      .cls-19 {
        fill: url(#New_Gradient_Swatch_2-25);
      }

      .cls-20 {
        fill: url(#New_Gradient_Swatch_2-24);
      }

      .cls-21 {
        fill: url(#New_Gradient_Swatch_2-15);
      }

      .cls-22 {
        fill: url(#New_Gradient_Swatch_2-29);
      }

      .cls-23 {
        fill: url(#New_Gradient_Swatch_2-12);
      }

      .cls-24 {
        fill: url(#New_Gradient_Swatch_2-19);
      }

      .cls-25 {
        fill: url(#New_Gradient_Swatch_2-38);
      }

      .cls-26 {
        fill: url(#New_Gradient_Swatch_2-23);
      }

      .cls-27 {
        fill: url(#New_Gradient_Swatch_2-7);
      }

      .cls-28 {
        fill: url(#New_Gradient_Swatch_2-21);
      }

      .cls-29 {
        fill: url(#New_Gradient_Swatch_2-3);
      }

      .cls-30 {
        fill: url(#New_Gradient_Swatch_2-5);
      }

      .cls-31 {
        fill: url(#New_Gradient_Swatch_2-32);
      }

      .cls-32 {
        fill: url(#New_Gradient_Swatch_2-27);
      }

      .cls-33 {
        fill: url(#New_Gradient_Swatch_2-26);
      }

      .cls-34 {
        fill: url(#New_Gradient_Swatch_2-16);
      }

      .cls-35 {
        fill: url(#New_Gradient_Swatch_2-30);
      }

      .cls-36 {
        fill: url(#New_Gradient_Swatch_2-10);
      }

      .cls-37 {
        fill: url(#New_Gradient_Swatch_2-35);
      }

      .cls-38 {
        fill: url(#New_Gradient_Swatch_2-6);
      }

      .cls-39 {
        fill: url(#New_Gradient_Swatch_2-9);
      }
    </style>
    <linearGradient id="New_Gradient_Swatch_2" data-name="New Gradient Swatch 2" x1="0" y1="540" x2="1080" y2="540" gradientUnits="userSpaceOnUse">
      <stop offset="0" stop-color="#caf1b8"/>
      <stop offset="1" stop-color="#9bcbed"/>
      <stop offset="1" stop-color="#98c9f0"/>
    </linearGradient>
    <linearGradient id="New_Gradient_Swatch_2-2" data-name="New Gradient Swatch 2" x1="134.05" y1="315.52" x2="313.18" y2="315.52" xlink:href="#New_Gradient_Swatch_2"/>
    <linearGradient id="New_Gradient_Swatch_2-3" data-name="New Gradient Swatch 2" x1="-39.11" y1="509.13" x2="93.63" y2="509.13" gradientTransform="translate(115.61 283.69) rotate(-50.67)" xlink:href="#New_Gradient_Swatch_2"/>
    <linearGradient id="New_Gradient_Swatch_2-4" data-name="New Gradient Swatch 2" x1="-41.3" y1="509.13" x2="95.82" y2="509.13" gradientTransform="translate(115.61 283.69) rotate(-50.67)" xlink:href="#New_Gradient_Swatch_2"/>
    <linearGradient id="New_Gradient_Swatch_2-5" data-name="New Gradient Swatch 2" x1="-39.11" y1="509.13" x2="93.63" y2="509.13" gradientTransform="translate(115.61 283.69) rotate(-50.67)" xlink:href="#New_Gradient_Swatch_2"/>
    <linearGradient id="New_Gradient_Swatch_2-6" data-name="New Gradient Swatch 2" x1="-39.11" y1="489.69" x2="93.63" y2="489.69" gradientTransform="translate(115.61 283.69) rotate(-50.67)" xlink:href="#New_Gradient_Swatch_2"/>
    <linearGradient id="New_Gradient_Swatch_2-7" data-name="New Gradient Swatch 2" x1="-41.3" y1="489.69" x2="95.82" y2="489.69" gradientTransform="translate(115.61 283.69) rotate(-50.67)" xlink:href="#New_Gradient_Swatch_2"/>
    <linearGradient id="New_Gradient_Swatch_2-8" data-name="New Gradient Swatch 2" x1="-39.11" y1="489.69" x2="93.63" y2="489.69" gradientTransform="translate(115.61 283.69) rotate(-50.67)" xlink:href="#New_Gradient_Swatch_2"/>
    <linearGradient id="New_Gradient_Swatch_2-9" data-name="New Gradient Swatch 2" x1="-39.11" y1="472.26" x2="93.63" y2="472.26" gradientTransform="translate(115.61 283.69) rotate(-50.67)" xlink:href="#New_Gradient_Swatch_2"/>
    <linearGradient id="New_Gradient_Swatch_2-10" data-name="New Gradient Swatch 2" x1="-41.3" y1="472.26" x2="95.82" y2="472.26" gradientTransform="translate(115.61 283.69) rotate(-50.67)" xlink:href="#New_Gradient_Swatch_2"/>
    <linearGradient id="New_Gradient_Swatch_2-11" data-name="New Gradient Swatch 2" x1="-39.11" y1="472.26" x2="93.63" y2="472.26" gradientTransform="translate(115.61 283.69) rotate(-50.67)" xlink:href="#New_Gradient_Swatch_2"/>
    <linearGradient id="New_Gradient_Swatch_2-12" data-name="New Gradient Swatch 2" x1="-39.11" y1="484.68" x2="93.63" y2="484.68" gradientTransform="translate(115.61 283.69) rotate(-50.67)" xlink:href="#New_Gradient_Swatch_2"/>
    <linearGradient id="New_Gradient_Swatch_2-13" data-name="New Gradient Swatch 2" x1="-41.3" y1="484.68" x2="95.82" y2="484.68" gradientTransform="translate(115.61 283.69) rotate(-50.67)" xlink:href="#New_Gradient_Swatch_2"/>
    <linearGradient id="New_Gradient_Swatch_2-14" data-name="New Gradient Swatch 2" x1="-39.11" y1="484.68" x2="93.63" y2="484.68" gradientTransform="translate(115.61 283.69) rotate(-50.67)" xlink:href="#New_Gradient_Swatch_2"/>
    <linearGradient id="New_Gradient_Swatch_2-15" data-name="New Gradient Swatch 2" x1="25.23" y1="496.72" x2="157.98" y2="496.72" gradientTransform="translate(115.61 283.69) rotate(-50.67)" xlink:href="#New_Gradient_Swatch_2"/>
    <linearGradient id="New_Gradient_Swatch_2-16" data-name="New Gradient Swatch 2" x1="23.04" y1="496.72" x2="160.17" y2="496.72" gradientTransform="translate(115.61 283.69) rotate(-50.67)" xlink:href="#New_Gradient_Swatch_2"/>
    <linearGradient id="New_Gradient_Swatch_2-17" data-name="New Gradient Swatch 2" x1="25.23" y1="496.72" x2="157.98" y2="496.72" gradientTransform="translate(115.61 283.69) rotate(-50.67)" xlink:href="#New_Gradient_Swatch_2"/>
    <linearGradient id="New_Gradient_Swatch_2-18" data-name="New Gradient Swatch 2" x1="25.23" y1="516.17" x2="157.98" y2="516.17" gradientTransform="translate(115.61 283.69) rotate(-50.67)" xlink:href="#New_Gradient_Swatch_2"/>
    <linearGradient id="New_Gradient_Swatch_2-19" data-name="New Gradient Swatch 2" x1="23.04" y1="516.17" x2="160.17" y2="516.17" gradientTransform="translate(115.61 283.69) rotate(-50.67)" xlink:href="#New_Gradient_Swatch_2"/>
    <linearGradient id="New_Gradient_Swatch_2-20" data-name="New Gradient Swatch 2" x1="25.23" y1="516.17" x2="157.98" y2="516.17" gradientTransform="translate(115.61 283.69) rotate(-50.67)" xlink:href="#New_Gradient_Swatch_2"/>
    <linearGradient id="New_Gradient_Swatch_2-21" data-name="New Gradient Swatch 2" x1="-41.3" y1="533.59" x2="95.82" y2="533.59" gradientTransform="translate(115.61 283.69) rotate(-50.67)" xlink:href="#New_Gradient_Swatch_2"/>
    <linearGradient id="New_Gradient_Swatch_2-22" data-name="New Gradient Swatch 2" x1="25.23" y1="533.59" x2="157.98" y2="533.59" gradientTransform="translate(115.61 283.69) rotate(-50.67)" xlink:href="#New_Gradient_Swatch_2"/>
    <linearGradient id="New_Gradient_Swatch_2-23" data-name="New Gradient Swatch 2" x1="23.04" y1="533.59" x2="160.17" y2="533.59" gradientTransform="translate(115.61 283.69) rotate(-50.67)" xlink:href="#New_Gradient_Swatch_2"/>
    <linearGradient id="New_Gradient_Swatch_2-24" data-name="New Gradient Swatch 2" x1="25.23" y1="533.59" x2="157.98" y2="533.59" gradientTransform="translate(115.61 283.69) rotate(-50.67)" xlink:href="#New_Gradient_Swatch_2"/>
    <linearGradient id="New_Gradient_Swatch_2-25" data-name="New Gradient Swatch 2" x1="-41.3" y1="521.18" x2="95.82" y2="521.18" gradientTransform="translate(115.61 283.69) rotate(-50.67)" xlink:href="#New_Gradient_Swatch_2"/>
    <linearGradient id="New_Gradient_Swatch_2-26" data-name="New Gradient Swatch 2" x1="25.23" y1="521.18" x2="157.98" y2="521.18" gradientTransform="translate(115.61 283.69) rotate(-50.67)" xlink:href="#New_Gradient_Swatch_2"/>
    <linearGradient id="New_Gradient_Swatch_2-27" data-name="New Gradient Swatch 2" x1="23.04" y1="521.18" x2="160.17" y2="521.18" gradientTransform="translate(115.61 283.69) rotate(-50.67)" xlink:href="#New_Gradient_Swatch_2"/>
    <linearGradient id="New_Gradient_Swatch_2-28" data-name="New Gradient Swatch 2" x1="25.23" y1="521.18" x2="157.98" y2="521.18" gradientTransform="translate(115.61 283.69) rotate(-50.67)" xlink:href="#New_Gradient_Swatch_2"/>
    <linearGradient id="New_Gradient_Swatch_2-29" data-name="New Gradient Swatch 2" x1="-39.11" y1="527.39" x2="93.63" y2="527.39" gradientTransform="translate(115.61 283.69) rotate(-50.67)" xlink:href="#New_Gradient_Swatch_2"/>
    <linearGradient id="New_Gradient_Swatch_2-30" data-name="New Gradient Swatch 2" x1="-41.3" y1="527.39" x2="95.82" y2="527.39" gradientTransform="translate(115.61 283.69) rotate(-50.67)" xlink:href="#New_Gradient_Swatch_2"/>
    <linearGradient id="New_Gradient_Swatch_2-31" data-name="New Gradient Swatch 2" x1="-39.11" y1="527.39" x2="93.63" y2="527.39" gradientTransform="translate(115.61 283.69) rotate(-50.67)" xlink:href="#New_Gradient_Swatch_2"/>
    <linearGradient id="New_Gradient_Swatch_2-32" data-name="New Gradient Swatch 2" x1="25.23" y1="527.39" x2="157.98" y2="527.39" gradientTransform="translate(115.61 283.69) rotate(-50.67)" xlink:href="#New_Gradient_Swatch_2"/>
    <linearGradient id="New_Gradient_Swatch_2-33" data-name="New Gradient Swatch 2" x1="23.04" y1="527.39" x2="160.17" y2="527.39" gradientTransform="translate(115.61 283.69) rotate(-50.67)" xlink:href="#New_Gradient_Swatch_2"/>
    <linearGradient id="New_Gradient_Swatch_2-34" data-name="New Gradient Swatch 2" x1="-39.11" y1="478.47" x2="93.63" y2="478.47" gradientTransform="translate(115.61 283.69) rotate(-50.67)" xlink:href="#New_Gradient_Swatch_2"/>
    <linearGradient id="New_Gradient_Swatch_2-35" data-name="New Gradient Swatch 2" x1="-41.3" y1="478.47" x2="95.82" y2="478.47" gradientTransform="translate(115.61 283.69) rotate(-50.67)" xlink:href="#New_Gradient_Swatch_2"/>
    <linearGradient id="New_Gradient_Swatch_2-36" data-name="New Gradient Swatch 2" x1="-39.11" y1="478.47" x2="93.63" y2="478.47" gradientTransform="translate(115.61 283.69) rotate(-50.67)" xlink:href="#New_Gradient_Swatch_2"/>
    <linearGradient id="New_Gradient_Swatch_2-37" data-name="New Gradient Swatch 2" x1="776.01" y1="797.4" x2="849.21" y2="797.4" xlink:href="#New_Gradient_Swatch_2"/>
    <linearGradient id="New_Gradient_Swatch_2-38" data-name="New Gradient Swatch 2" x1="872.75" y1="797.4" x2="945.95" y2="797.4" xlink:href="#New_Gradient_Swatch_2"/>
  </defs>
  <g id="Layer_1-2" data-name="Layer 1">
    <g>
      <rect class="cls-4" width="1080" height="1080" rx="65.73" ry="65.73"/>
      <rect class="cls-6" width="1080" height="1080" rx="65.73" ry="65.73"/>
      <g>
        <path class="cls-2" d="m286.92,242.47h-126.62c-14.48,0-26.26,11.78-26.26,26.26v61.53c0,14.48,11.78,26.26,26.26,26.26h35.08c-.13.37-.25.75-.34,1.13l-3.85,15.67c-.91,3.7-.08,7.54,2.27,10.54,2.35,3,5.88,4.72,9.69,4.72h41.21c3.81,0,7.34-1.72,9.69-4.72,2.35-3,3.18-6.84,2.27-10.54l-3.85-15.67c-.1-.39-.21-.76-.34-1.13h34.82c14.48,0,26.26-11.78,26.26-26.26v-61.53c0-14.48-11.78-26.26-26.26-26.26Zm-39.75,136c-.68.87-1.71,1.37-2.82,1.37h-41.21c-1.11,0-2.14-.5-2.82-1.37-.68-.87-.92-1.99-.66-3.07l3.85-15.67c.39-1.61,1.83-2.73,3.48-2.73h33.5c1.65,0,3.09,1.12,3.48,2.73l3.85,15.67c.27,1.08.02,2.19-.66,3.07Zm57.28-48.21c0,9.67-7.86,17.53-17.53,17.53h-126.62c-9.67,0-17.53-7.86-17.53-17.53v-61.53c0-9.67,7.86-17.53,17.53-17.53h126.62c9.67,0,17.53,7.86,17.53,17.53v61.53Z"/>
        <g>
          <path class="cls-29" d="m549.68,531.51c12.56,10.29,14.41,28.88,4.11,41.44l-10.24,12.49c3.03,1.97,6.42,3.32,9.97,3.96l8.18-9.98c13.86-16.92,11.38-41.96-5.54-55.83l-4.86-3.98c-.2-.16-.41-.32-.61-.48l-6.48,7.9c.2.16.41.31.61.48l4.86,3.98Z"/>
          <path class="cls-9" d="m549.68,531.51c12.56,10.29,14.41,28.88,4.11,41.44l-10.24,12.49c3.03,1.97,6.42,3.32,9.97,3.96l8.18-9.98c13.86-16.92,11.38-41.96-5.54-55.83l-4.86-3.98c-.2-.16-.41-.32-.61-.48l-6.48,7.9c.2.16.41.31.61.48l4.86,3.98Z"/>
          <path class="cls-30" d="m549.68,531.51c12.56,10.29,14.41,28.88,4.11,41.44l-10.24,12.49c3.03,1.97,6.42,3.32,9.97,3.96l8.18-9.98c13.86-16.92,11.38-41.96-5.54-55.83l-4.86-3.98c-.2-.16-.41-.32-.61-.48l-6.48,7.9c.2.16.41.31.61.48l4.86,3.98Z"/>
          <path class="cls-38" d="m519.95,614.27c-4.98,6.08-12.04,9.86-19.87,10.64-7.83.78-15.49-1.54-21.57-6.53l-4.86-3.98c-12.56-10.29-14.41-28.88-4.11-41.44l33.85-41.31c4.98-6.08,12.04-9.86,19.87-10.64.99-.1,1.98-.15,2.96-.15,1.34,0,2.66.09,3.97.27l7.26-8.87c-4.86-1.44-10.01-1.95-15.21-1.43-10.54,1.05-20.05,6.14-26.77,14.33l-33.85,41.31c-13.86,16.92-11.38,41.96,5.54,55.83l4.86,3.98c7.16,5.87,15.94,8.99,25.07,8.99,1.32,0,2.66-.07,3.99-.2,10.54-1.05,20.05-6.14,26.77-14.33l15.61-19.06c-3.25-1.24-6.34-2.88-9.2-4.9l-14.32,17.48Z"/>
          <path class="cls-27" d="m519.95,614.27c-4.98,6.08-12.04,9.86-19.87,10.64-7.83.78-15.49-1.54-21.57-6.53l-4.86-3.98c-12.56-10.29-14.41-28.88-4.11-41.44l33.85-41.31c4.98-6.08,12.04-9.86,19.87-10.64.99-.1,1.98-.15,2.96-.15,1.34,0,2.66.09,3.97.27l7.26-8.87c-4.86-1.44-10.01-1.95-15.21-1.43-10.54,1.05-20.05,6.14-26.77,14.33l-33.85,41.31c-13.86,16.92-11.38,41.96,5.54,55.83l4.86,3.98c7.16,5.87,15.94,8.99,25.07,8.99,1.32,0,2.66-.07,3.99-.2,10.54-1.05,20.05-6.14,26.77-14.33l15.61-19.06c-3.25-1.24-6.34-2.88-9.2-4.9l-14.32,17.48Z"/>
          <path class="cls-8" d="m519.95,614.27c-4.98,6.08-12.04,9.86-19.87,10.64-7.83.78-15.49-1.54-21.57-6.53l-4.86-3.98c-12.56-10.29-14.41-28.88-4.11-41.44l33.85-41.31c4.98-6.08,12.04-9.86,19.87-10.64.99-.1,1.98-.15,2.96-.15,1.34,0,2.66.09,3.97.27l7.26-8.87c-4.86-1.44-10.01-1.95-15.21-1.43-10.54,1.05-20.05,6.14-26.77,14.33l-33.85,41.31c-13.86,16.92-11.38,41.96,5.54,55.83l4.86,3.98c7.16,5.87,15.94,8.99,25.07,8.99,1.32,0,2.66-.07,3.99-.2,10.54-1.05,20.05-6.14,26.77-14.33l15.61-19.06c-3.25-1.24-6.34-2.88-9.2-4.9l-14.32,17.48Z"/>
          <path class="cls-39" d="m532.65,521.58l7.03-8.58c-.74-.27-1.48-.51-2.23-.73l-7.26,8.87c.83.11,1.65.26,2.47.44Z"/>
          <path class="cls-36" d="m532.65,521.58l7.03-8.58c-.74-.27-1.48-.51-2.23-.73l-7.26,8.87c.83.11,1.65.26,2.47.44Z"/>
          <path class="cls-14" d="m532.65,521.58l7.03-8.58c-.74-.27-1.48-.51-2.23-.73l-7.26,8.87c.83.11,1.65.26,2.47.44Z"/>
          <path class="cls-23" d="m544.21,527.05l6.48-7.9c-.58-.45-1.16-.89-1.76-1.31l-6.5,7.93c.61.4,1.2.83,1.78,1.28Z"/>
          <path class="cls-13" d="m544.21,527.05l6.48-7.9c-.58-.45-1.16-.89-1.76-1.31l-6.5,7.93c.61.4,1.2.83,1.78,1.28Z"/>
          <path class="cls-5" d="m544.21,527.05l6.48-7.9c-.58-.45-1.16-.89-1.76-1.31l-6.5,7.93c.61.4,1.2.83,1.78,1.28Z"/>
          <path class="cls-21" d="m534.91,581.41c-12.56-10.29-14.41-28.88-4.11-41.44l10.24-12.5c-3.05-2-6.4-3.34-9.95-3.98l-8.2,10.01c-6.71,8.2-9.84,18.52-8.79,29.06,1.05,10.54,6.14,20.05,14.33,26.76l4.86,3.98c.2.16.41.32.61.48l6.48-7.91c-.2-.16-.41-.31-.61-.48l-4.86-3.98Z"/>
          <path class="cls-34" d="m534.91,581.41c-12.56-10.29-14.41-28.88-4.11-41.44l10.24-12.5c-3.05-2-6.4-3.34-9.95-3.98l-8.2,10.01c-6.71,8.2-9.84,18.52-8.79,29.06,1.05,10.54,6.14,20.05,14.33,26.76l4.86,3.98c.2.16.41.32.61.48l6.48-7.91c-.2-.16-.41-.31-.61-.48l-4.86-3.98Z"/>
          <path class="cls-12" d="m534.91,581.41c-12.56-10.29-14.41-28.88-4.11-41.44l10.24-12.5c-3.05-2-6.4-3.34-9.95-3.98l-8.2,10.01c-6.71,8.2-9.84,18.52-8.79,29.06,1.05,10.54,6.14,20.05,14.33,26.76l4.86,3.98c.2.16.41.32.61.48l6.48-7.91c-.2-.16-.41-.31-.61-.48l-4.86-3.98Z"/>
          <path class="cls-15" d="m564.64,498.66c4.98-6.08,12.04-9.86,19.87-10.64.99-.1,1.98-.15,2.96-.15,6.78,0,13.3,2.32,18.61,6.67l4.86,3.98c12.56,10.29,14.41,28.88,4.11,41.44l-33.85,41.31c-6.72,8.2-16.98,11.83-26.79,10.5l-7.26,8.87c3.67,1.08,7.46,1.62,11.24,1.62,11.49,0,22.89-4.95,30.72-14.51l33.85-41.31-3.95-3.24,3.95,3.24c13.86-16.92,11.38-41.96-5.54-55.83l-4.86-3.98c-8.2-6.72-18.52-9.84-29.06-8.79-10.54,1.05-20.05,6.14-26.77,14.33l-15.58,19.02c3.22,1.24,6.29,2.89,9.17,4.94l14.32-17.48Z"/>
          <path class="cls-24" d="m564.64,498.66c4.98-6.08,12.04-9.86,19.87-10.64.99-.1,1.98-.15,2.96-.15,6.78,0,13.3,2.32,18.61,6.67l4.86,3.98c12.56,10.29,14.41,28.88,4.11,41.44l-33.85,41.31c-6.72,8.2-16.98,11.83-26.79,10.5l-7.26,8.87c3.67,1.08,7.46,1.62,11.24,1.62,11.49,0,22.89-4.95,30.72-14.51l33.85-41.31-3.95-3.24,3.95,3.24c13.86-16.92,11.38-41.96-5.54-55.83l-4.86-3.98c-8.2-6.72-18.52-9.84-29.06-8.79-10.54,1.05-20.05,6.14-26.77,14.33l-15.58,19.02c3.22,1.24,6.29,2.89,9.17,4.94l14.32-17.48Z"/>
          <path class="cls-16" d="m564.64,498.66c4.98-6.08,12.04-9.86,19.87-10.64.99-.1,1.98-.15,2.96-.15,6.78,0,13.3,2.32,18.61,6.67l4.86,3.98c12.56,10.29,14.41,28.88,4.11,41.44l-33.85,41.31c-6.72,8.2-16.98,11.83-26.79,10.5l-7.26,8.87c3.67,1.08,7.46,1.62,11.24,1.62,11.49,0,22.89-4.95,30.72-14.51l33.85-41.31-3.95-3.24,3.95,3.24c13.86-16.92,11.38-41.96-5.54-55.83l-4.86-3.98c-8.2-6.72-18.52-9.84-29.06-8.79-10.54,1.05-20.05,6.14-26.77,14.33l-15.58,19.02c3.22,1.24,6.29,2.89,9.17,4.94l14.32-17.48Z"/>
          <path class="cls-28" d="m551.96,591.33l-7.03,8.58c.74.27,1.48.51,2.23.73l7.26-8.87c-.83-.11-1.65-.26-2.46-.45Z"/>
          <path class="cls-7" d="m551.96,591.33l-7.03,8.58c.74.27,1.48.51,2.23.73l7.26-8.87c-.83-.11-1.65-.26-2.46-.45Z"/>
          <path class="cls-26" d="m551.96,591.33l-7.03,8.58c.74.27,1.48.51,2.23.73l7.26-8.87c-.83-.11-1.65-.26-2.46-.45Z"/>
          <path class="cls-20" d="m551.96,591.33l-7.03,8.58c.74.27,1.48.51,2.23.73l7.26-8.87c-.83-.11-1.65-.26-2.46-.45Z"/>
          <path class="cls-19" d="m533.9,593.78c.58.45,1.16.89,1.76,1.31l6.5-7.93c-.6-.4-1.19-.84-1.78-1.29l-6.48,7.91Z"/>
          <path class="cls-33" d="m533.9,593.78c.58.45,1.16.89,1.76,1.31l6.5-7.93c-.6-.4-1.19-.84-1.78-1.29l-6.48,7.91Z"/>
          <path class="cls-32" d="m533.9,593.78c.58.45,1.16.89,1.76,1.31l6.5-7.93c-.6-.4-1.19-.84-1.78-1.29l-6.48,7.91Z"/>
          <path class="cls-3" d="m533.9,593.78c.58.45,1.16.89,1.76,1.31l6.5-7.93c-.6-.4-1.19-.84-1.78-1.29l-6.48,7.91Z"/>
          <path class="cls-22" d="m542.16,587.16l-6.5,7.93c2.92,2.05,6.04,3.66,9.26,4.82l7.03-8.58c-3.42-.77-6.75-2.15-9.8-4.17Z"/>
          <path class="cls-35" d="m542.16,587.16l-6.5,7.93c2.92,2.05,6.04,3.66,9.26,4.82l7.03-8.58c-3.42-.77-6.75-2.15-9.8-4.17Z"/>
          <path class="cls-17" d="m542.16,587.16l-6.5,7.93c2.92,2.05,6.04,3.66,9.26,4.82l7.03-8.58c-3.42-.77-6.75-2.15-9.8-4.17Z"/>
          <path class="cls-31" d="m542.16,587.16l-6.5,7.93c2.92,2.05,6.04,3.66,9.26,4.82l7.03-8.58c-3.42-.77-6.75-2.15-9.8-4.17Z"/>
          <path class="cls-1" d="m542.16,587.16l-6.5,7.93c2.92,2.05,6.04,3.66,9.26,4.82l7.03-8.58c-3.42-.77-6.75-2.15-9.8-4.17Z"/>
          <path class="cls-10" d="m542.43,525.77l6.5-7.93c-2.89-2.03-5.99-3.66-9.25-4.84l-7.03,8.58c3.47.78,6.77,2.19,9.78,4.19Z"/>
          <path class="cls-37" d="m542.43,525.77l6.5-7.93c-2.89-2.03-5.99-3.66-9.25-4.84l-7.03,8.58c3.47.78,6.77,2.19,9.78,4.19Z"/>
          <path class="cls-11" d="m542.43,525.77l6.5-7.93c-2.89-2.03-5.99-3.66-9.25-4.84l-7.03,8.58c3.47.78,6.77,2.19,9.78,4.19Z"/>
        </g>
        <g>
          <path class="cls-18" d="m776.01,799.07v-3.33c0-3.25,1.64-6.22,4.23-7.64l58.2-31.93c4.98-2.73,10.78,1.37,10.78,7.64v.16c0,3.33-1.72,6.35-4.4,7.73l-49.65,25.49.61-1.11v2.66l-.61-1.03,49.65,25.57c2.68,1.38,4.39,4.4,4.39,7.72h0c0,6.26-5.79,10.37-10.78,7.64l-58.2-31.93c-2.59-1.42-4.23-4.38-4.23-7.64Z"/>
          <path class="cls-25" d="m941.73,806.7l-58.2,31.93c-4.98,2.73-10.78-1.37-10.78-7.64h0c0-3.33,1.72-6.35,4.39-7.72l49.65-25.57-.53,1.03v-2.66l.53,1.11-49.65-25.49c-2.68-1.38-4.4-4.4-4.4-7.73v-.16c0-6.26,5.79-10.37,10.78-7.64l58.2,31.93c2.59,1.42,4.23,4.38,4.23,7.64v3.33c0,3.25-1.64,6.22-4.23,7.64Z"/>
        </g>
      </g>
    </g>
  </g>
</svg>