<?xml version="1.0" encoding="UTF-8"?>
<svg id="Layer_2" data-name="Layer 2" xmlns="http://www.w3.org/2000/svg" xmlns:xlink="http://www.w3.org/1999/xlink" viewBox="0 0 1080 1080">
  <defs>
    <style>
      .cls-1 {
        fill: url(#New_Gradient_Swatch_2-2);
      }

      .cls-2 {
        fill: #fff;
      }

      .cls-3 {
        fill: url(#New_Gradient_Swatch_2-4);
      }

      .cls-4 {
        fill: url(#New_Gradient_Swatch_2-5);
        fill-rule: evenodd;
      }

      .cls-5 {
        fill: url(#New_Gradient_Swatch_2);
      }

      .cls-6 {
        fill: url(#New_Gradient_Swatch_2-3);
      }

      .cls-7 {
        fill: url(#New_Gradient_Swatch_2-6);
      }
    </style>
    <linearGradient id="New_Gradient_Swatch_2" data-name="New Gradient Swatch 2" x1="728.49" y1="292.92" x2="872.31" y2="292.92" gradientUnits="userSpaceOnUse">
      <stop offset="0" stop-color="#caf1b8"/>
      <stop offset="1" stop-color="#9bcbed"/>
      <stop offset="1" stop-color="#98c9f0"/>
    </linearGradient>
    <linearGradient id="New_Gradient_Swatch_2-2" data-name="New Gradient Swatch 2" x1="763.47" y1="292.92" x2="837.32" y2="292.92" xlink:href="#New_Gradient_Swatch_2"/>
    <linearGradient id="New_Gradient_Swatch_2-3" data-name="New Gradient Swatch 2" x1="830.15" y1="254.54" x2="847.41" y2="254.54" xlink:href="#New_Gradient_Swatch_2"/>
    <linearGradient id="New_Gradient_Swatch_2-4" data-name="New Gradient Swatch 2" x1="211.88" x2="381.89" xlink:href="#New_Gradient_Swatch_2"/>
    <linearGradient id="New_Gradient_Swatch_2-5" data-name="New Gradient Swatch 2" x1="205.49" y1="773.66" x2="388.28" y2="773.66" xlink:href="#New_Gradient_Swatch_2"/>
    <linearGradient id="New_Gradient_Swatch_2-6" data-name="New Gradient Swatch 2" x1="717.3" y1="773.66" x2="883.49" y2="773.66" xlink:href="#New_Gradient_Swatch_2"/>
  </defs>
  <g id="Layer_1-2" data-name="Layer 1">
    <g>
      <rect class="cls-2" width="1080" height="1080" rx="65.73" ry="65.73"/>
      <g>
        <g>
          <path class="cls-5" d="m800.4,233.97c19.2,0,21.48.07,29.06.42,7.01.32,10.82,1.49,13.35,2.48,3.36,1.3,5.75,2.86,8.27,5.38,2.52,2.52,4.07,4.91,5.38,8.27.98,2.53,2.16,6.34,2.48,13.35.35,7.58.42,9.86.42,29.06s-.07,21.48-.42,29.06c-.32,7.01-1.49,10.82-2.48,13.35-1.3,3.36-2.86,5.75-5.38,8.27-2.52,2.52-4.91,4.07-8.27,5.38-2.53.98-6.34,2.16-13.35,2.48-7.58.35-9.86.42-29.06.42s-21.48-.07-29.06-.42c-7.01-.32-10.82-1.49-13.35-2.48-3.36-1.3-5.75-2.86-8.27-5.38-2.52-2.52-4.07-4.91-5.38-8.27-.98-2.53-2.16-6.34-2.48-13.35-.35-7.58-.42-9.86-.42-29.06s.07-21.48.42-29.06c.32-7.01,1.49-10.82,2.48-13.35,1.3-3.36,2.86-5.75,5.38-8.27,2.52-2.52,4.91-4.07,8.27-5.38,2.53-.98,6.34-2.16,13.35-2.48,7.58-.35,9.86-.42,29.06-.42m0-12.96c-19.53,0-21.98.08-29.65.43-7.65.35-12.88,1.56-17.46,3.34-4.73,1.84-8.74,4.3-12.74,8.29-4,4-6.46,8.01-8.29,12.74-1.78,4.57-2.99,9.8-3.34,17.46-.35,7.67-.43,10.12-.43,29.65s.08,21.98.43,29.65c.35,7.65,1.56,12.88,3.34,17.46,1.84,4.73,4.3,8.74,8.29,12.74,4,4,8.01,6.46,12.74,8.29,4.57,1.78,9.8,2.99,17.46,3.34,7.67.35,10.12.43,29.65.43s21.98-.08,29.65-.43c7.65-.35,12.88-1.56,17.46-3.34,4.73-1.84,8.74-4.3,12.74-8.29,4-4,6.46-8.01,8.29-12.74,1.78-4.57,2.99-9.8,3.34-17.46.35-7.67.43-10.12.43-29.65s-.08-21.98-.43-29.65c-.35-7.65-1.56-12.88-3.34-17.46-1.84-4.73-4.3-8.74-8.29-12.74-4-4-8.01-6.46-12.74-8.29-4.57-1.78-9.8-2.99-17.46-3.34-7.67-.35-10.12-.43-29.65-.43h0Z"/>
          <path class="cls-1" d="m800.4,255.99c-20.39,0-36.93,16.53-36.93,36.93s16.53,36.93,36.93,36.93,36.93-16.53,36.93-36.93-16.53-36.93-36.93-36.93Zm0,60.9c-13.24,0-23.97-10.73-23.97-23.97s10.73-23.97,23.97-23.97,23.97,10.73,23.97,23.97-10.73,23.97-23.97,23.97Z"/>
          <circle class="cls-6" cx="838.78" cy="254.54" r="8.63"/>
        </g>
        <path class="cls-3" d="m381.89,293.44c0-46.95-38.06-85-85-85s-85,38.06-85,85c0,42.43,31.08,77.59,71.72,83.97v-59.4h-21.58v-24.57h21.58v-18.73c0-21.3,12.69-33.07,32.11-33.07,9.3,0,19.03,1.66,19.03,1.66v20.92h-10.72c-10.56,0-13.85,6.55-13.85,13.27v15.95h23.58l-3.77,24.57h-19.81v59.4c40.64-6.38,71.72-41.54,71.72-83.97Z"/>
      </g>
      <g>
        <g id="WA_Logo" data-name="WA Logo">
          <path class="cls-4" d="m361.65,708.54c-17.18-17.2-40.04-26.67-64.38-26.68-50.17,0-91,40.81-91.02,90.98,0,16.04,4.18,31.69,12.15,45.49l-12.91,47.15,48.25-12.65c13.29,7.25,28.26,11.07,43.49,11.07h.04s0,0,0,0c50.16,0,90.99-40.82,91.01-90.99,0-24.31-9.45-47.17-26.63-64.37Zm-64.38,139.99h-.03c-13.57,0-26.89-3.65-38.5-10.54l-2.76-1.64-28.63,7.51,7.64-27.91-1.8-2.86c-7.57-12.04-11.57-25.96-11.57-40.25.02-41.7,33.95-75.62,75.68-75.62,20.21,0,39.2,7.88,53.48,22.18,14.28,14.29,22.14,33.29,22.14,53.5-.02,41.7-33.95,75.62-75.65,75.62Zm41.49-56.64c-2.27-1.14-13.46-6.64-15.54-7.4-2.08-.76-3.6-1.14-5.12,1.14-1.52,2.28-5.87,7.4-7.2,8.91-1.33,1.52-2.65,1.71-4.93.57-2.27-1.14-9.6-3.54-18.29-11.28-6.76-6.03-11.32-13.47-12.65-15.75-1.33-2.28-.14-3.51,1-4.64,1.02-1.02,2.27-2.66,3.41-3.98,1.14-1.33,1.52-2.28,2.27-3.79.76-1.52.38-2.84-.19-3.98-.57-1.14-5.12-12.33-7.01-16.88-1.85-4.43-3.72-3.83-5.12-3.9-1.32-.07-2.84-.08-4.36-.08s-3.98.57-6.06,2.84c-2.08,2.28-7.96,7.78-7.96,18.97s8.15,22,9.29,23.52c1.14,1.52,16.04,24.48,38.85,34.33,5.43,2.34,9.66,3.74,12.96,4.79,5.45,1.73,10.41,1.49,14.32.9,4.37-.65,13.45-5.5,15.35-10.81,1.89-5.31,1.89-9.86,1.33-10.81-.57-.95-2.08-1.52-4.36-2.66Z"/>
        </g>
        <path class="cls-7" d="m878.87,801c2.99-8.57,4.63-17.77,4.63-27.34s-1.63-18.77-4.63-27.34c-.07-.26-.16-.51-.26-.75-11.54-32.04-42.24-55.01-78.2-55.01s-66.66,22.97-78.2,55.01c-.11.24-.19.49-.26.75-2.99,8.57-4.63,17.76-4.63,27.34s1.63,18.77,4.63,27.34c.07.26.16.51.26.75,11.54,32.04,42.24,55.01,78.2,55.01s66.66-22.97,78.2-55.01c.11-.24.19-.49.26-.75h0Zm-78.47,43.85c-3.16,0-8.27-5.73-12.53-18.52-2.06-6.17-3.7-13.27-4.9-20.99h34.87c-1.2,7.72-2.85,14.82-4.9,20.99-4.27,12.79-9.37,18.52-12.53,18.52h0Zm-18.88-51.43c-.57-6.35-.88-12.98-.88-19.76s.3-13.4.88-19.76h37.77c.57,6.35.87,12.97.87,19.76s-.3,13.41-.87,19.76h-37.77Zm-52.3-19.76c0-6.85.97-13.48,2.79-19.76h37.56c-.56,6.48-.84,13.12-.84,19.76s.28,13.28.84,19.76h-37.56c-1.82-6.28-2.79-12.9-2.79-19.76h0Zm71.18-71.18c3.16,0,8.27,5.73,12.53,18.52,2.06,6.17,3.71,13.27,4.9,20.99h-34.87c1.2-7.72,2.85-14.82,4.9-20.99,4.27-12.79,9.37-18.52,12.53-18.52h0Zm30.83,51.43h37.56c1.82,6.27,2.79,12.9,2.79,19.76s-.98,13.49-2.79,19.76h-37.56c.56-6.48.84-13.12.84-19.76s-.28-13.27-.84-19.76h0Zm32.91-11.91h-34.27c-2.12-14.61-5.75-27.72-10.85-37.04,19.77,5.36,36.15,19.04,45.13,37.04h0Zm-82.35-37.04c-5.1,9.33-8.73,22.43-10.85,37.04h-34.27c8.98-18,25.36-31.68,45.13-37.04h0Zm-45.13,100.38h34.27c2.12,14.61,5.75,27.72,10.85,37.04-19.77-5.36-36.15-19.04-45.13-37.04h0Zm82.35,37.04c5.1-9.33,8.73-22.43,10.85-37.04h34.27c-8.98,18-25.36,31.68-45.13,37.04h0Z"/>
      </g>
    </g>
  </g>
</svg>