<?xml version="1.0" encoding="UTF-8"?>
<svg id="Layer_2" data-name="Layer 2" xmlns="http://www.w3.org/2000/svg" xmlns:xlink="http://www.w3.org/1999/xlink" viewBox="0 0 371.63 371.63">
  <defs>
    <style>
      .cls-1 {
        fill: url(#New_Gradient_Swatch_2);
      }

      .cls-2 {
        fill: #58595b;
      }
    </style>
    <linearGradient id="New_Gradient_Swatch_2" data-name="New Gradient Swatch 2" x1="0" y1="185.81" x2="371.63" y2="185.81" gradientUnits="userSpaceOnUse">
      <stop offset="0" stop-color="#caf1b8"/>
      <stop offset="1" stop-color="#9bcbed"/>
      <stop offset="1" stop-color="#98c9f0"/>
    </linearGradient>
  </defs>
  <g id="Layer_1-2" data-name="Layer 1">
    <g>
      <rect class="cls-1" width="371.63" height="371.63" rx="120.41" ry="120.41"/>
      <path class="cls-2" d="m185.75,281.07c-11.84,0-22.34-2.14-31.52-6.41-9.17-4.27-16.43-10.23-21.76-17.87-5.33-7.64-8.16-16.48-8.47-26.52h26.58c.39,5.48,2.16,10.21,5.29,14.2,3.13,3.99,7.27,7.08,12.41,9.28,5.13,2.2,10.88,3.3,17.23,3.3,6.9,0,13.01-1.29,18.35-3.86,5.33-2.57,9.51-6.12,12.52-10.65,3.02-4.52,4.53-9.78,4.53-15.75s-1.49-11.72-4.47-16.5c-2.98-4.77-7.33-8.49-13.05-11.15-5.72-2.66-12.62-3.98-20.7-3.98h-14.94v-22.91h14.94c6.43,0,12.11-1.25,17.05-3.74s8.8-5.93,11.58-10.33c2.78-4.4,4.17-9.59,4.17-15.57s-1.22-10.73-3.65-15c-2.43-4.27-5.84-7.6-10.23-9.96-4.39-2.37-9.57-3.55-15.52-3.55s-11.05,1.08-15.99,3.24c-4.94,2.16-8.96,5.25-12.05,9.28-3.1,4.03-4.72,8.9-4.88,14.63h-25.52c.24-10.04,3-18.87,8.29-26.46s12.35-13.53,21.17-17.81c8.82-4.28,18.6-6.41,29.34-6.41s20.91,2.3,29.11,6.91c8.19,4.61,14.52,10.75,18.99,18.43,4.47,7.68,6.7,16.04,6.7,25.09,0,10.54-2.75,19.41-8.23,26.59-5.49,7.18-12.82,12.06-21.99,14.63v1.37c11.6,1.91,20.6,6.81,26.99,14.69,6.39,7.89,9.58,17.68,9.58,29.39,0,10.21-2.69,19.34-8.06,27.4-5.37,8.05-12.7,14.4-21.99,19.05-9.29,4.65-19.89,6.97-31.81,6.97Z"/>
    </g>
  </g>
</svg>