<?xml version="1.0" encoding="UTF-8"?>
<svg id="Layer_2" data-name="Layer 2" xmlns="http://www.w3.org/2000/svg" viewBox="0 0 644.48 386.78">
  <defs>
    <style>
      .cls-1 {
        fill: #fff;
      }
    </style>
  </defs>
  <g id="Layer_1-2" data-name="Layer 1">
    <path class="cls-1" d="m119.94.29c-29.22,0-58.88,11.39-63.82,17.62-1.29,2.58-4.28,23.41,2.81,23.41,2.36,0,3.45.41,10.32-2.81,25.78-10.1,42.11-9.86,44.48-9.86,29-2.79,45.75,16.98,43.18,42.55v15.02c-24.49-5.8-38.48-6-45.36-6-35.66-2.15-68.6,16.65-68.6,57.99,0,45.33,40.46,55.02,56.14,54.38,23.42.21,45.77-10.31,60.59-28.57,11.82,26.42,19.34,24.67,19.55,24.67,2.15,0,3.86-.86,5.58-1.93l12.25-8.6c2.15-1.29,3.86-3.42,4.07-6-.21-6.23-11.39-15.9-10.53-37.6v-67.01c1.29-18.48-4.7-36.56-17.16-50.52C158.62,4.57,139.06-1.43,119.94.29h0Zm416.2,0c-42.97,0-67.65,26.84-67.01,54.13,0,37.38,37.79,49.23,42.09,50.52,36.31,11.39,41.26,11.8,51.36,20.39,8.59,8.81,7.51,26.01-5.16,33.53-3.65,2.15-19.35,11.58-54.8,4.28-11.82-2.36-18.03-5.15-27.69-9.23-2.58-.86-8.6-2.37-8.6,5.58v10.53c0,4.94,3,9.43,7.51,11.58,22.56,11.39,49.63,11.83,55.43,11.83.86,0,50.26.03,66.8-33.32,3.42-6.87,12.26-31.97-4.28-53.46-13.75-16.11-25.57-17.83-60.8-28.57-3.01-.86-29-7.54-28.78-25.81-1.29-23.42,30.52-24.68,37.18-24.25,26.85-.43,40.15,9.64,47.46,10.28,3.22,0,4.74-1.91,4.74-6.21v-9.9c.21-2.36-.64-4.7-1.93-6.63-8.59-11.17-41.47-15.27-53.5-15.27h0ZM210.03,5.66c-2.36.43-4.08,2.8-3.65,5.16.43,2.79.86,5.6,1.93,8.39l48.13,158.73c1.07,5.16,4.48,10.76,12,9.9h17.62c10.74,1.07,12.25-9.25,12.46-10.32l31.6-132.34,32.02,132.55c.21,1.07,1.73,11.4,12.25,10.32h17.83c7.73.86,11.39-4.75,12.46-9.9C458.82,3.93,455.15,15.77,455.58,14.05c.86-9.02-4.3-8.4-5.16-8.18h-19.13c-9.67-1.07-11.57,7.75-12,9.9l-35.67,137.71L351.39,15.77c-1.5-10.53-10.1-10.12-12.25-9.9h-16.53c-9.45-.86-11.82,6.68-12.46,9.9l-32.02,135.78L243.76,15.77c-.86-4.3-3.66-10.97-12.04-10.11h-21.69Zm-91.39,99.49c15.47.21,28.82,2.55,38.06,4.7,0,10.74.39,16.77-1.97,26.43-3.01,10.31-16.3,29.03-47.67,29.46-18.05.86-29.86-13.34-28.78-29.46-1.07-25.78,25.54-32.21,40.37-31.13Zm483.76,131.29c-20.05.28-43.72,4.77-61.68,17.37-5.54,3.85-4.57,9.18,1.59,8.48,20.19-2.43,65.14-7.88,73.18,2.39,8.06,10.27-8.91,52.64-16.41,71.58-2.32,5.65,2.59,7.99,7.76,3.69,33.6-28.14,42.33-87.14,35.46-95.63-3.45-4.24-19.85-8.17-39.9-7.89h0ZM4.63,257.92c-4.68.64-6.7,6.58-1.8,11.29,84.15,78.93,195.35,117.57,318.81,117.57,88.06,0,190.29-28.73,260.87-82.87,11.67-9,1.73-22.49-10.24-17.16-79.12,34.91-165.06,51.74-243.28,51.74-115.93,0-228.15-24.2-318.94-79.18-1.99-1.2-3.85-1.6-5.41-1.38h0Z"/>
  </g>
</svg>