<svg data-name="Layer 2" xmlns="http://www.w3.org/2000/svg" viewBox="0 0 141 20.54">
  <path
    d="M24.59 20.38c-.13 0-.26.03-.38-.02-3.36-1.3-6.81-2.09-10.47-2.28V4.87l-.14-.03c-1.78 4.49-3.56 8.97-5.35 13.49-2.81.36-5.5 1.13-8.25 2.19C4.15 13.61 8.23 6.83 12.34 0c1.15 1.93 2.27 3.81 3.4 5.68 2.85 4.77 5.7 9.53 8.56 14.3.08.14.19.27.29.4-.01 0 0 0 0 0Zm100.81-.26V1.45c.11-.02.22-.06.33-.06 2.08.01 4.17-.03 6.26.07 2.14.1 4.14.72 5.85 2.07 1.89 1.5 2.82 3.52 3.07 5.87.21 1.9.04 3.77-.79 5.53-1.41 2.96-3.88 4.52-7.01 4.97-1.72.24-3.49.17-5.24.22-.81.02-1.62 0-2.48 0Zm3.3-3.12c1.2 0 2.39.09 3.55-.02 2.69-.26 4.6-1.83 5.19-4.23.2-.82.27-1.7.23-2.55-.09-1.93-.85-3.56-2.53-4.64-1.99-1.28-4.23-1.12-6.45-1.08V17ZM118.43 1.4h3.26c.01.18.03.34.03.5 0 3.28.04 6.57-.02 9.85-.02 1.23-.16 2.5-.49 3.69-.82 2.96-2.89 4.55-5.9 4.98-1.29.18-2.59.15-3.87-.13-3-.67-4.92-2.74-5.45-5.9-.12-.76-.2-1.54-.2-2.3-.02-3.39 0-6.77.01-10.16v-.5h3.26v.58c0 3.28-.01 6.57.01 9.85.01.72.06 1.46.23 2.15.58 2.48 2.56 3.8 5.08 3.46 2.46-.33 3.93-2.03 4.01-4.78.07-2.53.03-5.05.03-7.58-.01-1.22-.01-2.44-.01-3.71ZM64.56 20.1h-3.52c-.51-1.52-1-3.03-1.52-4.57h-7.46c-.5 1.51-1.01 3.03-1.52 4.57h-3.52c.06-.19.1-.35.16-.53 1.81-5.08 3.62-10.18 5.46-15.26.26-.72.58-1.45 1-2.08 1.09-1.64 3.19-1.65 4.31-.02.36.54.66 1.14.88 1.76 1.89 5.24 3.75 10.49 5.62 15.74.03.1.05.21.1.39Zm-5.94-7.36c-.94-2.84-1.85-5.61-2.76-8.38-.04 0-.07.01-.11.01-.91 2.77-1.83 5.55-2.76 8.37h5.63Zm44.28-8.32h-5.88v15.67h-3.34V4.44H87.8V1.4h15.1v3.01ZM68.81 4.4h-5.87V1.42h15.1v2.96h-5.89v15.71h-3.34V4.4ZM32.96 1.42h3.28v15.69h8.02v2.98H32.95V1.42Zm51.57 18.67h-3.26V1.42h3.26V20.1Z"
    style="fill:#fff" data-name="Layer 1" />
</svg>