<svg version="1.2" xmlns="http://www.w3.org/2000/svg" viewBox="0 0 1345 293" width="1345" height="293">
	<title>latitud-logo-svg</title>
	<style>
		.s0 { fill: none } 
		.s1 { fill: #ffffff } 
	</style>
	<g id="Layer_1">
	</g>
	<g id="Layer_2">
		<g id="Layer">
			<path id="Layer" class="s0" d="m-152.1-119.4h1642.3v533.5h-1642.3z"/>
			<g id="Layer">
				<path id="Layer" class="s1" d="m60.5 236.1c23.9-9.5 47.9-16.1 71.8-19.2l47.1-118.9v116.8c31.5 1.4 63.3 8.5 94.8 21.3l-106.6-178.1z"/>
				<path id="Layer" class="s1" d="m951.2 70.1h-131.5v26.5h51.2v135.7h29.1v-135.7h51.2z"/>
				<path id="Layer" class="s1" d="m345.5 232.1l98.8 0.2v-26.2h-69.7v-136h-29.1z"/>
				<path id="Layer" fill-rule="evenodd" class="s1" d="m575.8 192.5h-64.3l-13.1 39.8h-31l49-137.4c5.9-16.9 13-28 27.2-28 14.2 0 21.3 11.2 27.2 28l49 137.4h-31zm-7.9-23.9l-24.3-73.6-24.3 73.6z"/>
				<path id="Layer" class="s1" d="m736.1 70.1h-131.5v26.3h51.2v135.9h29.1v-135.9h51.2z"/>
				<path id="Layer" fill-rule="evenodd" class="s1" d="m1280.6 151.1c0 49.3-34.8 81.3-88.6 81.3h-46.7v-162.3h46.6c55 0 88.6 30.5 88.7 81zm-28.8-0.1c0-32.6-20.6-54.2-59.2-54.2h-18.7v109h18.7c38.6 0 59.2-21.3 59.2-54.8z"/>
				<path id="Layer" class="s1" d="m1113.7 161c0 48.6-24.6 74.9-68.9 74.9-44.5 0-69.4-26.3-69.2-74.9l0.2-91h28.4v92c0 30.1 14.7 47.4 40.3 47.4 25.8 0 40.5-17.3 40.5-47.4v-91.9h28.7z"/>
				<path id="Layer" class="s1" d="m763.4 70.1h29.1v162.3h-29.1z"/>
			</g>
		</g>
	</g>
</svg>