<?xml version="1.0" encoding="utf-8"?>
<!-- Generator: Adobe Illustrator 25.4.1, SVG Export Plug-In . SVG Version: 6.00 Build 0)  -->
<svg version="1.1" id="Capa_1" xmlns="http://www.w3.org/2000/svg" xmlns:xlink="http://www.w3.org/1999/xlink" x="0px" y="0px"
	 viewBox="0 0 1019.59 154.28" style="enable-background:new 0 0 1019.59 154.28;" xml:space="preserve">
<style type="text/css">
	.st0{fill:#FFFFFF;}
</style>
<g>
	<path class="st0" d="M159.47,124.07V43.83h19.26v1.49c0,2.03-0.47,4.03-1.37,5.84l-0.8,1.72l0.34,0.23l1.83-2.86
		c3-4.93,9.52-8,15.59-8c15.14,0,24.31,10.32,24.31,28.43v4.24c0,16.51-9.17,27.86-24.31,27.86c-5.73,0-11.92-2.41-14.78-7.34h-0.81
		v28.63H159.47z M199.37,75.01v-5c0-8.82-4.24-14.44-10.09-14.44c-6.19,0-10.32,5.5-10.32,14.1v5.85c0,8.71,4.13,14.1,10.55,14.1
		C195.36,89.57,199.37,84.18,199.37,75.01z"/>
	<path class="st0" d="M222.18,101.15V20.9h19.26v80.25H222.18z"/>
	<path class="st0" d="M244.66,86.01c0-11.8,9.28-16.27,21.78-18.57l12.26-2.06c1.61-0.23,2.53-1,2.53-2.18v-0.46
		c0-2.75-3.33-5.16-7.69-5.16c-4.92,0-7.68,2.53-8.48,5.39h-19c0.46-11.23,11.58-20.75,28.2-20.75c16.17,0,27.29,7.57,27.29,20.29
		v38.64h-17.8v-1.72c0.07-2,0.58-3.96,1.49-5.74l0.92-1.94l-0.23-0.12l-2.18,3.1c-3.9,5.84-12.5,8-19.38,8
		C252.45,102.75,244.66,95.76,244.66,86.01z M281.24,81.07v-4.71l-10.9,2.18c-4.35,0.92-6.42,2.53-6.42,5.73
		c0,3,2.87,4.93,6.88,4.93C276.41,89.22,281.24,86.01,281.24,81.07z"/>
	<path class="st0" d="M344.62,101.83c-12.26,2.07-21.89,1-26.82-2.75c-4.47-3.32-6.19-7.56-6.19-14.21V59.19h-9.29V43.83h6
		c1.82,0.2,3.47-1.11,3.67-2.93c0.03-0.25,0.03-0.5,0-0.74v-7.8l19.25-4.24v9.63c0,3.55-1.83,5-3.78,5.73v0.23l17.08,0.12v15.36
		h-13.3v21.55c0,7.11,4.47,7.91,13.41,6.88L344.62,101.83z"/>
	<path class="st0" d="M345.31,86.01c0-11.8,9.29-16.27,21.78-18.57l12.27-2.06c1.6-0.23,2.52-1,2.52-2.18v-0.46
		c0-2.75-3.32-5.16-7.68-5.16c-4.93,0-7.68,2.53-8.48,5.39h-19c0.46-11.23,11.58-20.75,28.2-20.75c16.16,0,27.28,7.57,27.28,20.29
		v38.64h-17.8v-1.72c0.08-2,0.59-3.96,1.49-5.74l0.92-1.94l-0.23-0.12l-2.18,3.1c-3.89,5.84-12.49,8-19.37,8
		C353.11,102.75,345.31,95.76,345.31,86.01z M381.88,81.07v-4.71l-10.89,2.18c-4.35,0.92-6.42,2.53-6.42,5.73
		c0,3,2.87,4.93,6.88,4.93C377.07,89.22,381.88,86.01,381.88,81.07z"/>
	<path class="st0" d="M408.02,101.15V43.83h19.22v0.8c-0.1,1.99-0.8,3.91-2,5.5l-0.57,1l0.34,0.35l2.23-2.49
		c3.89-4.33,9.43-6.79,15.25-6.77c15-0.11,22.81,9.17,22.81,26.83v32.1h-19.33V67.9c0-8-2.64-12.38-8.94-12.38
		c-6.54,0-9.75,4.93-9.75,12.72v32.91H408.02z"/>
	<path class="st0" d="M470.24,75.93v-32.1h19.26v33.24c0,8,2.64,12.38,7.68,12.38c6.31,0,11-4.93,11-12.72v-32.9h19.37v57.32h-19.31
		v-1.26c0.24-1.85,0.91-3.61,1.95-5.16l0.57-0.92l-0.23-0.34l-2.29,2.52c-3.88,4.34-9.43,6.8-15.25,6.76
		C477.95,102.87,470.24,93.58,470.24,75.93z"/>
	<path class="st0" d="M529.31,84.41h19.49c0.57,3.67,3.56,5.39,8.83,5.39c5,0,8.14-2,8.14-4.7c0-2.3-0.69-3.33-7.68-4.59l-10.32-2
		c-11.46-2.06-17.31-8-17.31-17.31c0-12,10.09-19,27-19s26.88,6.56,26.78,18.36h-18.8c-0.11-3.55-3.09-5.38-8-5.38
		c-4.7,0-7.45,1.83-7.45,4.7c0,2.4,1.14,3.66,7.11,4.7l11,1.95c12.14,2.17,17.84,7.45,17.84,16.54c0,12.27-10.89,19.72-28.43,19.72
		C540.24,102.75,529.77,96.07,529.31,84.41z"/>
	<path class="st0" d="M610.13,101.15L584.8,40.39h10.32l20.06,49.68l19.95-49.64h10.31l-25.33,60.76L610.13,101.15z"/>
	<path class="st0" d="M644.41,71c0-20.75,13.42-32,28.78-32c16.74,0,27.51,11.24,27.86,30.73v2.63h-47.12
		c0.57,13,8.14,21.78,20.4,21.78c8.49,0,14.68-4.24,17.2-12.15h9.29c-2.75,12.5-12.61,20.41-26.49,20.41
		C656.34,102.41,644.41,89.22,644.41,71z M691.07,64.46c-1.72-10.66-8.14-17.19-17.83-17.19s-16.74,6.3-18.69,17.19H691.07z"/>
	<path class="st0" d="M707.81,101.15V40.39h7.57l0.91,9.28c4.13-6.42,12-10.66,21.1-10.66c13.07,0,21.78,8.48,21.78,21.9v40.24
		h-9.52v-39.9c0-8.48-5.5-13.87-14.67-13.87c-10.89,0-17.54,7.57-17.66,16.85v36.92L707.81,101.15z"/>
	<path class="st0" d="M792.07,101.15c-11.81,0-18.11-6.08-18.11-17.31V48.41h-11.24v-8h11.24V19.64h9.51v20.75h16.4v8h-16.4v35.43
		c0,6.07,3,9.28,8.6,9.28h6.76v8L792.07,101.15z"/>
	<path class="st0" d="M804.24,80.97V40.39h9.52v40.24c0,8.71,6.08,13.41,14.67,13.41c11.35,0,17.54-7.57,17.66-16.74V40.39h9.51
		v60.76h-7.56l-0.81-9.17c-4,6.87-11.35,10.43-19.71,10.43C812.71,102.41,804.24,93.35,804.24,80.97z"/>
	<path class="st0" d="M865.44,101.15V40.39h7.57l1.15,11.58c3.89-7.8,11-11.9,21.08-11.9h2.06v9.4h-2.06
		c-12.84,0-20.29,7.34-20.29,19.84v31.87L865.44,101.15z"/>
	<path class="st0" d="M896.63,71c0-20.75,13.41-32,28.77-32c16.74,0,27.51,11.24,27.86,30.73v2.63h-47.12
		c0.57,13,8.14,21.78,20.41,21.78c8.48,0,14.67-4.24,17.19-12.15h9.29c-2.75,12.5-12.61,20.41-26.48,20.41
		C908.55,102.41,896.63,89.22,896.63,71z M943.24,64.46c-1.72-10.66-8.14-17.19-17.88-17.19s-16.74,6.3-18.69,17.19H943.24z"/>
	<path class="st0" d="M956.81,82h9.29c0.69,7.91,7.91,12.27,17.08,12.27c8.6,0,12.73-3.33,12.73-9.4c0-5.73-4.48-7-10.78-9.17
		l-8.83-3c-8.94-3-17.88-5.74-17.88-16.74c0-10.32,8-17,21.32-17s22.7,7.22,24.19,20.75h-9.29c-1-8.48-7-12.61-15.24-12.61
		c-7.45,0-11.81,3.33-11.81,8.6c0,6.3,6.65,7.57,11.69,9.28l8.26,2.76c11.12,3.66,17.77,7.45,17.77,17.54
		c0,10.66-7.8,17.08-22.59,17.08C968.24,102.41,957.62,94.84,956.81,82z"/>
	<path class="st0" d="M129.54,56.17c-0.49,1.09-1.1,2.11-1.82,3.06c-14.17,14.25-28.37,28.47-42.6,42.65
		c-2.16,2.15-3.79,2-6.16-0.35c-9.19-9.15-18.36-18.3-27.51-27.46c-3.3-3.32-4.83-3.28-8.16,0.12c-4.67,4.75-9.36,9.48-14.09,14.17
		c-1.45,1.41-3.76,1.41-5.21,0c-2.66-2.58-5.27-5.22-7.88-7.87c-2.45-2.48-2.44-4.2,0.07-6.71l45.67-45.71
		c6.76-6.73,13.52-13.47,20.28-20.22l0,0c15.07,15.06,30.12,30.13,45.17,45.22C128.13,54.05,128.88,55.08,129.54,56.17z
		 M83.02,69.91c1.32-0.62,2.56-1.37,3.72-2.25c2.67-2.51,5.22-5.15,7.74-7.82c2.21-2.35,2.18-4.86,0-7.22
		c-2.46-2.62-5-5.21-7.53-7.72s-5.31-2.58-8,0c-3.71,3.58-7.38,7.26-10.86,11.07c-0.1,0.12-0.1,0.29,0,0.41
		c3.55,4.04,7.3,7.89,11.24,11.55C80.47,68.74,81.71,69.41,83.02,69.91z"/>
	<path class="st0" d="M130.69,96.83c0.09,1.66-1.55,2.63-2.48,3.56c-13.33,13.39-26.67,26.76-40,40.11c-2,2-4,4-6,5.92
		c-11.1-11.07-22.19-22.15-33.26-33.26c-3.85-3.84-7.76-7.63-11.62-11.47c-3.18-3.17-2.79-4.79,1.08-8.27
		c1.68-1.51,3.29-3.14,4.82-4.8c3.25-3.53,4.72-3.87,7.59-1l31.42,31.39l31.88-31.94c2.7-2.7,4.23-2.74,6.88-0.13"/>
</g>
</svg>
