<?xml version="1.0" encoding="UTF-8"?>
<svg id="Layer_2" data-name="Layer 2" xmlns="http://www.w3.org/2000/svg" viewBox="0 0 2289.51 231.35">
  <defs>
    <style>
      .cls-1 {
        fill: #fff;
      }

      .cls-2 {
        fill: #fcd34d;
      }
    </style>
  </defs>
  <g id="Layer_1-2" data-name="Layer 1">
    <g>
      <path class="cls-1" d="m1444.28,52.86l-28.39,81.46-5.17,15.05-4.37,12.43c0,.33-.34,1-.57,1.84l-3.16,9.03h-.41l-2.58-7.53-1.04-3.18-37.98-108.95h-22.99l48.16,130.03h33.5l48.16-130.03-23.16-.17Z"/>
      <path class="cls-1" d="m1557.55,57.54c-8.88-4.45-18.73-6.77-28.73-6.75-11.46-.21-22.75,2.71-32.59,8.42-9.57,5.62-17.25,13.81-22.12,23.59-5.12,10.74-7.81,22.42-7.88,34.25-.07,11.83,2.48,23.54,7.48,34.33,4.78,9.91,12.3,18.35,21.72,24.37,10.11,6.25,21.92,9.44,33.91,9.14,9.16.26,18.25-1.74,26.41-5.8,8.16-4.06,15.13-10.07,20.25-17.45,4.59-6.55,7.88-13.86,9.71-21.58h-22.01c-5.59,17.55-16.66,26.34-33.22,26.37-7.94.19-15.77-1.89-22.52-5.97-6.41-3.92-11.62-9.45-15.06-16-3.53-6.73-5.49-14.14-5.75-21.69h100.34c.34-2.96.52-5.94.52-8.92.45-12.35-2.44-24.59-8.39-35.52-5.07-8.9-12.75-16.14-22.07-20.8Zm-69.76,49.12c1.01-10.33,5.35-20.09,12.41-27.88,3.99-3.72,8.75-6.58,13.95-8.4,5.21-1.82,10.76-2.55,16.28-2.14,4.74-.17,9.47.66,13.86,2.43,4.38,1.77,8.32,4.44,11.54,7.83,6.88,7.95,10.75,17.95,10.98,28.33l-79.02-.17Z"/>
      <path class="cls-1" d="m1671.11,50.8c-10.4-.13-20.54,3.2-28.73,9.42-7.48,5.4-13.41,12.56-17.24,20.8v.45-28.77h-20.98v130.03h20.98v-64.63c-.19-9.09,1.97-18.07,6.26-26.15,3.72-7.12,9.26-13.18,16.09-17.62,5.97-3.99,13.04-6.17,20.29-6.25,4.41-.25,8.83.39,12.97,1.88,4.14,1.49,7.92,3.79,11.11,6.76,5.74,5.58,8.68,15.72,8.68,29.94v76.22h20.91v-77c0-18.59-4.32-32.38-12.98-41.37-4.84-4.77-10.68-8.46-17.13-10.83-6.45-2.37-13.35-3.35-20.23-2.89Z"/>
      <path class="cls-1" d="m1776.39,16.28h-20.97v36.58h-25.12v17.23h25.12v74.83c-.39,7.94.96,15.86,3.96,23.25,2.32,5.24,6.68,9.39,12.13,11.54,7.37,2.54,15.17,3.68,22.99,3.35h19.88v-17.29h-20c-2.54.33-5.13.14-7.6-.57-2.46-.7-4.75-1.9-6.71-3.51-2.84-4.57-4.07-9.91-3.5-15.22v-76.39h37.7v-17.23h-37.7l-.18-36.58Z"/>
      <path class="cls-1" d="m1926.16,117.6c.19,9.09-1.96,18.08-6.26,26.15-3.77,7.23-9.39,13.4-16.33,17.9-5.98,3.95-13.04,6.11-20.28,6.19-4.42.27-8.84-.36-12.98-1.85-4.15-1.49-7.93-3.8-11.1-6.79-5.75-5.58-8.68-15.72-8.68-29.94V52.86h-20.92v77.17c0,18.59,4.33,32.4,12.99,41.43,4.79,4.64,10.54,8.24,16.87,10.55,6.33,2.32,13.1,3.3,19.85,2.88,7.31.05,14.53-1.56,21.09-4.68,6.18-2.85,11.74-6.83,16.38-11.71,3.91-3.97,6.92-8.67,8.85-13.83v-.33,28.55h20.98V52.86h-20.92l.46,64.74Z"/>
      <path class="cls-1" d="m2044.55,50.8c-8.66-.31-17.32.72-25.64,3.07-5.54,1.62-10.46,4.8-14.13,9.14-4.14,5.46-7.49,11.44-9.94,17.79-.16.25-.34.49-.52.72v-28.6h-20.98v130.03h20.98v-66.35c0-16.1,3.04-27.66,9.14-34.68,6.09-7.03,16.95-10.54,32.47-10.54,3.62,0,6.55,0,8.62.28v-20.85Z"/>
      <path class="cls-1" d="m2134.77,57.54c-8.88-4.46-18.73-6.77-28.73-6.75-11.46-.21-22.75,2.71-32.59,8.42-9.57,5.62-17.26,13.81-22.12,23.59-5.08,10.75-7.75,22.42-7.82,34.25-.07,11.83,2.46,23.53,7.42,34.33,4.78,9.91,12.3,18.35,21.72,24.37,10.11,6.25,21.92,9.44,33.91,9.14,9.09.24,18.1-1.76,26.2-5.79,8.1-4.04,15.01-9.98,20.12-17.29,4.63-6.52,7.93-13.85,9.71-21.58h-22.01c-5.6,17.54-16.67,26.34-33.22,26.37-7.95.19-15.78-1.89-22.53-5.97-6.4-3.94-11.6-9.46-15.06-16-3.53-6.74-5.49-14.14-5.74-21.69h100.45c.34-2.96.52-5.94.52-8.92.45-12.35-2.44-24.59-8.39-35.52-4.99-8.93-12.58-16.22-21.84-20.97Zm-69.77,49.12c1.02-10.33,5.36-20.09,12.42-27.88,3.99-3.72,8.75-6.58,13.95-8.4,5.21-1.82,10.76-2.55,16.28-2.14,4.74-.17,9.47.66,13.85,2.43,4.39,1.77,8.33,4.44,11.55,7.83,6.9,7.94,10.79,17.94,11.03,28.33l-79.08-.17Z"/>
      <path class="cls-1" d="m2276.43,119.38c-11.8-6.34-24.87-10.14-38.33-11.15-8.17-.67-16.22-2.34-23.96-4.96-4.04-1.25-7.63-3.59-10.35-6.75-1.58-2.43-2.4-5.26-2.35-8.14.09-2.76.83-5.47,2.18-7.91,1.35-2.44,3.25-4.54,5.57-6.14,6.91-4.69,15.28-6.9,23.68-6.25,4.31-.4,8.66.03,12.79,1.28,4.14,1.24,7.97,3.27,11.29,5.97,4.89,4.88,7.77,11.32,8.1,18.12h20.69c-.22-5.84-1.64-11.57-4.17-16.86-2.54-5.3-6.14-10.05-10.6-13.97-10.45-8.36-23.77-12.58-37.29-11.82-9.9-.35-19.74,1.56-28.74,5.58-7.37,3.34-13.7,8.51-18.33,15-4.06,5.67-6.24,12.39-6.26,19.29.03,4.32,1.09,8.58,3.08,12.44,1.99,3.87,4.87,7.24,8.41,9.86,9.38,6.86,20.63,10.87,32.35,11.54,9.26.91,18.44,2.44,27.47,4.57,4.88,1.03,9.42,3.21,13.22,6.36,1.31,1.41,2.32,3.06,2.97,4.85.65,1.79.93,3.68.82,5.58.13,3.63-.94,7.2-3.04,10.2-2.97,3.73-6.95,6.58-11.49,8.25-6.41,2.49-13.28,3.65-20.18,3.4-4.98.41-10-.14-14.77-1.62-4.76-1.48-9.18-3.87-12.98-7.02-2.87-2.7-5.16-5.94-6.73-9.51s-2.39-7.41-2.41-11.29h-20.4c.03,6.45,1.46,12.82,4.18,18.71,2.72,5.89,6.68,11.15,11.62,15.47,11.37,8.83,25.69,13.29,40.23,12.55,14.72.84,29.31-3.08,41.49-11.15,4.95-3.59,8.93-8.29,11.6-13.7,2.66-5.41,3.93-11.37,3.69-17.36.23-4.69-.87-9.34-3.16-13.47-2.3-4.13-5.72-7.57-9.89-9.95Z"/>
      <path class="cls-2" d="m412.65,54.14c-9.35-6.41-20.56-9.77-32.01-9.59-9.06-.25-17.99,2.07-25.71,6.68-7.72,4.61-13.88,11.3-17.74,19.25-.3.61-.67,1.19-1.09,1.73v-23.7h-41.67v182.83h41.84v-72.49c.42.54.79,1.12,1.09,1.73,3.75,8.05,9.88,14.84,17.62,19.51,7.73,4.66,16.73,7,25.83,6.7,11.48.24,22.75-3.06,32.18-9.42,9.26-6.46,16.46-15.31,20.8-25.54,9.61-23.26,9.61-49.22,0-72.49-4.48-10.16-11.81-18.89-21.15-25.2Zm-21.61,87.82c-2.57,3.45-5.99,6.21-9.94,8.03-3.96,1.82-8.33,2.65-12.7,2.4-4.49.12-8.94-.78-13-2.63-4.06-1.85-7.62-4.6-10.39-8.02-6.11-7.3-9.33-16.47-9.08-25.87-.26-9.4,2.96-18.58,9.08-25.87,2.77-3.43,6.32-6.19,10.38-8.05,4.06-1.86,8.52-2.77,13.01-2.66,4.37-.24,8.74.59,12.69,2.41,3.96,1.82,7.38,4.58,9.95,8.02,5.07,7.84,7.76,16.9,7.76,26.15s-2.69,18.32-7.76,26.15v-.06Z"/>
      <path class="cls-2" d="m492.08,0h-41.89v182.84h41.89V0Z"/>
      <path class="cls-2" d="m639.71,108.73c0-24.61-5.9-41.34-17.7-50.18-13.44-9.76-29.95-14.7-46.72-14-16.17-.27-32.1,3.86-45.98,11.93-6.59,3.94-12.13,9.32-16.2,15.71-4.06,6.39-6.52,13.61-7.19,21.09h41.38c.96-5.25,3.79-10,7.99-13.44,5.68-3.65,12.46-5.34,19.25-4.8,6.47-.66,12.95,1.16,18.04,5.07,1.74,1.56,3.14,3.43,4.13,5.52.99,2.09,1.54,4.34,1.62,6.64.22,1.95-.34,3.91-1.55,5.47-1.22,1.56-3.01,2.62-5,2.95-7.76,1.55-15.64,2.39-23.56,2.51-2.24,0-6.21,0-11.49.5-14.02.28-27.69,4.33-39.48,11.71-7.82,6.02-13.11,14.61-14.88,24.14-1.77,9.54.11,19.37,5.28,27.66,4.32,6.19,10.27,11.14,17.24,14.33,7.67,3.72,16.14,5.63,24.71,5.58,10.04.25,19.92-2.41,28.39-7.64,8.05-5.21,14.52-12.4,18.73-20.85.27-.39.5-.8.69-1.23v25.82h42.24v-38.31l.06-36.19Zm-48.33,32.73c-3.69,5.59-8.82,10.15-14.88,13.21-4.71,2.47-9.94,3.86-15.29,4.07-4.55.15-9.03-1.18-12.7-3.79-1.68-1.25-3.03-2.87-3.92-4.74-.89-1.87-1.3-3.91-1.19-5.97-.16-2.24.22-4.48,1.1-6.55.89-2.07,2.26-3.91,4.01-5.38,3.79-2.84,8.38-4.51,13.16-4.79,12.41-1.56,20.75-2.79,25-3.68,4.23-.91,8.1-2.98,11.15-5.97.39,8.32-1.86,16.55-6.44,23.59Z"/>
      <path class="cls-2" d="m707.87,12.21h-41.9v36.58h-25.11v32.51h25.11v60.44c-.4,8.49,1.07,16.97,4.31,24.87,2.61,5.67,7.33,10.17,13.22,12.6,7.34,2.67,15.15,3.92,22.99,3.68h38.79v-32.4h-25.17c-2.99.12-5.98-.1-8.91-.67-.76-.19-1.46-.59-1.99-1.15-.53-.57-.88-1.27-1-2.02-.52-3.1-.74-6.23-.63-9.37v-55.76h37.7v-32.51h-37.7l.29-36.8Z"/>
      <path class="cls-2" d="m873.44,58.32c-13.48-9.61-29.96-14.41-46.66-13.61-16.18-.29-32.11,3.85-45.97,11.93-6.6,3.93-12.17,9.3-16.24,15.69-4.07,6.39-6.54,13.62-7.21,21.11h41.32c.96-5.25,3.79-10,7.99-13.44,5.68-3.65,12.46-5.33,19.25-4.8,6.48-.65,12.97,1.17,18.1,5.07,3.39,3.2,5.35,7.57,5.46,12.16.22,1.95-.34,3.91-1.55,5.47-1.22,1.56-3.01,2.62-5,2.95-7.76,1.55-15.64,2.39-23.56,2.51-2.24,0-6.21,0-11.78.5-14.02.28-27.69,4.33-39.48,11.71-7.66,6.13-12.78,14.74-14.39,24.24-1.62,9.5.37,19.26,5.6,27.45,4.34,6.18,10.28,11.12,17.24,14.33,7.67,3.71,16.14,5.62,24.71,5.58,10.04.26,19.92-2.4,28.39-7.64,8.07-5.19,14.54-12.39,18.73-20.85.27-.39.5-.8.69-1.23v25.82h42.24v-74.55c-.12-24.61-6.07-41.41-17.87-50.41Zm-30.57,83.14c-3.72,5.58-8.87,10.13-14.94,13.21-4.73,2.48-9.98,3.87-15.34,4.07-4.53.14-8.98-1.2-12.64-3.79-1.68-1.25-3.03-2.87-3.92-4.74-.89-1.87-1.3-3.91-1.19-5.97-.16-2.24.22-4.48,1.1-6.55s2.26-3.91,4.01-5.38c3.82-2.84,8.42-4.51,13.22-4.79,12.38-1.56,20.71-2.79,25-3.68,4.2-.94,8.04-3.01,11.09-5.97.38,8.31-1.85,16.53-6.38,23.59Z"/>
      <path class="cls-2" d="m995.56,44.55c-10.21-.21-20.15,3.18-27.99,9.53-7.54,5.95-13.63,13.46-17.82,21.97,0,0-.29.5-.4.78v-28.21h-42.24v134.1h41.84v-51.58c-.14-9.16,1.38-18.28,4.48-26.93,2.36-7.01,6.45-13.37,11.9-18.51,4.29-4.13,10.05-6.51,16.09-6.64,3.35-.27,6.7.38,9.69,1.87,2.99,1.49,5.48,3.76,7.21,6.55,3.37,5.58,5.08,15.65,5.12,30.22v65.02h41.83v-81.13c0-18.59-4.44-32.71-13.33-42.38-4.56-4.91-10.2-8.77-16.49-11.3-6.29-2.54-13.08-3.68-19.89-3.36Z"/>
      <path class="cls-2" d="m1153.03,100.31c.16,9.16-1.34,18.28-4.43,26.93-2.37,7.03-6.45,13.4-11.89,18.57-4.32,4.12-10.1,6.48-16.15,6.58-3.33.26-6.67-.39-9.64-1.87-2.97-1.48-5.47-3.72-7.2-6.49-3.45-5.58-5.12-15.67-5.12-30.22V48.79h-41.89v81.24c0,18.59,4.46,32.73,13.39,42.43,4.6,4.86,10.24,8.68,16.52,11.18,6.29,2.51,13.07,3.64,19.86,3.32,10.08.19,19.89-3.2,27.58-9.54,7.53-6.06,13.73-13.53,18.22-21.97.22-.52.49-1.03.81-1.51v28.66h41.89V48.79h-41.95v51.52Z"/>
      <path class="cls-2" d="m1322.5,110.63c-14.16-7.89-30.06-12.39-46.37-13.1-7.04-.11-14-1.49-20.52-4.07-1.42-.56-2.65-1.5-3.55-2.7-.9-1.2-1.45-2.62-1.56-4.1-.03-1.71.43-3.39,1.31-4.87.88-1.48,2.15-2.71,3.68-3.55,4.86-2.34,10.28-3.38,15.69-3.01,13.95,0,21.19,5.41,21.73,16.23h41.37c-.11-6.83-1.86-13.54-5.12-19.6-3.25-6.06-7.91-11.3-13.61-15.31-12.86-8.34-28.1-12.53-43.56-11.99-11.81-.31-23.55,1.76-34.48,6.08-8.6,3.33-16.11,8.86-21.73,16-4.76,6.25-7.34,13.81-7.35,21.58-.08,10,3.55,19.7,10.23,27.32,6.78,8.03,20.74,13.27,41.89,15.61,9.33.73,18.56,2.29,27.59,4.68,5.74,1.78,8.27,4.57,8.27,8.25-.02,1.85-.57,3.67-1.59,5.24-1.01,1.57-2.45,2.85-4.15,3.68-5.83,2.57-12.23,3.71-18.62,3.29-7.16.68-14.31-1.32-20-5.57-2.04-1.89-3.66-4.15-4.77-6.67-1.1-2.51-1.67-5.21-1.67-7.94h-41.38c.07,7.16,1.74,14.21,4.9,20.67,3.17,6.46,7.76,12.18,13.44,16.74,11.49,8.92,27.47,13.38,48.44,13.38,12.21.35,24.38-1.54,35.86-5.58,9.13-3.2,17.19-8.78,23.28-16.11,5.32-6.64,8.18-14.84,8.1-23.25.45-6.1-.77-12.22-3.54-17.72-2.76-5.5-6.97-10.2-12.21-13.62Z"/>
      <path class="cls-2" d="m60.72,108.1l50.17,50.43c.57.58,1.25,1.04,2,1.35.75.31,1.55.48,2.36.48s1.62-.16,2.36-.48c.75-.31,1.43-.77,2-1.35l73.66-73.99c.58-.57,1.03-1.26,1.35-2.01s.47-1.56.47-2.38-.16-1.62-.47-2.38c-.31-.75-.77-1.44-1.35-2.01L119.63,1.74c-1.18-1.12-2.74-1.74-4.37-1.74s-3.18.62-4.37,1.74L1.82,111.31c-.58.57-1.03,1.26-1.35,2.01-.31.75-.47,1.56-.47,2.38s.16,1.62.47,2.38c.31.75.77,1.44,1.35,2.01l14.76,14.83c.57.58,1.26,1.04,2.01,1.35.75.31,1.56.48,2.37.48s1.62-.16,2.37-.48c.75-.31,1.44-.77,2.01-1.35l26.65-26.8c1.18-1.12,2.74-1.74,4.37-1.74s3.18.62,4.37,1.74Zm75.42-34.13c.8.79,1.43,1.74,1.86,2.78.43,1.04.65,2.16.65,3.29s-.22,2.24-.65,3.29c-.43,1.04-1.06,1.99-1.86,2.78l-13.61,13.77c-.79.8-1.73,1.44-2.77,1.87-1.04.43-2.15.66-3.27.66s-2.24-.22-3.27-.66c-1.04-.43-1.98-1.07-2.77-1.87l-13.71-13.77c-.8-.79-1.43-1.74-1.86-2.78-.43-1.04-.65-2.16-.65-3.29s.22-2.24.65-3.29c.43-1.04,1.06-1.99,1.86-2.78l13.71-13.77c1.59-1.62,3.75-2.54,6.01-2.56,2.26-.02,4.44.85,6.07,2.44l13.61,13.9Z"/>
      <path class="cls-2" d="m194.47,145.53l-14.76-14.82c-.57-.58-1.25-1.04-2-1.35-.75-.31-1.55-.47-2.37-.47s-1.62.16-2.37.47c-.75.31-1.43.77-2,1.35l-51.35,51.58c-.57.58-1.25,1.04-2,1.35-.75.31-1.55.47-2.36.47s-1.62-.16-2.36-.47c-.75-.31-1.43-.77-2-1.35l-50.17-50.4c-.57-.58-1.25-1.04-2-1.35-.75-.31-1.55-.48-2.37-.48s-1.62.16-2.37.48c-.75.31-1.43.77-2,1.35l-14.79,14.86c-1.11,1.19-1.73,2.76-1.73,4.39s.62,3.2,1.73,4.39l73.69,73.99c.57.58,1.25,1.04,2,1.35.75.31,1.55.48,2.36.48s1.62-.16,2.36-.48c.75-.31,1.43-.77,2-1.35l74.84-75.18c.58-.58,1.04-1.26,1.35-2.02.31-.76.47-1.57.47-2.38s-.16-1.63-.47-2.38c-.31-.76-.77-1.44-1.35-2.02Z"/>
    </g>
  </g>
</svg>