<?xml version="1.0" encoding="UTF-8"?>
<svg xmlns="http://www.w3.org/2000/svg" xmlns:xlink="http://www.w3.org/1999/xlink" width="105.8pt" height="21.5pt" viewBox="0 0 105.8 21.5" version="1.1">
<defs>
<clipPath id="clip1">
  <path d="M 13 4 L 33 4 L 33 21.5 L 13 21.5 Z M 13 4 "/>
</clipPath>
<clipPath id="clip2">
  <path d="M 75 8 L 88 8 L 88 21.5 L 75 21.5 Z M 75 8 "/>
</clipPath>
<clipPath id="clip3">
  <path d="M 96 1 L 105.800781 1 L 105.800781 8 L 96 8 Z M 96 1 "/>
</clipPath>
<clipPath id="clip4">
  <path d="M 94 0 L 105.800781 0 L 105.800781 10 L 94 10 Z M 94 0 "/>
</clipPath>
<clipPath id="clip5">
  <path d="M 96 0 L 105.800781 0 L 105.800781 9 L 96 9 Z M 96 0 "/>
</clipPath>
<clipPath id="clip6">
  <path d="M 96 8 L 105.800781 8 L 105.800781 21 L 96 21 Z M 96 8 "/>
</clipPath>
</defs>
<g id="surface1">
<path style="fill-rule:evenodd;fill:rgb(0%,25.87738%,48.631287%);fill-opacity:1;stroke-width:2.599;stroke-linecap:butt;stroke-linejoin:miter;stroke:rgb(0%,25.87738%,48.631287%);stroke-opacity:1;stroke-miterlimit:4;" d="M 150.976563 194.453125 L 200.820313 193.242188 C 200.234375 150.546875 125.703125 179.84375 125.546875 150.859375 L 125.234375 80.9375 C 124.84375 0.625 0.859375 25.117188 3.4375 45 L 45.039063 43.867188 C 69.023438 43.242188 90.234375 56.132813 90.546875 78.90625 L 91.523438 151.640625 C 91.914063 179.453125 125.820313 195.117188 150.976563 194.453125 Z M 150.976563 194.453125 " transform="matrix(0.1,0,0,-0.1,0,21.5)"/>
<path style="fill-rule:evenodd;fill:rgb(0%,25.87738%,48.631287%);fill-opacity:1;stroke-width:2.599;stroke-linecap:butt;stroke-linejoin:miter;stroke:rgb(0%,25.87738%,48.631287%);stroke-opacity:1;stroke-miterlimit:4;" d="M 247.460938 90.039063 L 247.539063 135.742188 C 247.578125 178.320313 347.265625 186.25 350.898438 133.867188 L 351.640625 26.484375 C 366.132813 25.273438 382.304688 36.132813 383.4375 46.914063 L 383.789063 138.789063 C 383.4375 215.46875 216.132813 208.28125 212.929688 137.695313 C 212.929688 136.992188 212.96875 106.40625 212.96875 95.390625 C 212.96875 92.851563 245.859375 90.234375 247.460938 90.039063 Z M 247.460938 90.039063 " transform="matrix(0.1,0,0,-0.1,0,21.5)"/>
<path style=" stroke:none;fill-rule:evenodd;fill:rgb(100%,100%,100%);fill-opacity:1;" d="M 21.714844 12.433594 L 21.71875 9.285156 C 21.71875 8.132813 24.308594 8.03125 24.308594 9.253906 L 24.308594 12.394531 L 27.796875 12.378906 C 29.683594 12.371094 29.359375 14.792969 27.703125 14.785156 L 24.515625 14.777344 L 24.445313 18.191406 C 24.410156 19.757813 21.671875 19.71875 21.6875 18.191406 L 21.722656 14.71875 L 17.769531 14.730469 C 16.359375 14.734375 16.351563 12.5 17.726563 12.484375 Z M 21.714844 12.433594 "/>
<g clip-path="url(#clip1)" clip-rule="nonzero">
<path style="fill:none;stroke-width:6.496;stroke-linecap:butt;stroke-linejoin:miter;stroke:rgb(0%,25.87738%,48.631287%);stroke-opacity:1;stroke-miterlimit:4;" d="M 217.148438 90.664063 L 217.1875 122.148438 C 217.1875 133.671875 243.085938 134.6875 243.085938 122.460938 L 243.085938 91.054688 L 277.96875 91.210938 C 296.835938 91.289063 293.59375 67.070313 277.03125 67.148438 L 245.15625 67.226563 L 244.453125 33.085938 C 244.101563 17.421875 216.71875 17.8125 216.875 33.085938 L 217.226563 67.8125 L 177.695313 67.695313 C 163.59375 67.65625 163.515625 90 177.265625 90.15625 Z M 217.148438 90.664063 " transform="matrix(0.1,0,0,-0.1,0,21.5)"/>
</g>
<path style="fill-rule:evenodd;fill:rgb(0%,25.87738%,48.631287%);fill-opacity:1;stroke-width:2.6;stroke-linecap:butt;stroke-linejoin:miter;stroke:rgb(0%,25.87738%,48.631287%);stroke-opacity:1;stroke-miterlimit:4;" d="M 508.046875 160.78125 L 507.851563 177.734375 C 507.65625 193.632813 542.8125 196.601563 544.101563 177.03125 L 544.375 136.953125 C 549.453125 136.484375 555.117188 140.546875 555.507813 144.570313 L 555.625 178.867188 C 555.507813 207.5 496.875 204.804688 495.78125 178.476563 C 495.78125 178.203125 495.78125 141.914063 495.78125 137.8125 C 495.78125 137.226563 504.179688 135.664063 505.46875 144.023438 L 506.835938 152.65625 L 527.539063 152.773438 C 533.359375 152.8125 537.617188 160.820313 536.5625 160.820313 Z M 508.046875 160.78125 " transform="matrix(0.1,0,0,-0.1,0,21.5)"/>
<path style="fill-rule:evenodd;fill:rgb(0%,25.87738%,48.631287%);fill-opacity:1;stroke-width:2.6;stroke-linecap:butt;stroke-linejoin:miter;stroke:rgb(0%,25.87738%,48.631287%);stroke-opacity:1;stroke-miterlimit:4;" d="M 583.125 177.929688 C 582.929688 193.789063 619.296875 196.601563 620.585938 177.03125 L 620.898438 136.953125 C 625.9375 136.484375 631.601563 140.546875 632.03125 144.570313 L 632.148438 178.867188 C 632.03125 207.5 573.398438 204.804688 572.226563 178.476563 C 572.226563 178.203125 572.226563 141.914063 572.226563 137.8125 C 572.226563 137.226563 583.320313 135.546875 583.320313 144.023438 Z M 583.125 177.929688 " transform="matrix(0.1,0,0,-0.1,0,21.5)"/>
<path style="fill-rule:evenodd;fill:rgb(0%,25.87738%,48.631287%);fill-opacity:1;stroke-width:2.6;stroke-linecap:butt;stroke-linejoin:miter;stroke:rgb(0%,25.87738%,48.631287%);stroke-opacity:1;stroke-miterlimit:4;" d="M 656.367188 160.78125 L 656.171875 177.734375 C 655.976563 193.632813 691.171875 196.601563 692.421875 177.03125 L 692.695313 136.953125 C 697.773438 136.484375 703.4375 140.546875 703.828125 144.570313 L 703.945313 178.867188 C 703.828125 207.5 645.195313 204.804688 644.0625 178.476563 C 644.0625 178.203125 644.0625 141.914063 644.0625 137.8125 C 644.0625 137.226563 652.539063 135.664063 653.789063 144.023438 L 655.117188 152.65625 L 675.859375 152.773438 C 681.640625 152.8125 685.9375 160.820313 684.882813 160.820313 Z M 656.367188 160.78125 " transform="matrix(0.1,0,0,-0.1,0,21.5)"/>
<path style="fill-rule:evenodd;fill:rgb(0%,25.87738%,48.631287%);fill-opacity:1;stroke-width:2.599;stroke-linecap:butt;stroke-linejoin:miter;stroke:rgb(0%,25.87738%,48.631287%);stroke-opacity:1;stroke-miterlimit:4;" d="M 718.398438 201.40625 L 766.445313 201.210938 C 765.898438 197.34375 763.789063 194.101563 758.515625 194.375 L 744.21875 194.414063 L 744.023438 144.6875 C 743.710938 140 740.351563 137.695313 734.0625 137.734375 L 733.710938 191.09375 C 733.710938 192.96875 733.398438 194.023438 731.601563 194.453125 L 712.929688 194.257813 C 713.085938 199.335938 715.117188 201.40625 718.398438 201.40625 Z M 718.398438 201.40625 " transform="matrix(0.1,0,0,-0.1,0,21.5)"/>
<path style="fill-rule:evenodd;fill:rgb(0%,25.87738%,48.631287%);fill-opacity:1;stroke-width:2.599;stroke-linecap:butt;stroke-linejoin:miter;stroke:rgb(0%,25.87738%,48.631287%);stroke-opacity:1;stroke-miterlimit:4;" d="M 818.007813 203.320313 C 843.632813 203.320313 864.414063 188.398438 864.414063 169.960938 C 864.414063 151.5625 843.632813 136.640625 818.007813 136.640625 C 792.382813 136.640625 771.601563 151.5625 771.601563 169.960938 C 771.601563 188.398438 792.382813 203.320313 818.007813 203.320313 Z M 818.007813 203.320313 " transform="matrix(0.1,0,0,-0.1,0,21.5)"/>
<path style="fill-rule:evenodd;fill:rgb(100%,100%,100%);fill-opacity:1;stroke-width:2.599;stroke-linecap:butt;stroke-linejoin:miter;stroke:rgb(0%,25.87738%,48.631287%);stroke-opacity:1;stroke-miterlimit:4;" d="M 818.007813 194.414063 C 836.835938 194.414063 852.109375 183.476563 852.109375 169.960938 C 852.109375 156.445313 836.835938 145.507813 818.007813 145.507813 C 799.21875 145.507813 783.984375 156.445313 783.984375 169.960938 C 783.984375 183.476563 799.21875 194.414063 818.007813 194.414063 Z M 818.007813 194.414063 " transform="matrix(0.1,0,0,-0.1,0,21.5)"/>
<path style="fill-rule:evenodd;fill:rgb(0%,25.87738%,48.631287%);fill-opacity:1;stroke-width:2.599;stroke-linecap:butt;stroke-linejoin:miter;stroke:rgb(0%,25.87738%,48.631287%);stroke-opacity:1;stroke-miterlimit:4;" d="M 473.710938 199.921875 L 492.734375 199.453125 C 492.539063 183.125 464.023438 194.335938 463.984375 183.242188 L 463.867188 156.523438 C 463.710938 125.820313 416.289063 135.195313 417.304688 142.773438 L 433.203125 142.34375 C 442.34375 142.109375 450.46875 147.03125 450.585938 155.742188 L 450.976563 183.554688 C 451.132813 194.179688 464.0625 200.15625 473.710938 199.921875 Z M 473.710938 199.921875 " transform="matrix(0.1,0,0,-0.1,0,21.5)"/>
<path style="fill-rule:evenodd;fill:rgb(0%,25.87738%,48.631287%);fill-opacity:1;stroke-width:2.588;stroke-linecap:butt;stroke-linejoin:miter;stroke:rgb(0%,25.87738%,48.631287%);stroke-opacity:1;stroke-miterlimit:4;" d="M 444.53125 55.390625 L 444.21875 80.546875 C 443.945313 104.101563 493.515625 108.515625 495.3125 79.492188 L 495.703125 20.117188 C 502.851563 19.414063 510.898438 25.429688 511.40625 31.40625 L 511.601563 82.226563 C 511.40625 124.648438 428.710938 120.664063 427.148438 81.640625 C 427.148438 81.25 427.148438 27.460938 427.148438 21.367188 C 427.148438 20.507813 439.023438 18.164063 440.898438 30.585938 L 442.734375 43.359375 L 471.914063 43.59375 C 480.117188 43.632813 486.132813 55.46875 484.648438 55.46875 Z M 444.53125 55.390625 " transform="matrix(0.1,0,0,-0.1,0,21.5)"/>
<path style=" stroke:none;fill-rule:evenodd;fill:rgb(0%,25.87738%,48.631287%);fill-opacity:1;" d="M 78.253906 13.074219 C 78.21875 10.550781 83.769531 10.109375 83.964844 13.214844 L 84.003906 19.585938 C 84.777344 19.660156 85.644531 19.015625 85.707031 18.375 L 85.722656 12.925781 C 85.707031 8.375 76.757813 8.800781 76.589844 12.988281 C 76.585938 13.03125 76.589844 18.800781 76.589844 19.453125 C 76.589844 19.546875 78.273438 19.8125 78.269531 18.464844 Z M 78.253906 13.074219 "/>
<g clip-path="url(#clip2)" clip-rule="nonzero">
<path style="fill:none;stroke-width:2.595;stroke-linecap:butt;stroke-linejoin:miter;stroke:rgb(0%,25.87738%,48.631287%);stroke-opacity:1;stroke-miterlimit:4;" d="M 782.539063 84.257813 C 782.1875 109.492188 837.695313 113.90625 839.648438 82.851563 L 840.039063 19.140625 C 847.773438 18.398438 856.445313 24.84375 857.070313 31.25 L 857.226563 85.742188 C 857.070313 131.25 767.578125 126.992188 765.898438 85.117188 C 765.859375 84.6875 765.898438 26.992188 765.898438 20.46875 C 765.898438 19.53125 782.734375 16.875 782.695313 30.351563 Z M 782.539063 84.257813 " transform="matrix(0.1,0,0,-0.1,0,21.5)"/>
</g>
<path style="fill-rule:evenodd;fill:rgb(0%,25.87738%,48.631287%);fill-opacity:1;stroke-width:2.599;stroke-linecap:butt;stroke-linejoin:miter;stroke:rgb(0%,25.87738%,48.631287%);stroke-opacity:1;stroke-miterlimit:4;" d="M 872.539063 137.578125 L 872.539063 202.734375 L 905.898438 202.382813 C 928.476563 202.03125 937.34375 171.5625 910.117188 166.757813 L 924.453125 149.140625 C 926.875 145.820313 927.304688 141.40625 923.007813 137.578125 L 890.820313 171.640625 L 906.054688 171.484375 C 920.234375 171.484375 916.71875 194.257813 904.765625 194.453125 L 884.375 194.648438 L 883.671875 145.859375 C 883.359375 140.78125 879.6875 137.421875 872.539063 137.578125 Z M 872.539063 137.578125 " transform="matrix(0.1,0,0,-0.1,0,21.5)"/>
<g clip-path="url(#clip3)" clip-rule="nonzero">
<path style=" stroke:none;fill-rule:evenodd;fill:rgb(0%,25.87738%,48.631287%);fill-opacity:1;" d="M 101.074219 1.167969 C 103.636719 1.167969 105.714844 2.660156 105.714844 4.503906 C 105.714844 6.34375 103.636719 7.835938 101.074219 7.835938 C 98.511719 7.835938 96.433594 6.34375 96.433594 4.503906 C 96.433594 2.660156 98.511719 1.167969 101.074219 1.167969 Z M 101.074219 1.167969 "/>
</g>
<g clip-path="url(#clip4)" clip-rule="nonzero">
<path style="fill:none;stroke-width:2.599;stroke-linecap:butt;stroke-linejoin:miter;stroke:rgb(0%,25.87738%,48.631287%);stroke-opacity:1;stroke-miterlimit:4;" d="M 1010.742188 203.320313 C 1036.367188 203.320313 1057.148438 188.398438 1057.148438 169.960938 C 1057.148438 151.5625 1036.367188 136.640625 1010.742188 136.640625 C 985.117188 136.640625 964.335938 151.5625 964.335938 169.960938 C 964.335938 188.398438 985.117188 203.320313 1010.742188 203.320313 Z M 1010.742188 203.320313 " transform="matrix(0.1,0,0,-0.1,0,21.5)"/>
</g>
<path style=" stroke:none;fill-rule:evenodd;fill:rgb(100%,100%,100%);fill-opacity:1;" d="M 101.074219 2.058594 C 102.953125 2.058594 104.476563 3.152344 104.476563 4.503906 C 104.476563 5.855469 102.953125 6.949219 101.074219 6.949219 C 99.195313 6.949219 97.667969 5.855469 97.667969 4.503906 C 97.667969 3.152344 99.195313 2.058594 101.074219 2.058594 Z M 101.074219 2.058594 "/>
<g clip-path="url(#clip5)" clip-rule="nonzero">
<path style="fill:none;stroke-width:2.599;stroke-linecap:butt;stroke-linejoin:miter;stroke:rgb(0%,25.87738%,48.631287%);stroke-opacity:1;stroke-miterlimit:4;" d="M 1010.742188 194.414063 C 1029.53125 194.414063 1044.765625 183.476563 1044.765625 169.960938 C 1044.765625 156.445313 1029.53125 145.507813 1010.742188 145.507813 C 991.953125 145.507813 976.679688 156.445313 976.679688 169.960938 C 976.679688 183.476563 991.953125 194.414063 1010.742188 194.414063 Z M 1010.742188 194.414063 " transform="matrix(0.1,0,0,-0.1,0,21.5)"/>
</g>
<path style="fill-rule:evenodd;fill:rgb(0%,25.87738%,48.631287%);fill-opacity:1;stroke-width:2.599;stroke-linecap:butt;stroke-linejoin:miter;stroke:rgb(0%,25.87738%,48.631287%);stroke-opacity:1;stroke-miterlimit:4;" d="M 945.820313 193.75 L 945.429688 139.257813 C 951.679688 139.257813 955.820313 143.28125 955.9375 147.8125 L 956.171875 203.476563 C 951.484375 203.4375 946.171875 201.71875 945.820313 193.75 Z M 945.820313 193.75 " transform="matrix(0.1,0,0,-0.1,0,21.5)"/>
<path style="fill-rule:evenodd;fill:rgb(0%,25.87738%,48.631287%);fill-opacity:1;stroke-width:2.599;stroke-linecap:butt;stroke-linejoin:miter;stroke:rgb(0%,25.87738%,48.631287%);stroke-opacity:1;stroke-miterlimit:4;" d="M 548.28125 37.148438 C 548.085938 34.0625 548.59375 31.835938 552.578125 31.875 L 590.9375 31.875 C 589.101563 25.546875 586.09375 20.46875 578.007813 20.390625 L 535.429688 20.390625 L 534.882813 102.5 C 534.765625 106.796875 538.984375 112.070313 548.046875 114.21875 Z M 548.28125 37.148438 " transform="matrix(0.1,0,0,-0.1,0,21.5)"/>
<path style="fill-rule:evenodd;fill:rgb(0%,25.87738%,48.631287%);fill-opacity:1;stroke-width:2.599;stroke-linecap:butt;stroke-linejoin:miter;stroke:rgb(0%,25.87738%,48.631287%);stroke-opacity:1;stroke-miterlimit:4;" d="M 620.3125 37.148438 C 620.195313 34.0625 620.703125 31.835938 624.648438 31.875 L 663.007813 31.875 C 661.171875 25.546875 658.164063 20.46875 650.078125 20.390625 L 607.539063 20.390625 L 606.953125 102.5 C 606.835938 106.796875 611.054688 112.070313 620.117188 114.21875 Z M 620.3125 37.148438 " transform="matrix(0.1,0,0,-0.1,0,21.5)"/>
<path style="fill-rule:evenodd;fill:rgb(0%,25.87738%,48.631287%);fill-opacity:1;stroke-width:2.599;stroke-linecap:butt;stroke-linejoin:miter;stroke:rgb(0%,25.87738%,48.631287%);stroke-opacity:1;stroke-miterlimit:4;" d="M 694.921875 37.109375 C 694.765625 34.023438 695.273438 31.796875 699.21875 31.835938 L 745.15625 31.835938 C 743.359375 25.507813 740.3125 20.429688 732.226563 20.351563 L 682.148438 20.351563 L 681.679688 112.734375 L 744.335938 112.617188 C 742.578125 107.1875 739.140625 102.1875 732.96875 102.265625 L 694.375 102.226563 L 694.648438 73.59375 L 739.804688 73.359375 C 738.125 66.953125 735.546875 63.085938 731.640625 62.890625 L 694.6875 62.929688 Z M 694.921875 37.109375 " transform="matrix(0.1,0,0,-0.1,0,21.5)"/>
<path style=" stroke:none;fill-rule:evenodd;fill:rgb(0%,25.87738%,48.631287%);fill-opacity:1;" d="M 99.355469 17.789063 C 99.339844 18.097656 99.390625 18.320313 99.789063 18.316406 L 104.378906 18.316406 C 104.199219 18.949219 103.894531 19.457031 103.089844 19.464844 L 98.078125 19.464844 L 98.03125 10.226563 L 104.296875 10.238281 C 104.128906 10.78125 103.777344 11.28125 103.160156 11.273438 L 99.300781 11.277344 L 99.328125 14.140625 L 103.84375 14.164063 C 103.679688 14.804688 103.421875 15.191406 103.027344 15.210938 L 99.335938 15.207031 Z M 99.355469 17.789063 "/>
<g clip-path="url(#clip6)" clip-rule="nonzero">
<path style="fill:none;stroke-width:2.599;stroke-linecap:butt;stroke-linejoin:miter;stroke:rgb(0%,25.87738%,48.631287%);stroke-opacity:1;stroke-miterlimit:4;" d="M 993.554688 37.109375 C 993.398438 34.023438 993.90625 31.796875 997.890625 31.835938 L 1043.789063 31.835938 C 1041.992188 25.507813 1038.945313 20.429688 1030.898438 20.351563 L 980.78125 20.351563 L 980.3125 112.734375 L 1042.96875 112.617188 C 1041.289063 107.1875 1037.773438 102.1875 1031.601563 102.265625 L 993.007813 102.226563 L 993.28125 73.59375 L 1038.4375 73.359375 C 1036.796875 66.953125 1034.21875 63.085938 1030.273438 62.890625 L 993.359375 62.929688 Z M 993.554688 37.109375 " transform="matrix(0.1,0,0,-0.1,0,21.5)"/>
</g>
<path style="fill-rule:evenodd;fill:rgb(0%,25.87738%,48.631287%);fill-opacity:1;stroke-width:2.599;stroke-linecap:butt;stroke-linejoin:miter;stroke:rgb(0%,25.87738%,48.631287%);stroke-opacity:1;stroke-miterlimit:4;" d="M 875.3125 19.6875 L 875.234375 111.640625 L 910.9375 111.875 C 947.851563 113.007813 975.195313 79.414063 957.304688 43.945313 C 950.976563 31.40625 934.570313 21.054688 911.757813 21.132813 L 901.71875 21.171875 C 900.703125 21.171875 900.273438 21.640625 900.234375 22.421875 L 900.234375 29.296875 C 900.234375 30 900.585938 30.3125 901.171875 30.351563 L 915.546875 30.351563 C 963.984375 31.679688 962.265625 101.132813 910.78125 102.695313 L 890.351563 102.695313 L 889.960938 30.742188 C 889.648438 25.390625 884.882813 20.78125 875.3125 19.6875 Z M 875.3125 19.6875 " transform="matrix(0.1,0,0,-0.1,0,21.5)"/>
</g>
</svg>
