<?xml version="1.0" encoding="UTF-8"?>
<svg id="Layer_2" data-name="Layer 2" xmlns="http://www.w3.org/2000/svg" viewBox="0 0 1016.82 266">
  <defs>
    <style>
      .cls-1 {
        fill: #fff;
      }
    </style>
  </defs>
  <g id="Layer_1-2" data-name="Layer 1">
    <g>
      <g>
        <path class="cls-1" d="m113.37,32.95c0,.08-.01.16-.02.24.78-.09,1.95-.11,2.93.5-.82-.76-1.94-.83-2.91-.74Z"/>
        <path class="cls-1" d="m87.8,21.89c-.67.05-1.24.26-1.72.54.47-.25,1.04-.42,1.72-.42,2.01-.12,3.53,1.29,4.24,2,0,0,0,0,0,0l-.24-.24c-.71-.7-2.23-2-4-1.88Z"/>
        <path class="cls-1" d="m106.87,27.89l-.11.03c0,.07,0,.14-.02.21,1.3-.24,3.89-.35,5.42,1.17.06.06.11.13.16.19-.12-.18-.25-.37-.41-.54-1.41-1.41-3.77-1.3-5.05-1.06Z"/>
        <path class="cls-1" d="m92.28,23.77l-.23.23c.95-.82,3.05-2.22,5.29-1.99.51.06.95.22,1.34.44-.39-.28-.86-.49-1.46-.57-2.12-.35-4.12,1.18-4.94,1.88Z"/>
        <path class="cls-1" d="m100.75,24.83l-.13.07s.01.03.02.05c.91-.4,2.43-.97,4.04-.38-1.57-.66-3.08-.16-3.92.27Z"/>
        <path class="cls-1" d="m114.05,42.96c-.7-.83-1.41-1.53-2-2.36-2.47-2.83-5.06-5.89-8.12-8.24-4.83-3.65-10.48-4.24-14.36-4.13-2.71.12-8.01.82-11.54,3.07,1.06,2.23,2.12,4.94,2.12,6.94,0,.36-.11.71-.24,1.06,2.23-1.32,4.79-.72,6.59.66.79-1.31,1.84-2.24,3.06-2.55,1.18-.24,2.36,0,3.42.71,2.23,1.52,2.71,1.52,4.83.35,1.3-.71,2.93-.59,4.23.24,1.3.82,2.12,2.23,2.12,3.88,1.06-.11,3.07-.24,4.48.95,1.29,1.06,1.52,2.82,1.52,3.77.95-.24,2.71-.24,3.77.94.95,1.06.95,2.36,1.06,3.29,0,.36,0,.82.12.95.11,0,.35.11.59.23,1.17.36,3.42,1.06,3.06,4.36,0,.7-.24.94-.59.94s-.59-.35-.59-.71c.24-2.23-1.06-2.7-2.24-3.06-.35-.11-.59-.24-.81-.35-.6-.35-.71-1.18-.71-1.88,0-.82,0-1.77-.71-2.47-1.06-1.18-3.29-.47-3.29-.47-.24.12-.47,0-.59-.11-.11-.12-.24-.36-.24-.6,0,0,.35-2.47-1.06-3.64-1.17-.94-3.41-.71-4.12-.59-.24,0-.36,0-.47-.12-.11-.11-.23-.35-.23-.46.11-1.53-.47-2.71-1.66-3.53-.94-.6-2.12-.71-3.06-.24-2.47,1.29-3.42,1.41-6.12-.47-.82-.59-1.65-.82-2.47-.59-.85.21-1.7,1.01-2.38,2.11.34.45.77.99,1.2,1.65.71,1.06,1.42,2.23,2.36,3.06.11.12.24.36.24.47,0,.24-.12.35-.24.47,0,0-1.65,1.17-4,2.93-.35.24-.59.47-.94.71l-.12.12,2.01.35c1.41-.95,2.94-1.18,4.47-1.18,4.95,0,10.72,3.07,15.07,5.54.82.47,1.65.94,2.35,1.3,7.54,3.88,15.07,7.3,23.07,5.88,0,0,6.48-1.29,9.66-6.47,2-3.18,2.36-7.18,1.06-11.78-.11-.47-.24-.94-.35-1.41-1.3-4.83-2.12-7.65.24-13.66-2.71-.11-4.36.71-5.3,1.53-1.77,1.65-2.59,4.48-2.47,8.47,0,.36-.24.6-.59.71-2.47.24-4.59,1.41-5.54,3.06-.94,1.65-1.06,3.77-.11,6.36,1.17-1.65,3.29-3.89,6-3.29,1.65.35,2.94,1.65,3.29,3.41.47,2.01-.11,4.12-1.65,5.3-3.53,2.82-8.47,1.65-11.65-.71-3.77-2.71-7.53-6.24-11.42-10.71Z"/>
        <path class="cls-1" d="m68.19,57.98c.1-.04.2-.07.31-.07,2.93.35,7.06,0,10.82-3.89.24-.24.6-.24.95,0,.24.24.24.6,0,.95-2.83,2.82-6.24,4.35-10.01,4.35-.42,0-.86-.02-1.33-.06.04.18.1.36.16.53.12.35.24.59.47.82.35.46.94.82,1.52,1.06.47.11.95.24,1.53.24,4.13,0,7.42-2.01,10.13-4,1.65-1.18,3.64-3.18,4.23-4.71.11-.46.24-.82.24-1.29l-2.82-.47h-.12c-.35-.12-.47-.35-.59-.59-.11-.59.47-.95,1.41-1.65.36-.24.59-.47.95-.59,1.52-1.06,2.71-2.01,3.41-2.48-.82-.94-1.41-1.88-2-2.71-.47-.7-.82-1.17-1.17-1.52-1.42-1.53-3.89-2.47-6.01-1.18-.81.47-1.52,1.18-2.35,1.77-.59.59-1.3,1.06-2.01,1.65-.24.24-.59.11-.82-.11-.23-.24-.23-.6,0-.83.12-.11.24-.23.36-.35.94-.82,3.06-2.94,3.06-4.35.25-2.74-1.35-6.34-2.7-8.83-.13-.1-.19-.23-.22-.39-.42-.76-.81-1.4-1.08-1.84-2.23,2.12-3.88,5.19-5.29,8.01-1.06,2.23-1.88,4.24-2.47,6.24v.24c-.36,1.41-1.18,4.47-.12,5.65.12.11.35.23.47.46.24.12.35.24.59.47,2.23,2.12.7,3.88-.47,5.18-.59.82-1.29,1.53-1.29,2.12,0,1.4,1.56,2.01,2.28,2.19Zm3.84-9.02c-.11-1.3,1.18-1.88,2.12-1.88.71,0,1.42.24,2.01.71.23.24.46.35.59.46.46.47.46,1.18-.12,1.53-.46.35-1.05.82-1.41,1.06-.82.59-2.23,1.53-3.18.82-.46-.35.47-1.06,0-2.71Z"/>
        <path class="cls-1" d="m14.82,26.71h-.11v2.83c0,1.06-.71,1.52-1.3,2-.35.12-.59.35-.7.59-.12.24-.25.47-.25.71s.12.47.25.7c.23.24.46.36.7.6.59.46,1.3.94,1.3,2v12.36c0,1.05-.71,1.52-1.3,2-.35.11-.59.35-.7.59-.12.24-.25.47-.25.71s.12.47.25.7c.23.24.46.36.7.59.59.47,1.3.95,1.3,2.01v2.71h42.37v-2.71c0-1.06.7-1.53,1.3-2.01.35-.11.59-.35.7-.59.12-.23.24-.46.24-.7,0-.36,0-.59-.24-.95-.23-.24-.46-.35-.7-.59-.6-.47-1.3-.94-1.3-2v-12.24c0-1.06.7-1.53,1.3-2.01.35-.11.59-.35.7-.59.12-.24.24-.47.24-.71s-.11-.46-.24-.7c-.23-.24-.46-.35-.7-.59-.6-.47-1.3-.95-1.3-2.01v-2.82h-.11c-1.06,0-2.12,0-3.18-.12v28.13h-15.42c-.24,1.06-1.3,1.88-2.47,1.88s-2.23-.82-2.47-1.88h-15.42v-28.01c-.95.11-2.12.11-3.18.11Z"/>
        <path class="cls-1" d="m30.36,50.73c2.01-.71,3.65-1.18,4.83-1.3h.12v-24.48c-.82-.12-1.77-.47-2.71-.82-1.42-.47-3.06-1.18-4.71-1.18-2,0-3.17.82-4.59,1.66-.59.46-1.29.82-2,1.17-.59.24-1.17.47-1.88.35v25.9c1.06-.12,2.23-.12,3.42-.12,1.88,0,3.77,0,5.64-.59.6-.24,1.3-.35,1.88-.59Z"/>
        <path class="cls-1" d="m43.43,51.66c1.88.6,3.76.6,5.64.6,1.18,0,2.36,0,3.42.11v-25.9c-.71-.11-1.3-.35-1.88-.59-.71-.35-1.41-.82-2-1.17-1.3-.82-2.59-1.65-4.59-1.65-1.65,0-3.29.59-4.7,1.17-.95.36-1.77.71-2.72.82v24.72h.12c1.17.12,2.94.71,4.83,1.3.59.24,1.3.35,1.88.59Z"/>
        <path class="cls-1" d="m76.8,29.05c.17.34.35.69.53,1.07,4.7-2.82,11.29-3.06,12.12-3.17,4.12-.12,10.13.46,15.18,4.47,3.18,2.47,5.76,5.41,8.24,8.36.7.7,1.3,1.53,2,2.35,2.06,2.31,4.05,4.35,6.03,6.16.43-1.24.37-2.29-.02-3.1-.71-1.3-2.24-1.65-2.24-1.65-.11,0-.35-.11-.35-.35-.11-.12-.11-.36,0-.47.24-.59.71-2.36.35-3.18-.24-.7-1.65-1.06-2.12-1.06-.23,0-.35-.11-.46-.24-.12-.11-.12-.35,0-.59.24-.46.59-1.88.11-2.58-.95-1.41-3.41-.71-3.41-.71-.24.12-.47,0-.59-.11-.12-.12-.25-.36-.12-.59,0,0,.71-2.24-.71-3.65-1.65-1.65-5.05-.71-5.18-.71-.24.12-.46,0-.59-.11-.11-.11-.24-.35-.11-.59,0-.12.59-1.88-.59-2.71-2.01-1.3-4.24.35-4.24.35-.12.12-.35.12-.59.12-.24-.12-.36-.24-.36-.47,0-.11-.35-2.47-2.47-2.82-2.35-.36-4.7,2-4.7,2.11-.12.12-.24.24-.47.12-.11,0-.35-.12-.46-.24,0,0-1.66-2.12-3.65-2-2.01.11-2.71,2.11-2.71,2.11-.11.24-.24.36-.47.36s-.35,0-.59-.12c0,0-2-1.88-4-1.17-2.31.88-3.07,3.59-3.35,4.81Z"/>
        <path class="cls-1" d="m153.47,26.71h-.11v2.83c0,1.06-.7,1.52-1.3,2-.35.12-.59.35-.7.59-.12.24-.24.47-.24.71s.11.47.24.7c.23.24.46.36.7.6.6.46,1.3.94,1.3,2v12.36c0,1.05-.7,1.52-1.3,2-.35.11-.59.35-.7.59-.12.24-.24.47-.24.71s.11.47.24.7c.23.24.46.36.7.59.6.47,1.3.95,1.3,2.01v2.71h42.37v-2.71c0-1.06.71-1.53,1.3-2.01.35-.11.59-.35.7-.59.12-.23.25-.46.25-.7,0-.36-.12-.59-.25-.95-.23-.24-.46-.35-.7-.59-.59-.47-1.3-.94-1.3-2v-12.24c0-1.06.71-1.53,1.3-2.01.35-.11.59-.35.7-.59.12-.24.25-.47.25-.71s-.12-.46-.25-.7c-.23-.24-.46-.35-.7-.59-.59-.47-1.3-.95-1.3-2.01v-2.82h-.11c-1.06,0-2.12,0-3.18-.12v28.13h-15.42c-.24,1.06-1.3,1.88-2.47,1.88s-2.23-.82-2.47-1.88h-15.42v-28.01c-.95.11-2.12.11-3.18.11Z"/>
        <path class="cls-1" d="m79.78,23.19c-.33.12-.63.28-.92.46.28-.17.58-.33.92-.46Z"/>
        <path class="cls-1" d="m122.52,113.69c0-9.53-7.76-17.3-17.3-17.3s-17.29,7.77-17.29,17.3,7.76,17.42,17.29,17.3c9.54,0,17.3-7.77,17.3-17.3Z"/>
        <path class="cls-1" d="m6.83,110.75c-.12,18.71,4.47,35.32,11.18,49.55l87.21-84.15,87.34,84.15c6.7-14.24,11.18-30.84,11.18-49.55v-37.31H6.83v37.31Z"/>
        <path class="cls-1" d="m210.56,5.76H0v104.99c-.12,45.67,25.18,78.75,46.49,98.52,23.42,21.65,49.19,34.12,57.79,36.01l1.06.24,1.06-.24c8.59-1.88,34.37-14.36,57.79-36.01,21.31-19.66,46.61-52.85,46.5-98.52-.12-1.3-.12-104.99-.12-104.99Zm-49.08,200.57c-22.6,20.95-47.91,33.31-55.91,35.07h-.47c-8.01-1.76-33.31-14.12-55.91-35.07C28.48,187.14,3.88,155.01,4,110.75V9.77h202.56s0,99.7.12,100.98c.11,44.26-24.49,76.39-45.2,95.58Z"/>
        <path class="cls-1" d="m140.18,144.53c-6.82,6.71-6.82,17.65,0,24.48,6.71,6.82,17.65,6.82,24.49,0,6.83-6.71,6.83-17.77,0-24.48-6.71-6.83-17.66-6.83-24.49,0Z"/>
        <path class="cls-1" d="m168.89,50.73c2.01-.71,3.65-1.18,4.83-1.3h.12v-24.48c-.83-.12-1.77-.47-2.72-.82-1.41-.47-3.06-1.18-4.7-1.18-2,0-3.17.82-4.59,1.66-.59.46-1.29.82-2,1.17-.59.24-1.17.47-1.88.35v25.9c1.06-.12,2.23-.12,3.42-.12,1.88,0,3.76,0,5.64-.59.59-.24,1.3-.35,1.88-.59Z"/>
        <path class="cls-1" d="m182.08,51.66c1.88.6,3.77.6,5.65.6,1.17,0,2.35,0,3.41.11v-25.9c-.7-.11-1.29-.35-1.87-.59-.71-.35-1.42-.82-2.01-1.17-1.3-.82-2.58-1.65-4.59-1.65-1.65,0-3.29.59-4.7,1.17-.95.36-1.88.71-2.71.82v24.72h.11c1.18.12,2.94.71,4.83,1.3.59.24,1.3.35,1.88.59Z"/>
        <path class="cls-1" d="m49.43,202.56c.59.59,1.17,1.17,1.76,1.65,23.43,21.66,47.67,32.6,54.15,34.25,6.47-1.65,30.72-12.48,54.14-34.25.6-.47,1.18-1.06,1.77-1.65l-55.91-59.32-55.91,59.32Z"/>
        <path class="cls-1" d="m70.38,169.01c6.83-6.71,6.83-17.65,0-24.48-6.71-6.83-17.65-6.83-24.48,0-6.83,6.71-6.83,17.65,0,24.48,6.71,6.82,17.77,6.82,24.48,0Z"/>
      </g>
      <g>
        <rect class="cls-1" x="232.69" y="192.55" width="784.12" height="4.12"/>
        <g>
          <path class="cls-1" d="m243.05,236.1c0,7.89,2.12,13.89,10.48,13.89,7.65,0,11.77-5.18,11.77-14.12v-15.66c0-1.17-.24-2.11-.36-3.06-.23-2-2.22-2.82-4.82-3.06v-1.53h13.3v1.42c-2.71.23-4.59,1.05-4.83,3.06-.12.94-.35,1.88-.35,3.06v16.01c0,12.13-7.65,16.59-14.95,16.59-12.01,0-15.66-6.12-15.66-16.24v-16.83c0-5.18.24-4.94-4.83-5.53v-1.53h15.18v1.42c-5.06.59-4.83.35-4.83,5.53l-.11,16.59Z"/>
          <path class="cls-1" d="m305.2,251.99c-6.95-8.12-14.12-16.72-21.19-25.07v19.18c0,.95.11,1.65.24,2.36.24,1.53,1.65,2.23,4.59,2.36v1.17h-10.59v-1.17c2.11-.24,3.52-.82,3.77-2.36.11-.71.23-1.41.23-2.36v-20.48c-1.17-1.53-2.58-2.94-5.05-2.94v-1.17h7.89c6.47,7.89,13.18,15.88,19.65,23.66h.12v-17.89c0-.95-.12-1.65-.24-2.36-.24-1.52-1.65-2.12-4.59-2.35v-1.18h10.59v1.18c-2,.23-3.53.82-3.77,2.35-.11.71-.24,1.41-.24,2.36v24.48h-1.41v.24Z"/>
          <path class="cls-1" d="m327.56,246.58c0,4-.12,3.77,3.77,4.35v1.17h-11.65v-1.17c3.88-.47,3.77-.24,3.77-4.35v-19.54c0-4,.11-3.77-3.77-4.35v-1.17h11.65v1.17c-3.89.47-3.77.24-3.77,4.35v19.54Z"/>
          <path class="cls-1" d="m349.8,222.69c-2.36,0-4.12.71-2.71,4.83,1.65,5.18,4.24,12.59,6.47,19.18,2.83-6.59,5.41-13.29,8.12-20,1.06-2.71,0-4.12-2.94-4.12v-1.18h9.42v1.18c-1.3,0-2.71.46-3.64,2.58-3.65,8.95-7.3,17.78-10.95,26.6h-2.23c-2.59-7.53-5.65-15.88-8.24-23.31-1.66-4.59-2.95-6-5.06-6v-1.17h11.77v1.41Z"/>
          <path class="cls-1" d="m374.76,250.82c3.88-.47,3.77-.24,3.77-4.35v-19.54c0-4,.11-3.77-3.77-4.35v-1.17h19.42v6.94h-1.18c-.47-3.18-1.29-5.65-4.47-5.65h-5.89v12.36h3.65c2.71,0,3.88-1.06,3.99-3.77h1.18v9.3h-1.18c-.11-2.58-1.06-4.12-3.99-4.12h-3.65v9.77c0,3.65,1.65,4,5.65,4,6.24,0,6-1.77,8.01-6.47h1.17l-1.3,7.77h-21.3l-.12-.71Z"/>
          <path class="cls-1" d="m404.07,221.63h12.59c4.35,0,8.83,2.35,8.83,7.41,0,4.48-2.71,7.53-6.12,8.83l4.24,6.47c2.11,3.17,4.59,6.23,6.12,7.06v.59h-4.47c-2.59,0-4-4.71-9.18-13.42h-4.12v8.01c0,3.99-.12,3.77,3.76,4.35v1.17h-11.64v-1.17c3.88-.47,3.77-.24,3.77-4.35v-19.54c0-4,.11-3.77-3.77-4.35v-1.06Zm7.89,15.53h3.64c3.77,0,5.54-2.82,5.54-7.77s-2.59-6.35-5.77-6.35h-3.41v14.12Z"/>
          <path class="cls-1" d="m451.26,228.1c-.35-3.06-2.01-5.41-5.41-5.41-2.47,0-4.83,1.3-4.83,4.47s3.06,4.83,7.41,8.13c4.59,3.41,6.12,5.64,6.12,9.3,0,5.18-5.3,8-10.48,8-2.82,0-5.17-.47-7.41-1.41-.11-.11-.35-.24-.35-.59v-6.24h1.17c.47,4.83,3.64,6.71,6.94,6.71,3.07,0,5.66-2.36,5.66-5.54,0-2.82-1.53-5.18-8.01-9.42-2.36-1.52-5.29-3.29-5.29-8,0-3.88,4.34-6.95,9.3-6.95,1.88,0,4.35.24,6.12.83.24.11.36.23.36.46v5.65h-1.3Z"/>
          <path class="cls-1" d="m470.21,246.58c0,4-.24,3.77,3.77,4.35v1.17h-11.65v-1.17c3.88-.47,3.77-.24,3.77-4.35v-19.54c0-4,.11-3.77-3.77-4.35v-1.17h11.65v1.17c-3.88.47-3.77.24-3.77,4.35v19.54Z"/>
          <path class="cls-1" d="m495.4,246.58c0,4-.11,3.77,3.77,4.35v1.17h-11.65v-1.17c3.88-.47,3.77-.24,3.77-4.35v-23.54h-4c-3.77,0-4.59,2.36-6.12,5.3h-1.05l1.17-6.6h24.01l1.18,6.6h-1.06c-1.41-2.83-2.36-5.3-6.12-5.3h-3.89v23.54Z"/>
          <path class="cls-1" d="m519.06,250.82c3.88-.47,3.77-.24,3.77-4.35v-6.71l-6.71-13.18c-1.41-2.83-2.58-3.89-4.59-3.89v-1.17h11.07v1.17c-3.29,0-2.94,1.65-1.88,3.89l5.3,10.94,6-10.94c1.52-2.59.11-3.89-2.48-3.89v-1.17h8.95v1.17c-1.17,0-2.35.59-3.53,2.59l-7.3,13.18c-.46.82-.46,2.12-.46,3.18v4.83c0,4-.12,3.77,3.77,4.35v1.17h-11.89v-1.17Z"/>
          <path class="cls-1" d="m558.14,241.64c0-7.42,6.35-18.36,15.77-18.36,7.53,0,9.06,5.06,9.06,10.12,0,6.24-4.94,19.3-15.66,19.3-7.3,0-9.17-5.88-9.17-11.06m19.65-11.07c0-5.89-3.53-6.12-4.48-6.12-6.12,0-10.12,10.95-10.12,18.25,0,2.94.47,8.24,4.71,8.24,6.47,0,9.88-10.59,9.88-20.36"/>
          <path class="cls-1" d="m611.1,225.04l-1.3,1.17h-7.41c-2.71,13.42-7.3,31.19-10.48,39.79h-2.58l8-39.79h-5.29l.47-2.35h5.29c2.94-12,12.84-13.19,15.31-13.19,1.29,0,3.99.24,4.83,1.06l-.71,3.77-1.41.71c-.83-1.53-2.59-3.3-4.94-3.3-3.42,0-5.9,2.36-7.3,8.36l-.6,2.71h8.24l-.12,1.06Z"/>
          <path class="cls-1" d="m645.59,244.93c0,5.18-.24,4.94,4.83,5.53v1.42h-15.18v-1.42c5.06-.59,4.83-.35,4.83-5.53v-25.3c0-5.18.24-4.95-4.83-5.54v-1.52h14.71c9.3,0,14.01,3.77,14.01,10.47,0,8.12-7.3,12.48-15.89,12v-1.17c7.06.12,10.24-4.12,10.24-10.24s-3.06-9.17-9.3-9.17h-3.42v30.48Z"/>
          <path class="cls-1" d="m671.72,250.82c3.88-.47,3.77-.24,3.77-4.35v-19.54c0-4,.11-3.77-3.77-4.35v-1.17h19.41v6.94h-1.17c-.47-3.18-1.29-5.65-4.47-5.65h-5.89v12.36h3.64c2.72,0,3.89-1.06,4-3.77h1.17v9.3h-1.17c-.11-2.58-1.05-4.12-4-4.12h-3.64v9.77c0,3.65,1.65,4,5.65,4,6.24,0,6-1.77,8-6.47h1.18l-1.3,7.77h-21.31v-.71h-.11Z"/>
          <path class="cls-1" d="m728.8,251.99c-6.95-8.12-14.12-16.72-21.19-25.07v19.18c0,.95.11,1.65.24,2.36.23,1.53,1.65,2.23,4.59,2.36v1.17h-10.59v-1.17c2.12-.24,3.52-.82,3.77-2.36.11-.71.24-1.41.24-2.36v-20.48c-1.18-1.53-2.59-2.94-5.06-2.94v-1.17h7.89c6.47,7.89,13.18,15.88,19.65,23.66h.12v-17.89c0-.95-.12-1.65-.24-2.36-.24-1.52-1.66-2.12-4.59-2.35v-1.18h10.59v1.18c-2,.23-3.53.82-3.77,2.35-.11.71-.24,1.41-.24,2.36v24.48h-1.41v.24Z"/>
          <path class="cls-1" d="m767.64,251.99c-6.95-8.12-14-16.72-21.19-25.07v19.18c0,.95.11,1.65.24,2.36.24,1.53,1.65,2.23,4.59,2.36v1.17h-10.59v-1.17c2.12-.24,3.53-.82,3.77-2.36.11-.71.24-1.41.24-2.36v-20.48c-1.18-1.53-2.59-2.94-5.06-2.94v-1.17h7.89c6.47,7.89,13.18,15.88,19.66,23.66h.11v-17.89c0-.95-.11-1.65-.24-2.36-.24-1.52-1.65-2.12-4.59-2.35v-1.18h10.59v1.18c-2,.23-3.53.82-3.76,2.35-.12.71-.24,1.41-.24,2.36v24.48h-1.42v.24Z"/>
          <path class="cls-1" d="m795.89,228.1c-.35-3.06-2.01-5.41-5.41-5.41-2.47,0-4.83,1.3-4.83,4.47s3.06,4.83,7.41,8.13c4.59,3.41,6.12,5.64,6.12,9.3,0,5.18-5.3,8-10.48,8-2.82,0-5.17-.47-7.41-1.41-.11-.11-.35-.24-.35-.59v-6.24h1.17c.47,4.83,3.64,6.71,6.95,6.71,3.06,0,5.65-2.36,5.65-5.54,0-2.82-1.53-5.18-8.01-9.42-2.36-1.52-5.29-3.29-5.29-8,0-3.88,4.34-6.95,9.3-6.95,1.88,0,4.35.24,6.12.83.24.11.36.23.36.46v5.65h-1.3Z"/>
          <path class="cls-1" d="m813.55,250.82c3.88-.47,3.76-.24,3.76-4.35v-6.71l-6.7-13.18c-1.42-2.83-2.59-3.89-4.59-3.89v-1.17h11.07v1.17c-3.29,0-3.07,1.65-1.88,3.89l5.3,10.94,5.99-10.94c1.53-2.59.12-3.89-2.47-3.89v-1.17h8.95v1.17c-1.17,0-2.35.59-3.53,2.59l-7.3,13.18c-.46.82-.46,2.12-.46,3.18v4.83c0,4-.12,3.77,3.77,4.35v1.17h-11.65v-1.17h-.24Z"/>
          <path class="cls-1" d="m839.91,250.82c3.88-.47,3.77-.24,3.77-4.35v-19.54c0-4,.11-3.77-3.77-4.35v-1.17h11.65v1.17c-3.88.47-3.77.24-3.77,4.35v20.25c0,3.06,1.65,3.29,5.54,3.29,6.23,0,6-1.77,8-6.47h1.06l-1.3,7.77h-21.3l.11-.95Z"/>
          <path class="cls-1" d="m877.69,222.69c-2.36,0-4.12.71-2.71,4.83,1.66,5.18,4.24,12.59,6.47,19.18,2.83-6.59,5.41-13.29,8.12-20,1.06-2.71,0-4.12-2.93-4.12v-1.18h9.41v1.18c-1.3,0-2.71.46-3.64,2.58-3.65,8.95-7.3,17.78-10.95,26.6h-2.23c-2.71-7.53-5.65-15.88-8.24-23.31-1.65-4.59-2.95-6-5.06-6v-1.17h11.77v1.41Z"/>
          <path class="cls-1" d="m903,241.87l-2.01,5.76c-.59,1.65.24,3.18,2.12,3.18v1.17h-7.89v-1.17c1.17,0,2.47-.7,3.18-2.12,1.88-3.77,6.94-18,10.59-27.66h2.47c2.94,8.71,7.41,22.13,8.82,26.01.95,2.47,1.65,3.77,3.53,3.77v1.17h-10.12v-1.17c2.71,0,2.94-1.41,2.36-3.29l-1.88-5.65h-11.18Zm10.59-1.65l-4.59-14.12h-.12l-5.18,14.12h9.89Z"/>
          <path class="cls-1" d="m957.38,251.99c-6.95-8.12-14.13-16.72-21.19-25.07v19.18c0,.95.12,1.65.24,2.36.24,1.53,1.66,2.23,4.59,2.36v1.17h-10.59v-1.17c2.12-.24,3.53-.82,3.77-2.36.12-.71.24-1.41.24-2.36v-20.48c-1.17-1.53-2.59-2.94-5.06-2.94v-1.17h7.89c6.47,7.89,13.19,15.88,19.66,23.66h.12v-17.89c0-.95-.12-1.65-.24-2.36-.25-1.52-1.65-2.12-4.59-2.35v-1.18h10.59v1.18c-2.01.23-3.53.82-3.77,2.35-.11.71-.24,1.41-.24,2.36v24.48h-1.41v.24Z"/>
          <path class="cls-1" d="m977.86,246.58c0,4-.12,3.77,3.77,4.35v1.17h-11.65v-1.17c3.88-.47,3.77-.24,3.77-4.35v-19.54c0-4,.11-3.77-3.77-4.35v-1.17h11.65v1.17c-3.89.47-3.77.24-3.77,4.35v19.54Z"/>
          <path class="cls-1" d="m995.98,241.87l-2,5.76c-.59,1.65.24,3.18,2.12,3.18v1.17h-7.89v-1.17c1.17,0,2.47-.7,3.17-2.12,1.88-3.77,6.95-18,10.59-27.66h2.47c2.94,8.71,7.41,22.13,8.83,26.01.94,2.47,1.65,3.77,3.53,3.77v1.17h-10.12v-1.17c2.71,0,2.93-1.41,2.23-3.29l-1.88-5.65h-11.07Zm10.59-1.65l-4.59-14.12h-.11l-5.18,14.12h9.88Z"/>
        </g>
        <g>
          <path class="cls-1" d="m618.63,149.01v-32.6c-10.59,4.59-37.78,11.18-37.78,25.43,0,9.41,7.06,17.18,16.95,17.18,8.82-.12,14-4.94,20.83-10.01m.24-38.25v-24.95c0-9.18-5.88-11.54-14.59-11.54s-20.6,5.65-20.6,10.72c0,1.41.59,3.06.59,5.29,0,8.71-2.23,14.6-12.24,14.6-4.24,0-7.06-4.12-7.06-7.76,0-5.06,3.53-9.89,8.47-14.01,10.59-8.71,27.42-15.77,41.31-15.77s22.01,8.47,22.01,22.25v61.32c0,3.88,0,10.71,5.41,10.71,3.77,0,5.89-4.82,6.6-7.76h3.77c-1.18,10.94-5.89,17.42-17.07,17.42-8.72,0-16.01-7.77-16.25-15.77-11.06,8-18.48,15.77-33.06,15.77-10.84,0-20.83-8.47-20.83-19.42-.11-25.3,34.6-33.07,53.55-41.07"/>
          <path class="cls-1" d="m822.73,119.11c0,17.65,6.6,46.72,29.54,46.72s30.02-23.19,30.02-41.2c0-19.42-2.83-52.74-29.78-52.74-22.96,0-29.78,30.02-29.78,47.21m-19.89-.95c0-27.66,19.89-51.32,49.08-51.32,30.72,0,50.49,23.07,50.49,52.14s-19.3,51.79-50.26,51.79-49.32-23.54-49.32-52.61"/>
          <path class="cls-1" d="m232.57,15.3v-5.41h53.32v5.41c-9.89.24-13.66.24-13.66,6.12,0,.23.12,1.76,1.06,4.12l32.14,109.23L350.86,4.7h3.77l39.44,128.42s31.19-93.82,31.19-107.12c0-10.47-6.6-9.76-15.07-10.71v-5.41h32.72c14.36,0,29.07-4.94,37.43-9.88v82.98c10.12-9.07,18.71-16.24,33.31-16.24,10.83,0,20.83,4.83,26.24,14,4.94,8.01,5.89,15.54,5.89,24.49v46.01c0,11.89,3.06,11.89,13.42,12.6v4.35h-44.61v-4.35c9.65-.71,12.71-.71,12.71-12.6v-46.01c0-7.3,0-10.48-3.29-17.43-3.77-6.59-10.48-13.06-18.95-11.65-12.95,2.12-17.89,8.12-24.6,14.6v60.5c0,11.89,3.07,11.89,12.95,12.6v4.35h-45.08v-4.35c10.59-.71,13.65-.71,13.65-12.6V16.71c.24-.24-3.64,0-8.47,0-18.01,1.18-18.48,14.83-24.24,31.19l-40.5,123.12h-4.23l-40.02-123.35-46.26,123.48h-4l-42.61-135.59c-2.58-7.06-3.76-13.06-7.53-16.95-2.01-2-2.12-3.41-11.54-3.29"/>
          <path class="cls-1" d="m949.49,168.31v-4.35c-10.12-.71-13.19-.71-13.19-12.6v-54.26c0-10.59,14.12-20.12,24.13-20.12,15.31,0,23.42,9.66,23.42,24.02v50.37c0,11.89-3.06,11.89-13.65,12.6v4.35h46.5v-4.35c-8.01-.71-14.36-.71-14.36-12.6v-54.26c0-17.18-17.3-30.24-34.26-30.24-14.82,0-22.24,6.83-31.89,16.48v-16.48c-10.13,3.64-20.83,8.95-31.78,10.47v3.65c9.77,1.06,13.3,4.12,13.3,12.83v57.55c0,11.89-3.07,11.89-13.66,12.6v4.35h45.44Z"/>
          <path class="cls-1" d="m704.32,168.31v-4.35c-12-.71-15.07-.71-15.07-12.6v-60.61c0-3.65,6.12-9.42,12.71-9.42,6.12-.11,7.18,7.06,14.83,7.06,9.42,0,11.65-5.05,11.65-11.89s-7.66-11.18-16.24-11.18c-10.12,0-17.89,8.71-23.43,16.48v-15.53c-10.59,4.82-22.12,9.41-32.71,11.06v3.65c10.47,1.06,14.59,3.53,14.59,12.48v57.9c0,11.89-3.06,11.89-13.18,12.6v4.35h46.85Z"/>
          <path class="cls-1" d="m802.25,72.5l3.42-12.6h-40.37v-20.36h-2.36c-9.41,11.19-18.48,20.72-29.42,30.37v2.71h12.83v68.98c0,16.36,7.41,30.01,25.07,30.01,15.19,0,26.84-11.06,33.07-18.48l-2.82-3.88c-5.54,6.24-12.84,9.77-19.54,9.77-13.54,0-16.94-7.3-16.94-19.89v-66.62h37.07Z"/>
        </g>
      </g>
    </g>
  </g>
</svg>